<svg width="45" height="45" viewBox="0 0 45 45" fill="none" xmlns="http://www.w3.org/2000/svg">
<rect width="45" height="45" rx="22.5" fill="white" fill-opacity="0.9"/>
<mask id="path-2-outside-1_37_28" maskUnits="userSpaceOnUse" x="10.25" y="17.2812" width="25" height="17" fill="black">
<rect fill="white" x="10.25" y="17.2812" width="25" height="17"/>
<path d="M-nan -nanL23.488 31.8853C23.5021 31.8684 23.5077 31.8459 23.5218 31.8291L33.3402 20.9813C33.8887 20.3709 33.8887 19.3809 33.3402 18.7706C33.3307 18.7611 33.319 18.754 33.3102 18.7438C33.1905 18.6032 33.0424 18.4893 32.8756 18.4097C32.7026 18.3271 32.5137 18.2832 32.3221 18.2812H12.6824C12.4873 18.2844 12.2952 18.3304 12.1197 18.4159C11.9455 18.5008 11.7919 18.6228 11.6696 18.7731C11.6683 18.7748 11.6658 18.7749 11.6642 18.7734C11.6627 18.7719 11.6603 18.772 11.6589 18.7736C11.3951 19.0802 11.25 19.4714 11.25 19.8759C11.25 20.2818 11.3961 20.6742 11.6615 20.9813L21.5024 31.8853C21.6249 32.0289 21.7771 32.1442 21.9485 32.2233C22.1199 32.3024 22.3065 32.3433 22.4952 32.3433C22.684 32.3433 22.8705 32.3024 23.0419 32.2233C23.2133 32.1442 23.3655 32.0289 23.488 31.8853L-nan -nanZ"/>
</mask>
<path d="M23.5218 31.8291L22.7804 31.158L22.7667 31.1732L22.7536 31.1889L23.5218 31.8291ZM33.3402 20.9813L34.0816 21.6523L34.084 21.6496L33.3402 20.9813ZM32.8756 18.4097L33.3065 17.5073L32.8756 18.4097ZM32.3221 18.2812L32.3325 17.2812H32.3221V18.2812ZM12.6824 18.2812V17.2812H12.6743L12.6663 17.2814L12.6824 18.2812ZM11.6615 20.9813L10.9049 21.6352L10.9119 21.6433L10.9191 21.6512L11.6615 20.9813ZM21.5024 31.8853L22.2632 31.2363L22.2541 31.2257L22.2448 31.2153L21.5024 31.8853ZM11.6696 18.7731L12.4455 19.404L11.6696 18.7731ZM33.3102 18.7438L32.5491 19.3923L33.3102 18.7438ZM11.6589 18.7736L10.9008 18.1214L11.6589 18.7736ZM24.2563 32.5255C24.3081 32.4633 24.3433 32.4066 24.3645 32.3697C24.3752 32.3509 24.3836 32.3351 24.3891 32.3245C24.3942 32.3147 24.3986 32.3058 24.3993 32.3044C24.4011 32.3009 24.3991 32.3048 24.3966 32.3098C24.3936 32.3155 24.3878 32.3265 24.3798 32.3405C24.364 32.3679 24.3348 32.4154 24.29 32.4692L22.7536 31.1889C22.7017 31.2511 22.6665 31.3078 22.6453 31.3447C22.6346 31.3634 22.6262 31.3793 22.6207 31.3898C22.6156 31.3997 22.6112 31.4086 22.6105 31.41C22.6087 31.4135 22.6107 31.4095 22.6133 31.4046C22.6162 31.3989 22.622 31.3879 22.63 31.3739C22.6458 31.3465 22.675 31.2989 22.7198 31.2451L24.2563 32.5255ZM24.2632 32.5001L34.0816 21.6523L32.5988 20.3102L22.7804 31.158L24.2632 32.5001ZM34.084 21.6496C34.9741 20.6592 34.9741 19.0927 34.084 18.1022L32.5964 19.439C32.8033 19.6692 32.8033 20.0827 32.5964 20.3129L34.084 21.6496ZM34.0714 18.0952C33.8606 17.8478 33.6 17.6474 33.3065 17.5073L32.4446 19.312C32.4847 19.3312 32.5203 19.3585 32.5491 19.3923L34.0714 18.0952ZM33.3065 17.5073C33.0021 17.3619 32.6698 17.2848 32.3325 17.2813L32.3117 19.2812C32.3577 19.2817 32.4031 19.2922 32.4446 19.312L33.3065 17.5073ZM32.3221 17.2812H12.6824V19.2812H32.3221V17.2812ZM12.6663 17.2814C12.3247 17.2869 11.9885 17.3673 11.6815 17.517L12.558 19.3148C12.6018 19.2934 12.6498 19.2819 12.6986 19.2811L12.6663 17.2814ZM11.6815 17.517C11.3766 17.6657 11.1078 17.879 10.8938 18.1422L12.4455 19.404C12.476 19.3665 12.5144 19.336 12.558 19.3148L11.6815 17.517ZM10.9008 18.1214C10.481 18.6095 10.25 19.232 10.25 19.8759H12.25C12.25 19.7107 12.3093 19.551 12.417 19.4257L10.9008 18.1214ZM10.25 19.8759C10.25 20.522 10.4825 21.1464 10.9049 21.6352L12.418 20.3273C12.3096 20.2019 12.25 20.0417 12.25 19.8759H10.25ZM10.9191 21.6512L20.76 32.5553L22.2448 31.2153L12.4038 20.3113L10.9191 21.6512ZM20.7416 32.5343C20.958 32.788 21.2269 32.9917 21.5296 33.1313L22.3674 31.3153C22.3274 31.2968 22.2918 31.2699 22.2632 31.2363L20.7416 32.5343ZM21.5296 33.1313C21.8324 33.271 22.1618 33.3433 22.4952 33.3433V31.3433C22.4511 31.3433 22.4075 31.3338 22.3674 31.3153L21.5296 33.1313ZM22.4952 33.3433C22.8286 33.3433 23.1581 33.271 23.4608 33.1313L22.623 31.3153C22.5829 31.3338 22.5393 31.3433 22.4952 31.3433V33.3433ZM23.4608 33.1313C23.7636 32.9917 24.0324 32.788 24.2488 32.5343L22.7273 31.2363C22.6986 31.2699 22.663 31.2968 22.623 31.3153L23.4608 33.1313ZM10.8938 18.1422C11.2649 17.6858 11.952 17.6469 12.3714 18.0664L10.957 19.4804C11.3795 19.903 12.0717 19.8637 12.4455 19.404L10.8938 18.1422ZM34.0473 18.0635C34.0171 18.0333 33.9909 18.0108 33.9764 17.9985C33.9689 17.9922 33.9627 17.9872 33.9597 17.9847C33.9582 17.9836 33.9568 17.9824 33.9565 17.9821C33.9558 17.9816 33.9561 17.9818 33.9566 17.9822C33.9576 17.983 33.9616 17.9863 33.9671 17.991C33.9727 17.9957 33.9809 18.0028 33.9907 18.0117C34.0101 18.0294 34.0392 18.0574 34.0714 18.0952L32.5491 19.3923C32.5856 19.4352 32.6195 19.468 32.6438 19.4902C32.6672 19.5115 32.6871 19.5277 32.6933 19.5327C32.6951 19.5342 32.6967 19.5355 32.6973 19.536C32.6983 19.5368 32.6982 19.5367 32.698 19.5365C32.6976 19.5362 32.694 19.5333 32.6891 19.5292C32.6797 19.5213 32.6586 19.5032 32.6331 19.4777L34.0473 18.0635ZM12.3714 18.0664C11.9587 17.6535 11.2818 17.6786 10.9008 18.1214L12.417 19.4257C12.0388 19.8654 11.3668 19.8902 10.957 19.4804L12.3714 18.0664Z" fill="black" fill-opacity="0.87" mask="url(#path-2-outside-1_37_28)"/>
</svg>
