<svg width="41" height="41" viewBox="0 0 41 41" fill="none" xmlns="http://www.w3.org/2000/svg">
<path d="M3 35.293C3 35.956 3.26339 36.5919 3.73223 37.0607C4.20107 37.5296 4.83696 37.793 5.5 37.793H35.5C36.163 37.793 36.7989 37.5296 37.2678 37.0607C37.7366 36.5919 38 35.956 38 35.293V15.293H3V35.293ZM24.6162 24.9267C24.3886 24.691 24.2626 24.3752 24.2654 24.0475C24.2683 23.7197 24.3997 23.4062 24.6315 23.1744C24.8632 22.9427 25.1768 22.8112 25.5045 22.8084C25.8322 22.8055 26.148 22.9315 26.3838 23.1592L28.8838 25.6592C29.1181 25.8936 29.2497 26.2115 29.2497 26.543C29.2497 26.8744 29.1181 27.1923 28.8838 27.4267L26.3838 29.9267C26.148 30.1544 25.8322 30.2804 25.5045 30.2776C25.1768 30.2747 24.8632 30.1433 24.6315 29.9115C24.3997 29.6797 24.2683 29.3662 24.2654 29.0385C24.2626 28.7107 24.3886 28.395 24.6162 28.1592L26.2325 26.543L24.6162 24.9267ZM18.0375 31.2392L20.5375 21.2392C20.62 20.9197 20.8254 20.6458 21.1091 20.4772C21.3927 20.3085 21.7315 20.2589 22.0516 20.3391C22.3717 20.4193 22.6471 20.6228 22.8177 20.9052C22.9883 21.1876 23.0404 21.5261 22.9625 21.8467L20.4625 31.8467C20.3948 32.117 20.2387 32.357 20.019 32.5284C19.7993 32.6998 19.5287 32.793 19.25 32.793C19.1472 32.7934 19.0447 32.7808 18.945 32.7555C18.6237 32.6746 18.3476 32.4695 18.1774 32.1852C18.0072 31.9009 17.9569 31.5606 18.0375 31.2392ZM12.1163 25.6592L14.6163 23.1592C14.852 22.9315 15.1678 22.8055 15.4955 22.8084C15.8232 22.8112 16.1368 22.9427 16.3685 23.1744C16.6003 23.4062 16.7317 23.7197 16.7346 24.0475C16.7374 24.3752 16.6114 24.691 16.3837 24.9267L14.7675 26.543L16.3837 28.1592C16.5031 28.2745 16.5984 28.4125 16.6639 28.565C16.7294 28.7175 16.7639 28.8815 16.7653 29.0475C16.7668 29.2134 16.7351 29.378 16.6723 29.5317C16.6094 29.6853 16.5166 29.8248 16.3992 29.9422C16.2819 30.0596 16.1423 30.1524 15.9887 30.2152C15.8351 30.2781 15.6705 30.3097 15.5045 30.3083C15.3385 30.3068 15.1745 30.2724 15.022 30.2068C14.8695 30.1413 14.7316 30.0461 14.6163 29.9267L12.1163 27.4267C11.8819 27.1923 11.7503 26.8744 11.7503 26.543C11.7503 26.2115 11.8819 25.8936 12.1163 25.6592ZM35.5 2.79297H5.5C4.83696 2.79297 4.20107 3.05636 3.73223 3.5252C3.26339 3.99404 3 4.62993 3 5.29297V12.793H38V5.29297C38 4.62993 37.7366 3.99404 37.2678 3.5252C36.7989 3.05636 36.163 2.79297 35.5 2.79297ZM9.25 9.04297H8C7.66848 9.04297 7.35054 8.91127 7.11612 8.67685C6.8817 8.44243 6.75 8.12449 6.75 7.79297C6.75 7.46145 6.8817 7.14351 7.11612 6.90909C7.35054 6.67466 7.66848 6.54297 8 6.54297H9.25C9.58152 6.54297 9.89946 6.67466 10.1339 6.90909C10.3683 7.14351 10.5 7.46145 10.5 7.79297C10.5 8.12449 10.3683 8.44243 10.1339 8.67685C9.89946 8.91127 9.58152 9.04297 9.25 9.04297ZM15.5 9.04297H14.25C13.9185 9.04297 13.6005 8.91127 13.3661 8.67685C13.1317 8.44243 13 8.12449 13 7.79297C13 7.46145 13.1317 7.14351 13.3661 6.90909C13.6005 6.67466 13.9185 6.54297 14.25 6.54297H15.5C15.8315 6.54297 16.1495 6.67466 16.3839 6.90909C16.6183 7.14351 16.75 7.46145 16.75 7.79297C16.75 8.12449 16.6183 8.44243 16.3839 8.67685C16.1495 8.91127 15.8315 9.04297 15.5 9.04297Z" fill="#E7EFFF"/>
</svg>
