<svg width="40" height="41" viewBox="0 0 40 41" fill="none" xmlns="http://www.w3.org/2000/svg">
<g clip-path="url(#clip0_53_420)">
<path d="M39.2666 18.5096L21.7666 1.00964C21.2897 0.557132 20.6574 0.304871 20 0.304871C19.3426 0.304871 18.7102 0.557132 18.2333 1.00964L14.9 4.34297C14.8219 4.42044 14.7599 4.51261 14.7176 4.61416C14.6753 4.71571 14.6535 4.82463 14.6535 4.93464C14.6535 5.04465 14.6753 5.15357 14.7176 5.25512C14.7599 5.35667 14.8219 5.44883 14.9 5.5263L17.9 8.6263C18.0155 8.74168 18.1624 8.82056 18.3224 8.85316C18.4824 8.88575 18.6485 8.87062 18.8 8.80964C19.3081 8.6135 19.8566 8.54489 20.3975 8.60981C20.9383 8.67472 21.455 8.87118 21.9023 9.18201C22.3496 9.49283 22.7139 9.90854 22.9634 10.3928C23.2129 10.877 23.3399 11.415 23.3333 11.9596C23.329 12.3829 23.2442 12.8015 23.0833 13.193C23.0223 13.3444 23.0072 13.5105 23.0398 13.6705C23.0724 13.8305 23.1513 13.9774 23.2666 14.093L26.2 16.9596C26.3155 17.075 26.4624 17.1539 26.6224 17.1865C26.7824 17.2191 26.9485 17.2039 27.1 17.143C27.7604 16.88 28.4877 16.8351 29.1755 17.0148C29.8633 17.1945 30.4756 17.5894 30.923 18.1418C31.3705 18.6942 31.6296 19.3751 31.6626 20.0852C31.6956 20.7954 31.5007 21.4974 31.1064 22.0889C30.7121 22.6804 30.139 23.1303 29.4708 23.373C28.8026 23.6157 28.0744 23.6384 27.3924 23.4378C26.7104 23.2372 26.1104 22.8239 25.68 22.2581C25.2495 21.6923 25.0113 21.0038 25 20.293C25.0052 19.8876 25.0842 19.4866 25.2333 19.1096C25.2908 18.9603 25.304 18.7976 25.2715 18.641C25.239 18.4844 25.1621 18.3404 25.05 18.2263L22.25 15.4096C22.1335 15.2954 21.9861 15.2179 21.826 15.1867C21.6659 15.1555 21.5001 15.172 21.3493 15.2341C21.1984 15.2962 21.0691 15.4012 20.9774 15.5361C20.8857 15.671 20.8356 15.8299 20.8333 15.993V24.793C20.8327 24.9556 20.8798 25.1149 20.9686 25.2511C21.0575 25.3873 21.1842 25.4946 21.3333 25.5596C22.0352 25.866 22.6102 26.4046 22.9616 27.085C23.313 27.7654 23.4195 28.5461 23.263 29.2957C23.1065 30.0454 22.6967 30.7183 22.1025 31.2013C21.5082 31.6843 20.7658 31.948 20 31.948C19.2342 31.948 18.4917 31.6843 17.8975 31.2013C17.3032 30.7183 16.8934 30.0454 16.737 29.2957C16.5805 28.5461 16.6869 27.7654 17.0384 27.085C17.3898 26.4046 17.9648 25.866 18.6666 25.5596C18.8157 25.4946 18.9425 25.3873 19.0313 25.2511C19.1202 25.1149 19.1672 24.9556 19.1666 24.793V15.7596C19.1672 15.597 19.1202 15.4377 19.0313 15.3015C18.9425 15.1653 18.8157 15.058 18.6666 14.993C17.8783 14.6475 17.2541 14.0104 16.9248 13.2151C16.5955 12.4198 16.5866 11.528 16.9 10.7263C16.9513 10.5723 16.9566 10.4067 16.9152 10.2498C16.8737 10.0929 16.7873 9.95149 16.6666 9.84297L13.65 6.75964C13.5725 6.68153 13.4803 6.61953 13.3788 6.57723C13.2772 6.53492 13.1683 6.51314 13.0583 6.51314C12.9483 6.51314 12.8394 6.53492 12.7378 6.57723C12.6363 6.61953 12.5441 6.68153 12.4666 6.75964L0.799981 18.4263C0.331813 18.8951 0.0688477 19.5305 0.0688477 20.193C0.0688477 20.8555 0.331813 21.4909 0.799981 21.9596L18.3 39.4763C18.7687 39.9445 19.4041 40.2074 20.0666 40.2074C20.7291 40.2074 21.3646 39.9445 21.8333 39.4763L39.3333 21.9596C39.8015 21.4909 40.0644 20.8555 40.0644 20.193C40.0644 19.5305 39.8015 18.8951 39.3333 18.4263L39.2666 18.5096Z" fill="#E7EFFF"/>
</g>
<defs>
<clipPath id="clip0_53_420">
<rect width="40" height="40" fill="white" transform="translate(0 0.292969)"/>
</clipPath>
</defs>
</svg>
