<svg width="104" height="153" viewBox="0 0 104 153" fill="none" xmlns="http://www.w3.org/2000/svg">
<path d="M87.6358 2.70746L87.2196 3.04009L87.2218 3.04234L87.2296 3.05016L87.2614 3.08214C87.2896 3.11064 87.3318 3.15339 87.3871 3.20977C87.4975 3.32253 87.6601 3.48978 87.8673 3.70648C88.2818 4.13993 88.8745 4.77105 89.5856 5.55965C91.0084 7.13742 92.9025 9.34275 94.7897 11.8544C96.6781 14.3676 98.5524 17.1781 99.9416 19.9667C101.334 22.7629 102.219 25.4967 102.175 27.8684C102.087 32.5919 98.3189 36.121 94.3207 39.8285L94.242 39.9015C90.3453 43.5146 86.2503 47.3117 86.1549 52.4635C86.0595 57.6153 90.0112 61.5614 93.7714 65.3163L93.8473 65.3921C97.7056 69.2451 101.341 72.9113 101.253 77.6348C101.166 82.3583 97.3975 85.8874 93.3992 89.595L93.3205 89.6679C89.4239 93.281 85.3288 97.0782 85.2335 102.23C85.1381 107.382 89.0898 111.328 92.85 115.083L92.9259 115.159C96.7842 119.012 100.419 122.678 100.332 127.401C100.288 129.773 99.3031 132.472 97.8077 135.215C96.3163 137.95 94.3393 140.689 92.3591 143.131C90.3802 145.571 88.4058 147.705 86.9256 149.229C86.1857 149.99 85.57 150.599 85.1398 151.017C84.9248 151.226 84.7561 151.387 84.6415 151.496C84.5842 151.55 84.5405 151.591 84.5112 151.618L84.4783 151.649L84.4683 151.659L84.8715 152.007L85.2376 152.322C85.2753 152.354 85.2754 152.354 85.2754 152.354L85.2785 152.351L85.2876 152.343L85.3226 152.31C85.3533 152.281 85.3985 152.239 85.4572 152.183C85.5747 152.072 85.7464 151.908 85.9647 151.696C86.4013 151.272 87.0243 150.656 87.772 149.886C89.2669 148.347 91.263 146.19 93.2661 143.72C95.2681 141.251 97.2845 138.461 98.8141 135.656C100.34 132.858 101.403 130.005 101.451 127.422C101.546 122.27 97.5945 118.324 93.8343 114.569L93.7584 114.493C89.9002 110.64 86.2649 106.974 86.3523 102.251C86.4398 97.5271 90.2083 93.9981 94.2065 90.2905L94.2852 90.2175C98.1818 86.6044 102.277 82.8073 102.372 77.6555C102.468 72.5037 98.516 68.5576 94.7557 64.8027L94.6798 64.7269C90.8216 60.8739 87.1863 57.2077 87.2738 52.4842C87.3612 47.7607 91.1297 44.2316 95.128 40.5241L95.2066 40.4511C99.1033 36.838 103.198 33.0409 103.294 27.8891C103.342 25.3058 102.384 22.4157 100.964 19.5632C99.5389 16.7032 97.6271 13.8402 95.7179 11.2993C93.8076 8.75693 91.8927 6.52755 90.4558 4.93412C89.7371 4.13713 89.1374 3.49854 88.7168 3.05867C88.5065 2.83872 88.3409 2.66841 88.2276 2.55277C88.171 2.49496 88.1274 2.4508 88.0978 2.42095L88.0641 2.38696L88.053 2.37582C88.053 2.37582 88.052 2.37488 87.6358 2.70746Z" fill="#C3A875"/>
<path d="M59.6286 2.1889L59.2124 2.52153L59.2147 2.52378L59.2225 2.5316L59.2542 2.56358C59.2825 2.59208 59.3247 2.63483 59.3799 2.69121C59.4904 2.80397 59.653 2.97122 59.8602 3.18793C60.2746 3.62137 60.8674 4.2525 61.5785 5.0411C63.0012 6.61886 64.8953 8.82419 66.7826 11.3359C68.671 13.8491 70.5453 16.6595 71.9344 19.4482C73.3273 22.2443 74.2116 24.9782 74.1677 27.3498C74.0802 32.0733 70.3117 35.6024 66.3135 39.31L66.2348 39.3829C62.3382 42.9961 58.2431 46.7932 58.1477 51.945C58.0524 57.0967 62.004 61.0428 65.7643 64.7977L65.8402 64.8735C69.6984 68.7266 73.3337 72.3927 73.2463 77.1162C73.1588 81.8397 69.3903 85.3688 65.3921 89.0764L65.3134 89.1494C61.4167 92.7625 57.3217 96.5596 57.2263 101.711C57.1309 106.863 61.0826 110.809 64.8428 114.564L64.9188 114.64C68.777 118.493 72.4123 122.159 72.3248 126.883C72.2809 129.254 71.296 131.954 69.8006 134.696C68.3092 137.432 66.3321 140.171 64.352 142.612C62.373 145.052 60.3986 147.186 58.9184 148.71C58.1786 149.472 57.5629 150.081 57.1327 150.498C56.9176 150.707 56.7489 150.868 56.6344 150.977C56.5771 151.031 56.5333 151.072 56.504 151.1L56.4711 151.131L56.4611 151.14L56.8643 151.488C57.268 151.836 57.2683 151.836 57.2683 151.836L57.2714 151.833L57.2805 151.824L57.3154 151.792C57.3461 151.763 57.3913 151.72 57.45 151.665C57.5675 151.553 57.7393 151.389 57.9576 151.177C58.3942 150.753 59.0171 150.137 59.7648 149.367C61.2597 147.828 63.2559 145.671 65.259 143.201C67.2609 140.733 69.2774 137.943 70.8069 135.137C72.3325 132.339 73.3959 129.487 73.4437 126.903C73.5391 121.752 69.5874 117.805 65.8272 114.051L65.7513 113.975C61.893 110.122 58.2577 106.456 58.3452 101.732C58.4326 97.0086 62.2011 93.4795 66.1994 89.7719L66.278 89.699C70.1747 86.0859 74.2698 82.2887 74.3651 77.137C74.4605 71.9852 70.5088 68.0391 66.7486 64.2842L66.6727 64.2084C62.8144 60.3553 59.1792 56.6892 59.2666 51.9657C59.3541 47.2422 63.1226 43.7131 67.1208 40.0055L67.1995 39.9326C71.0961 36.3194 75.1912 32.5223 75.2866 27.3705C75.3344 24.7873 74.3773 21.8972 72.9564 19.0447C71.5318 16.1847 69.62 13.3216 67.7108 10.7808C65.8005 8.23837 63.8855 6.00899 62.4486 4.41556C61.7299 3.61857 61.1302 2.97998 60.7096 2.54011C60.4993 2.32016 60.3338 2.14985 60.2205 2.03422C60.1638 1.9764 60.1203 1.93225 60.0907 1.90239L60.0569 1.8684L60.0481 1.85959L60.0458 1.85726C60.0458 1.85726 60.0449 1.85633 59.6286 2.1889Z" fill="#C3A875"/>
<path d="M31.2055 2.00298L31.6217 1.67035C32.0379 1.33777 32.0382 1.33807 32.0382 1.33807L32.0412 1.34104L32.05 1.34985L32.0837 1.38383C32.1133 1.41369 32.1569 1.45784 32.2135 1.51566C32.3268 1.63129 32.4924 1.80161 32.7027 2.02156C33.1233 2.46143 33.723 3.10002 34.4417 3.89701C35.8786 5.49044 37.7935 7.71981 39.7038 10.2622C41.613 12.8031 43.5248 15.6661 44.9494 18.5261C46.3704 21.3786 47.3275 24.2687 47.2796 26.852C47.1842 32.0038 43.0892 35.8009 39.1925 39.414L39.1139 39.487C35.1156 43.1945 31.3471 46.7236 31.2597 51.4471C31.1722 56.1706 34.8075 59.8368 38.6657 63.6898L38.7416 63.7656C42.5019 67.5205 46.4536 71.4666 46.3582 76.6184C46.2628 81.7702 42.1677 85.5673 38.2711 89.1804L38.1924 89.2534C34.1942 92.9609 30.4257 96.49 30.3382 101.214C30.2508 105.937 33.886 109.603 37.7443 113.456L37.8202 113.532C41.5804 117.287 45.5321 121.233 45.4368 126.385C45.3889 128.968 44.3255 131.821 42.8 134.619C41.2704 137.424 39.254 140.214 37.252 142.683C35.2489 145.153 33.2528 147.31 31.7579 148.849C31.0102 149.619 30.3872 150.235 29.9506 150.659C29.7323 150.871 29.5606 151.035 29.4431 151.146C29.3843 151.202 29.3392 151.244 29.3085 151.273L29.2735 151.306L29.262 151.316C29.262 151.316 29.261 151.317 28.8574 150.97L28.4538 150.622L28.4561 150.62L28.4642 150.612L28.4971 150.581L28.5185 150.561L28.5608 150.521C28.5805 150.503 28.6027 150.482 28.6274 150.458C28.742 150.35 28.9106 150.189 29.1257 149.98C29.5559 149.562 30.1716 148.953 30.9115 148.192C32.3917 146.668 34.3661 144.534 36.345 142.094C38.3251 139.652 40.3022 136.913 41.7936 134.178C43.289 131.435 44.274 128.736 44.3179 126.364C44.4053 121.641 40.7701 117.974 36.9118 114.121L36.8359 114.046C33.0757 110.291 29.124 106.345 29.2193 101.193C29.3147 96.041 33.4098 92.2439 37.3064 88.6308L37.3851 88.5578C41.3834 84.8503 45.1519 81.3212 45.2393 76.5977C45.3268 71.8742 41.6915 68.208 37.8332 64.355L37.7573 64.2792C33.9971 60.5243 30.0454 56.5782 30.1408 51.4264C30.2362 46.2746 34.3312 42.4775 38.2279 38.8644L38.3065 38.7914C42.3048 35.0839 46.0733 31.5548 46.1607 26.8313C46.2047 24.4596 45.3203 21.7258 43.9274 18.9296C42.5383 16.1409 40.664 13.3305 38.7756 10.8173C36.8884 8.30563 34.9943 6.1003 33.5715 4.52254C32.8604 3.73394 32.2676 3.10282 31.8532 2.66937C31.646 2.45266 31.4834 2.28542 31.3729 2.17266C31.3177 2.11628 31.2755 2.07352 31.2473 2.04503L31.2155 2.01305L31.2055 2.00298Z" fill="#C3A875"/>
<path d="M3.61539 1.15181L3.19919 1.48444L3.20924 1.49451L3.241 1.52648C3.26923 1.55498 3.31144 1.59774 3.36668 1.65412C3.47715 1.76688 3.63975 1.93412 3.84695 2.15083C4.26139 2.58427 4.85413 3.2154 5.56525 4.004C6.98801 5.58176 8.88211 7.78709 10.7694 10.2988C12.6577 12.812 14.5321 15.6224 15.9212 18.4111C17.314 21.2072 18.1984 23.9411 18.1545 26.3127C18.067 31.0362 14.2985 34.5653 10.3003 38.2729L10.2216 38.3458C6.32497 41.959 2.22991 45.7561 2.13452 50.9079C2.03914 56.0596 5.99083 60.0057 9.75105 63.7606L9.82696 63.8364C13.6852 67.6895 17.3205 71.3556 17.233 76.0791C17.1456 80.8026 13.3771 84.3317 9.37884 88.0393L9.30016 88.1123C5.40352 91.7254 1.30847 95.5225 1.21309 100.674C1.1177 105.826 5.06938 109.772 8.8296 113.527L8.90553 113.603C12.7638 117.456 16.3991 121.122 16.3116 125.846C16.2677 128.217 15.2827 130.916 13.7873 133.659C12.2959 136.394 10.3189 139.134 8.33875 141.575C6.35982 144.015 4.38538 146.149 2.90519 147.673C2.16536 148.435 1.54967 149.043 1.11946 149.461C0.904386 149.67 0.73571 149.831 0.621139 149.94C0.563849 149.994 0.520088 150.035 0.49082 150.063L0.457896 150.094L0.449806 150.101L0.447903 150.103L0.851088 150.451C1.25474 150.799 1.25505 150.799 1.25505 150.799L1.25813 150.796L1.26722 150.787L1.30222 150.754C1.33289 150.726 1.37808 150.683 1.43683 150.628C1.55432 150.516 1.72607 150.352 1.94436 150.14C2.38095 149.716 3.0039 149.1 3.75161 148.33C5.24649 146.791 7.24265 144.634 9.24577 142.164C11.2477 139.696 13.2642 136.905 14.7937 134.1C16.3192 131.302 17.3827 128.45 17.4305 125.866C17.5259 120.715 13.5742 116.768 9.81393 113.013L9.73804 112.938C5.87978 109.085 2.24451 105.418 2.33197 100.695C2.41942 95.9715 6.18791 92.4424 10.1862 88.7348L10.2648 88.6619C14.1614 85.0488 18.2565 81.2516 18.3519 76.0999C18.4473 70.9481 14.4956 67.002 10.7354 63.2471L10.6595 63.1713C6.80121 59.3182 3.16595 55.6521 3.2534 50.9286C3.34086 46.2051 7.10935 42.676 11.1076 38.9684L11.1863 38.8955C15.0829 35.2823 19.178 31.4852 19.2734 26.3335C19.3212 23.7502 18.3641 20.8601 16.9432 18.0076C15.5185 15.1476 13.6067 12.2845 11.6976 9.74367C9.78725 7.20127 7.8723 4.97189 6.43542 3.37847C5.71672 2.58147 5.117 1.94289 4.69641 1.50301C4.48611 1.28306 4.32055 1.11275 4.20726 0.99712C4.15061 0.939302 4.10703 0.895149 4.07745 0.865292L4.04369 0.831305L4.03491 0.822499L4.03258 0.820168C4.03258 0.820168 4.03164 0.81923 3.61539 1.15181Z" fill="#C3A875"/>
</svg>
