<svg width="40" height="41" viewBox="0 0 40 41" fill="none" xmlns="http://www.w3.org/2000/svg">
<path d="M33.452 25.575C31.766 28.301 26.382 30.297 20 30.297C13.618 30.297 8.234 28.301 6.546 25.575C6.19 24.995 6 25.305 6 25.589V29.593C6 33.473 12.268 37.493 20 37.493C27.732 37.493 34 33.473 34 29.595V25.591C34 25.305 33.808 24.995 33.452 25.575ZM33.474 15.343C31.814 17.753 26.41 19.523 20 19.523C13.59 19.523 8.184 17.753 6.524 15.343C6.182 14.847 6 15.117 6 15.339V20.053C6 23.577 12.268 26.431 20 26.431C27.732 26.431 34 23.575 34 20.053V15.339C34 15.117 33.816 14.847 33.474 15.343ZM20 2.29297C12.268 2.29297 6 4.65297 6 7.55897V10.079C6 13.161 12.268 15.661 20 15.661C27.732 15.661 34 13.161 34 10.079V7.55897C34 4.65297 27.732 2.29297 20 2.29297Z" fill="#E7EFFF"/>
</svg>
