<svg width="25" height="24" viewBox="0 0 25 24" fill="none" xmlns="http://www.w3.org/2000/svg">
<path d="M7.60645 5.00002C7.60618 5.53046 7.39521 6.03906 7.01995 6.41394C6.64469 6.78883 6.13588 6.99929 5.60545 6.99902C5.07501 6.99876 4.56641 6.78779 4.19152 6.41253C3.81664 6.03727 3.60618 5.52846 3.60645 4.99802C3.60671 4.46759 3.81768 3.95899 4.19294 3.5841C4.5682 3.20922 5.07701 2.99876 5.60745 2.99902C6.13788 2.99929 6.64648 3.21026 7.02137 3.58552C7.39625 3.96078 7.60671 4.46959 7.60645 5.00002ZM7.66645 8.48002H3.66645V21H7.66645V8.48002ZM13.9864 8.48002H10.0064V21H13.9464V14.43C13.9464 10.77 18.7164 10.43 18.7164 14.43V21H22.6664V13.07C22.6664 6.90002 15.6064 7.13002 13.9464 10.16L13.9864 8.48002Z" fill="#E7EFFF"/>
</svg>
