<?xml version="1.0" standalone="no"?>
<!DOCTYPE svg PUBLIC "-//W3C//DTD SVG 20010904//EN"
 "http://www.w3.org/TR/2001/REC-SVG-20010904/DTD/svg10.dtd">
<svg version="1.0" xmlns="http://www.w3.org/2000/svg"
 width="584.000000pt" height="736.000000pt" viewBox="0 0 584.000000 736.000000"
 preserveAspectRatio="xMidYMid meet">

<g transform="translate(0.000000,736.000000) scale(0.100000,-0.100000)"
fill="#000000" stroke="none">
<path d="M2531 7054 c-56 -17 -191 -84 -191 -94 0 -4 -10 -10 -22 -14 -31 -8
-150 -122 -177 -169 -18 -33 -23 -69 -37 -265 l-17 -226 -61 -72 c-33 -39 -68
-81 -76 -94 -8 -12 -23 -33 -32 -45 -27 -35 -60 -191 -53 -250 20 -162 65
-254 187 -383 44 -47 138 -121 178 -140 14 -6 32 -16 40 -21 26 -15 114 -50
135 -53 14 -2 24 -16 32 -43 66 -224 71 -250 50 -273 -9 -9 -25 -39 -37 -67
-18 -42 -21 -60 -14 -110 12 -101 10 -171 -8 -189 -19 -18 -32 -7 -43 37 -5
19 -13 27 -24 25 -9 -2 -23 8 -34 25 -9 15 -24 31 -34 34 -21 8 -41 -21 -35
-52 3 -19 -4 -33 -30 -59 l-34 -34 35 5 c25 3 32 2 22 -5 -10 -7 -10 -11 -1
-17 7 -4 9 -17 5 -32 -4 -18 -2 -23 6 -17 8 5 11 1 7 -13 -4 -13 1 -25 13 -34
22 -16 25 -29 5 -29 -9 0 -12 -7 -9 -18 3 -12 -8 -32 -31 -56 -36 -36 -45 -56
-26 -56 6 0 10 -7 10 -15 0 -8 4 -15 9 -15 5 0 8 6 7 13 0 6 4 12 9 12 6 0 9
-11 7 -25 l-2 -25 24 29 c21 25 27 28 41 16 14 -12 14 -15 0 -30 -22 -24 -19
-33 10 -26 18 5 25 2 25 -8 0 -8 -10 -16 -22 -18 -13 -2 -22 -9 -20 -16 1 -7
-7 -22 -18 -34 -25 -28 -26 -64 -1 -78 28 -14 28 -14 22 33 -7 51 13 76 67 84
21 2 32 1 26 -4 -15 -11 -25 -43 -14 -43 5 0 6 -7 3 -17 -5 -11 -3 -14 6 -8
10 6 11 3 2 -13 -6 -11 -16 -23 -23 -25 -9 -4 -8 -6 2 -6 18 -1 22 -41 4 -41
-11 0 -26 -60 -18 -69 2 -2 18 13 37 32 36 39 77 47 77 14 0 -10 -4 -16 -9
-12 -5 3 -13 0 -17 -6 -4 -8 -3 -9 4 -5 7 4 12 2 12 -3 0 -6 -5 -11 -12 -11
-6 0 -8 -3 -5 -6 4 -4 14 -1 23 6 13 12 17 11 25 -1 6 -10 3 -19 -12 -31 -15
-13 -17 -18 -6 -18 8 0 20 -7 27 -15 11 -13 8 -15 -13 -15 -33 0 -57 -9 -57
-22 0 -6 6 -8 14 -5 8 3 17 3 19 -1 2 -4 2 -1 1 6 -2 7 7 12 22 12 29 0 30
-27 1 -49 -12 -9 -17 -22 -14 -37 4 -25 -8 -33 -16 -11 -4 7 -6 6 -6 -4 -1
-18 25 -33 40 -23 5 3 9 0 9 -5 0 -18 28 -12 33 7 4 15 5 15 6 -2 1 -16 8 -18
56 -14 48 4 55 2 55 -14 0 -18 -25 -26 -32 -9 -1 5 -8 3 -15 -4 -10 -10 -4
-14 27 -17 21 -2 36 0 34 4 -3 5 2 11 10 14 9 3 14 10 11 14 -3 4 8 10 25 12
16 2 27 1 24 -4 -7 -10 -5 -10 55 3 l50 10 -5 37 c-4 31 -3 33 5 15 14 -31 35
-30 29 2 -3 14 -1 25 3 25 5 0 9 -9 9 -20 0 -27 16 -25 32 3 7 12 19 22 26 22
6 0 12 4 11 8 -1 12 32 35 45 32 6 -1 19 -5 29 -10 22 -9 57 3 39 14 -9 6 -7
14 11 33 13 14 30 27 38 30 11 4 12 8 2 19 -10 9 -13 10 -13 1 0 -7 -4 -12
-10 -12 -6 0 -5 10 2 25 12 28 28 33 28 10 0 -8 5 -15 10 -15 6 0 10 4 10 10
0 5 7 7 15 4 21 -9 19 9 -4 23 -24 15 -61 6 -83 -21 -11 -13 -16 -15 -13 -6 4
12 -1 15 -22 14 -16 -1 -30 -3 -33 -4 -3 -1 -9 -2 -14 -1 -5 1 -6 -7 -3 -19 3
-12 0 -20 -8 -20 -7 0 -15 14 -18 30 -7 32 -27 41 -27 13 -1 -16 -2 -16 -15 1
-20 27 -20 53 -1 37 12 -10 13 -8 9 9 -3 11 -8 18 -11 15 -3 -3 -13 2 -22 10
-9 8 -25 16 -37 18 -24 3 -51 28 -46 42 4 14 -49 16 -64 3 -10 -8 -13 -5 -13
11 0 17 -5 22 -22 21 -36 -3 -48 -1 -48 10 0 6 24 9 55 9 30 -1 55 -6 55 -10
0 -5 -7 -9 -17 -9 -9 0 -14 -2 -12 -4 2 -3 29 -1 59 3 47 7 52 9 32 17 -22 9
-22 10 -2 27 11 9 20 12 20 7 0 -6 4 -10 10 -10 5 0 7 6 4 14 -3 7 2 16 11 20
9 3 13 2 10 -3 -3 -5 -1 -12 4 -15 5 -3 11 4 14 16 4 12 9 19 13 15 4 -3 14
-2 24 3 18 9 65 20 110 25 49 5 90 18 90 28 0 6 6 3 13 -8 13 -17 15 -16 25
13 10 30 1 45 -13 22 -4 -6 -16 -3 -31 7 -22 14 -27 14 -35 2 -7 -11 -9 -11
-9 -1 0 8 -5 10 -12 6 -23 -14 -102 -3 -124 17 -11 11 -23 17 -25 14 -14 -14
-332 3 -384 21 -22 8 -47 14 -56 14 -9 0 -27 9 -40 20 -20 16 -21 19 -7 20 9
0 19 -4 22 -9 12 -19 267 -30 391 -17 120 14 210 30 234 42 14 8 32 14 40 14
8 0 34 11 57 25 24 14 47 24 51 23 9 -2 53 16 106 43 21 11 42 17 47 14 6 -3
10 -1 10 4 0 6 -9 11 -19 11 -11 0 -22 4 -25 9 -6 9 -55 3 -72 -10 -10 -8 -68
-20 -109 -22 -11 0 -23 -6 -27 -11 -4 -6 -8 -1 -8 12 0 12 4 22 10 22 18 0 80
49 70 55 -5 3 -10 2 -10 -3 0 -5 -18 -15 -40 -22 -22 -7 -45 -18 -50 -25 -5
-6 -27 -10 -50 -9 -35 2 -40 -1 -41 -20 -1 -16 -2 -17 -6 -3 -2 9 -8 17 -12
17 -9 0 -7 27 3 52 4 9 5 22 1 28 -3 6 2 10 14 10 18 0 74 31 108 60 7 5 14
10 17 10 12 0 203 138 240 174 47 45 96 117 96 141 0 12 -12 15 -55 15 -47 0
-57 3 -71 25 -23 35 -30 31 -26 -13 5 -53 -23 -130 -61 -170 -80 -84 -142 -74
-139 21 1 25 -2 29 -23 24 -14 -2 -22 0 -19 4 3 5 12 9 20 9 8 0 14 5 14 11 0
7 -10 9 -26 5 -22 -6 -24 -5 -15 13 6 11 11 33 11 50 0 16 5 33 10 36 17 11
11 23 -17 34 -79 33 -103 56 -103 102 0 36 2 38 38 46 20 4 41 7 46 8 11 0 27
51 18 59 -3 3 -22 6 -43 6 -51 0 -116 27 -122 50 -3 11 3 26 14 36 13 12 19
13 19 4 0 -9 9 -10 33 -5 17 3 55 9 84 12 42 4 55 1 71 -15 22 -22 62 -20 62
4 0 18 -30 33 -66 33 -16 0 -38 2 -49 5 -11 2 -28 5 -38 5 -10 1 -22 11 -27
24 -6 15 -9 17 -9 6 -1 -9 -8 -19 -16 -23 -11 -4 -15 2 -15 23 0 26 4 30 48
39 40 8 43 11 24 17 -17 6 -22 14 -20 33 2 20 -4 29 -24 40 -26 12 -28 17 -28
74 0 80 -19 238 -32 262 -6 12 -6 27 3 48 9 23 17 28 38 26 19 -2 26 -9 27
-26 1 -13 6 -28 13 -35 6 -6 11 -19 11 -30 0 -11 4 -15 11 -11 8 4 9 0 4 -15
-6 -18 0 -24 40 -42 36 -16 45 -24 40 -38 -4 -13 1 -20 17 -25 36 -9 37 -8 21
25 -16 32 -11 45 22 51 11 2 19 11 19 20 -1 12 11 17 44 21 80 9 98 63 30 92
-64 28 -79 43 -65 65 20 34 107 0 107 -42 0 -23 18 -32 22 -11 2 10 7 -13 11
-51 5 -38 11 -74 15 -80 8 -13 11 -40 14 -131 1 -57 2 -62 7 -30 7 50 17 37
26 -37 8 -61 -13 -136 -46 -169 -14 -14 -34 -117 -24 -127 12 -12 171 127 228
198 108 137 158 254 183 434 25 179 -4 298 -101 412 -5 7 -23 28 -40 48 -42
52 -116 107 -220 161 -80 43 -135 86 -135 108 0 4 -7 7 -15 7 -9 0 -12 6 -9
15 4 9 -4 26 -19 41 -14 14 -33 41 -42 60 -18 39 -74 100 -116 126 -14 9 -45
22 -70 29 -24 7 -49 16 -55 21 -14 10 -231 28 -329 27 -38 -1 -90 -7 -114 -15z
m608 -673 c8 -6 24 -6 38 0 14 5 23 5 23 -1 0 -6 6 -10 13 -10 6 0 25 -14 41
-30 16 -17 33 -30 37 -30 20 0 53 -65 51 -100 -2 -25 2 -39 11 -43 8 -3 17
-15 20 -26 4 -16 0 -21 -15 -21 -11 0 -22 -8 -25 -20 -6 -24 -15 -25 -56 -3
-22 11 -61 17 -123 18 -50 1 -96 5 -102 9 -6 4 -21 -3 -32 -14 -17 -17 -24
-19 -36 -9 -22 18 -14 64 11 63 17 0 20 5 17 28 -3 20 -10 28 -26 29 -20 0
-20 1 -1 9 12 5 14 9 6 9 -11 1 -10 4 4 15 11 8 16 19 12 30 -5 11 -1 16 14
16 11 0 18 4 14 9 -3 5 0 13 6 17 8 4 7 9 -2 15 -10 6 -7 9 11 9 14 0 33 9 43
20 19 22 26 24 46 11z m61 -441 c0 -5 -4 -10 -10 -10 -5 0 -10 5 -10 10 0 6 5
10 10 10 6 0 10 -4 10 -10z m-150 -940 c0 -16 -43 -50 -62 -50 -10 0 -21 7
-24 15 -4 8 -12 15 -19 15 -7 0 -15 7 -19 15 -4 12 6 15 59 15 36 0 65 -4 65
-10z m-481 -367 c78 -53 222 -55 414 -8 17 5 27 3 27 -4 0 -6 -4 -11 -10 -11
-5 0 -33 -11 -62 -24 -140 -62 -254 -82 -325 -55 -63 23 -123 112 -123 181 0
31 0 31 23 -13 13 -24 38 -54 56 -66z m-192 -465 c-3 -8 -6 -5 -6 6 -1 11 2
17 5 13 3 -3 4 -12 1 -19z m59 -57 c-4 -5 0 -11 6 -14 7 -2 10 -8 6 -12 -10
-10 -40 14 -32 26 3 5 10 9 15 9 6 0 8 -4 5 -9z m54 -17 c0 -8 -5 -12 -10 -9
-6 4 -8 11 -5 16 9 14 15 11 15 -7z m350 -85 c0 -6 -4 -7 -10 -4 -5 3 -10 11
-10 16 0 6 5 7 10 4 6 -3 10 -11 10 -16z m40 -23 c0 -3 -4 -8 -10 -11 -5 -3
-10 -1 -10 4 0 6 5 11 10 11 6 0 10 -2 10 -4z m-270 -10 c0 -3 -4 -8 -10 -11
-5 -3 -10 -1 -10 4 0 6 5 11 10 11 6 0 10 -2 10 -4z m27 -22 c-3 -3 -12 -4
-19 -1 -8 3 -5 6 6 6 11 1 17 -2 13 -5z m226 -14 c-3 -12 -8 -19 -11 -16 -5 6
5 36 12 36 2 0 2 -9 -1 -20z m-253 -85 c0 -8 -4 -15 -10 -15 -5 0 -7 7 -4 15
4 8 8 15 10 15 2 0 4 -7 4 -15z m-30 -39 c0 -3 -4 -8 -10 -11 -5 -3 -10 -1
-10 4 0 6 5 11 10 11 6 0 10 -2 10 -4z m-43 -58 c-3 -8 -6 -5 -6 6 -1 11 2 17
5 13 3 -3 4 -12 1 -19z m100 -15 c-3 -10 -5 -4 -5 12 0 17 2 24 5 18 2 -7 2
-21 0 -30z m180 5 c-3 -8 -6 -5 -6 6 -1 11 2 17 5 13 3 -3 4 -12 1 -19z"/>
<path d="M3017 6243 c-6 -10 19 -34 27 -26 3 4 6 -1 6 -10 0 -9 -7 -17 -16
-17 -14 0 -14 -3 -4 -15 11 -14 15 -14 32 2 17 15 21 15 29 3 8 -13 11 -13 23
2 10 13 15 15 24 6 9 -9 12 -9 12 3 0 8 -14 20 -31 28 -27 12 -33 12 -41 0 -8
-11 -9 -10 -4 4 3 10 0 17 -8 17 -8 0 -21 3 -29 6 -8 3 -17 2 -20 -3z"/>
<path d="M3085 5720 c-9 -15 4 -30 20 -23 8 3 15 9 15 13 0 12 -29 20 -35 10z"/>
<path d="M3078 5642 c-41 -24 -36 -42 12 -42 43 0 70 26 48 48 -16 16 -28 15
-60 -6z"/>
<path d="M3423 5625 c-9 -24 1 -27 15 -5 8 13 8 20 2 20 -6 0 -13 -7 -17 -15z"/>
<path d="M3632 4571 c-11 -7 -10 -16 8 -51 23 -44 37 -50 21 -8 -5 15 -6 30 0
39 18 28 1 39 -29 20z"/>
<path d="M3576 4542 c-7 -12 3 -42 14 -42 18 0 22 22 7 37 -9 9 -17 11 -21 5z"/>
<path d="M3680 4425 c0 -8 2 -15 4 -15 2 0 6 7 10 15 3 8 1 15 -4 15 -6 0 -10
-7 -10 -15z"/>
<path d="M3645 4397 c-4 -10 -5 -21 -1 -24 10 -10 18 4 13 24 -4 17 -4 17 -12
0z"/>
<path d="M2007 4296 c-26 -25 -47 -49 -47 -55 0 -6 -7 -11 -15 -11 -9 0 -15
-9 -14 -22 1 -14 3 -17 6 -8 2 8 27 32 54 53 27 20 49 44 49 52 0 8 8 19 18
24 9 6 12 11 7 11 -6 0 -31 -20 -58 -44z"/>
<path d="M1974 4299 c-19 -22 -19 -22 4 -10 12 6 22 16 22 21 0 15 -5 12 -26
-11z"/>
<path d="M3270 4310 c-1 -8 -2 -21 -1 -27 3 -18 -16 -16 -27 3 -7 13 -11 12
-26 -11 -17 -26 -17 -27 1 -22 10 3 33 8 51 12 28 6 46 25 23 25 -5 0 -12 8
-14 18 -4 13 -5 13 -7 2z"/>
<path d="M3340 4285 c0 -8 2 -15 4 -15 2 0 6 7 10 15 3 8 1 15 -4 15 -6 0 -10
-7 -10 -15z"/>
<path d="M3945 4265 c-22 -19 -42 -35 -46 -35 -3 0 -4 -12 -1 -27 5 -25 4 -27
-11 -14 -14 11 -17 11 -17 0 0 -8 -11 -15 -25 -15 -14 -1 -25 2 -25 6 0 4 -7
11 -16 14 -14 6 -16 1 -10 -36 4 -23 11 -47 15 -53 5 -5 16 -32 24 -60 9 -27
22 -66 30 -85 8 -19 20 -50 27 -68 7 -18 13 -32 15 -30 4 5 -12 102 -20 122
-6 15 -5 18 6 14 10 -4 14 5 16 34 1 22 9 48 19 59 9 10 14 27 11 38 -3 11 2
26 9 32 8 7 13 18 10 26 -4 8 2 13 17 13 14 0 18 3 10 8 -8 5 -9 19 -3 47 5
22 8 41 6 42 -2 2 -20 -12 -41 -32z m-76 -149 c-2 -20 -2 -20 -6 2 -5 26 -30
30 -36 5 -4 -14 -5 -13 -6 4 0 12 5 23 12 26 18 7 37 -13 36 -37z"/>
<path d="M3622 4223 c9 -2 19 -15 22 -28 6 -25 43 -32 43 -8 0 7 -2 11 -4 9
-3 -2 -13 4 -24 15 -10 10 -27 18 -36 18 -16 -1 -16 -2 -1 -6z"/>
<path d="M3730 4195 c0 -5 18 -51 33 -82 10 -23 28 -23 22 0 -7 32 -30 77 -42
81 -7 3 -13 3 -13 1z"/>
<path d="M1651 4151 c-13 -23 -25 -77 -41 -186 -12 -77 -24 -119 -44 -147 -26
-37 -18 -44 15 -12 l32 29 -19 -30 c-10 -16 -28 -40 -41 -51 -28 -28 -19 -37
19 -18 17 9 31 14 33 12 2 -2 -16 -24 -39 -49 -84 -90 -99 -115 -90 -151 9
-39 6 -68 -8 -85 -6 -8 -7 -13 -1 -13 13 0 12 -33 -1 -42 -8 -6 -8 -8 0 -8 7
0 14 -29 18 -68 4 -37 13 -80 20 -94 12 -22 12 -27 1 -32 -12 -4 -11 -11 2
-37 9 -18 15 -46 14 -63 -2 -30 -2 -171 1 -218 0 -13 0 -39 -1 -58 -3 -64 0
-72 27 -67 22 4 24 2 18 -24 -3 -15 -1 -31 5 -35 6 -4 4 -15 -6 -30 -18 -28
-13 -44 16 -44 26 0 25 -30 -2 -37 -16 -4 -20 -12 -16 -30 2 -13 -2 -30 -9
-38 -8 -8 -10 -16 -5 -20 6 -3 4 -22 -5 -48 -12 -35 -13 -46 -2 -66 10 -18 10
-25 1 -28 -13 -5 -2 -55 13 -60 6 -2 21 18 35 44 13 27 27 50 32 51 4 2 7 10
7 19 0 8 7 21 15 29 8 8 19 34 25 57 6 23 15 58 21 77 6 19 12 78 14 130 2 52
4 95 5 95 1 0 4 17 6 38 1 21 8 45 15 53 12 15 15 128 5 222 -3 28 -2 52 2 52
8 0 11 31 13 168 1 56 6 102 11 102 5 0 4 9 -2 20 -10 19 -14 38 -27 130 -3
25 -10 48 -16 51 -5 4 -10 45 -11 93 0 50 -5 86 -11 86 -5 0 -25 -14 -42 -31
-18 -16 -33 -27 -33 -24 0 9 22 49 30 55 17 13 60 87 60 104 0 18 -1 19 -20 1
-11 -10 -20 -13 -20 -7 0 6 4 13 10 17 11 7 5 180 -8 215 l-9 24 -12 -23z"/>
<path d="M3570 4151 c0 -19 22 -23 38 -7 15 15 14 16 -11 16 -15 0 -27 -4 -27
-9z"/>
<path d="M3550 4141 c0 -5 5 -13 10 -16 6 -3 10 -2 10 4 0 5 -4 13 -10 16 -5
3 -10 2 -10 -4z"/>
<path d="M3980 4120 c0 -24 15 -27 24 -4 9 22 8 24 -9 24 -8 0 -15 -9 -15 -20z"/>
<path d="M3440 4084 c0 -10 -3 -29 -6 -41 -5 -17 -2 -23 11 -23 12 0 15 6 10
23 -5 19 -4 20 5 5 14 -23 29 -22 60 1 l24 19 -27 -1 c-15 -1 -27 -8 -27 -14
0 -7 -5 -13 -11 -13 -5 0 -7 4 -4 10 3 5 -3 20 -14 32 -20 21 -21 21 -21 2z"/>
<path d="M3940 4081 c-7 -15 -7 -22 2 -27 7 -4 10 -4 6 1 -4 4 -3 16 3 26 5
11 7 19 5 19 -3 0 -10 -9 -16 -19z"/>
<path d="M3780 4080 c-11 -7 -12 -14 -2 -35 16 -35 7 -71 -14 -54 -11 9 -14 7
-14 -10 0 -13 -4 -19 -11 -16 -6 4 -8 13 -5 21 3 8 1 14 -3 14 -9 0 -21 -24
-21 -41 0 -6 5 -7 10 -4 6 3 13 -1 16 -9 3 -9 10 -14 14 -11 5 3 5 -5 2 -17
-4 -16 -7 -18 -9 -8 -4 20 -60 42 -69 28 -3 -5 -13 -7 -21 -4 -8 3 -12 2 -9
-3 3 -5 3 -23 0 -41 -5 -22 -9 -28 -15 -18 -7 11 -11 10 -19 -2 -7 -11 -5 -17
8 -21 14 -5 13 -8 -6 -18 -19 -10 -21 -15 -11 -27 9 -11 9 -18 1 -26 -7 -7
-12 -8 -12 -4 0 5 -7 3 -15 -4 -8 -7 -15 -9 -15 -5 0 4 -7 2 -15 -5 -8 -7 -15
-21 -15 -31 0 -12 -5 -16 -14 -13 -9 3 -17 -3 -22 -18 -4 -13 -15 -29 -25 -36
-11 -7 -19 -22 -19 -32 0 -10 -5 -22 -11 -26 -6 -3 -9 -15 -6 -25 3 -10 1 -22
-4 -25 -5 -3 -9 0 -9 6 0 6 -4 8 -10 5 -5 -3 -10 -13 -10 -21 0 -8 5 -12 11
-9 7 5 9 -6 7 -31 -2 -22 -9 -39 -18 -42 -13 -5 -13 -3 -1 12 15 18 9 32 -8
21 -6 -3 -11 -19 -11 -36 0 -19 -5 -29 -15 -29 -9 0 -18 -12 -21 -30 -7 -31
-24 -42 -24 -15 0 8 -4 15 -10 15 -10 0 -14 -14 -11 -38 1 -7 -5 -15 -14 -18
-8 -3 -15 -18 -15 -32 0 -25 -1 -25 -15 -6 -13 18 -14 16 -15 -21 -1 -37 -2
-39 -15 -21 -8 11 -17 18 -19 15 -10 -10 -24 -82 -19 -95 3 -8 0 -14 -7 -14
-6 0 -9 4 -5 9 3 5 1 12 -5 16 -6 4 -7 12 -4 18 4 7 -5 0 -20 -15 -18 -19 -26
-39 -27 -65 -1 -23 -3 -29 -6 -15 -7 35 -23 26 -23 -14 0 -31 -2 -35 -15 -24
-20 16 -45 6 -45 -19 0 -31 -21 -36 -41 -10 l-19 24 0 -36 c0 -35 -2 -37 -40
-43 -35 -5 -40 -10 -40 -32 0 -20 -4 -25 -16 -20 -9 3 -18 6 -20 6 -2 0 -4 8
-4 18 0 14 2 15 10 2 7 -10 10 8 10 60 l0 75 -33 2 -32 1 28 -10 c25 -9 27
-14 26 -56 -2 -33 -3 -38 -6 -17 -6 43 -52 76 -54 38 0 -11 -3 -13 -6 -5 -7
17 -23 15 -23 -4 0 -22 -60 -73 -79 -67 -11 3 -10 0 3 -11 20 -16 20 -16 0
-17 -10 -1 -22 -1 -27 0 -4 1 -12 -10 -17 -24 -5 -14 -14 -25 -20 -25 -7 0 -9
-8 -5 -20 4 -11 2 -20 -4 -20 -6 0 -11 4 -11 10 0 6 -10 5 -25 -2 -14 -6 -25
-17 -25 -25 0 -7 -4 -13 -10 -13 -5 0 -10 5 -10 11 0 7 -12 -1 -28 -17 -15
-16 -35 -28 -45 -26 -10 2 -17 -3 -17 -13 0 -9 -4 -14 -9 -10 -5 3 -19 -8 -31
-25 -12 -17 -26 -28 -31 -25 -5 4 -9 1 -9 -4 0 -6 -7 -11 -15 -11 -8 0 -22
-11 -31 -25 -9 -14 -19 -23 -22 -20 -3 2 -14 -6 -26 -19 -14 -15 -36 -25 -65
-29 -39 -5 -105 -47 -73 -47 7 0 12 -7 12 -16 0 -11 6 -14 20 -9 14 4 20 2 20
-9 0 -22 60 -52 70 -36 5 9 9 9 11 1 2 -6 13 -13 24 -15 65 -12 121 -19 129
-17 5 1 12 -3 16 -8 4 -7 14 -3 28 10 12 11 20 24 17 29 -4 6 3 6 16 1 13 -4
24 -13 25 -20 1 -6 0 -7 -3 -1 -6 13 -33 13 -33 0 0 -5 7 -10 15 -10 8 0 15
-6 15 -12 0 -10 3 -9 9 1 6 9 21 12 52 8 24 -3 36 -4 27 -1 -10 3 -18 10 -18
15 0 5 -9 9 -20 9 -11 0 -20 5 -20 11 0 5 4 8 9 4 5 -3 12 3 16 14 3 11 13 22
21 25 8 3 12 1 9 -4 -3 -6 5 -9 19 -8 14 1 28 8 30 15 3 7 12 10 21 7 8 -3 15
-1 15 5 0 6 -4 11 -10 11 -5 0 -10 6 -10 14 0 8 6 14 13 13 41 -1 67 4 62 13
-3 6 -1 10 5 10 6 0 18 7 27 15 21 21 48 14 47 -12 -1 -32 24 -17 32 20 4 20
2 33 -5 35 -6 2 -9 8 -6 12 3 5 15 0 26 -11 20 -20 20 -21 2 -34 -10 -8 -13
-15 -6 -15 6 0 15 4 18 10 3 5 17 -2 30 -18 14 -15 25 -22 25 -16 0 5 -8 19
-18 30 -15 17 -42 67 -42 79 0 3 5 5 10 5 6 0 10 -6 10 -14 0 -21 21 -31 32
-15 7 10 8 6 5 -13 -4 -24 -2 -26 14 -17 11 5 19 14 19 20 0 6 3 8 8 6 12 -8
54 12 47 23 -3 5 -1 10 6 10 7 0 10 3 7 6 -4 3 -17 -2 -30 -10 -27 -18 -38
-13 -38 18 0 16 3 18 9 7 6 -9 11 -10 15 -2 4 6 5 15 2 19 -2 4 -1 14 5 22 7
12 9 10 9 -7 0 -19 6 -23 30 -23 26 0 30 -4 31 -27 1 -25 2 -24 8 7 5 25 2 38
-9 47 -13 10 -11 12 13 13 26 0 27 1 13 16 -9 8 -16 23 -16 32 0 13 5 11 20
-8 16 -20 20 -22 20 -7 0 20 58 76 79 77 9 0 11 -8 7 -26 -6 -22 -4 -25 9 -20
9 3 18 6 20 6 12 0 -11 40 -25 45 -23 7 -35 35 -15 35 8 0 15 -4 15 -10 0 -5
7 -10 15 -10 8 0 15 -7 15 -15 0 -17 9 -19 28 -6 10 6 11 19 6 46 -5 31 -3 41
12 52 16 11 17 17 6 33 -18 29 -6 24 28 -11 35 -37 36 -41 13 -80 -9 -15 -14
-32 -9 -36 10 -10 24 14 36 62 17 63 18 65 40 65 11 0 20 5 20 10 0 6 -7 10
-15 10 -8 0 -15 4 -15 9 0 5 7 16 15 25 8 8 15 23 15 34 0 11 7 25 15 32 8 7
13 16 10 20 -3 5 6 21 20 37 l24 28 1 -27 c0 -20 -4 -26 -15 -22 -8 4 -15 1
-15 -5 0 -6 5 -11 10 -11 19 0 10 -28 -11 -33 -12 -3 -18 -10 -15 -16 8 -12
46 18 46 36 0 7 6 13 13 13 25 0 39 17 32 39 -3 11 -11 21 -17 21 -6 0 -6 -6
2 -15 10 -12 10 -15 -4 -15 -11 0 -16 9 -16 26 0 14 -4 23 -10 19 -5 -3 -10 0
-10 8 0 14 20 27 42 27 6 0 8 -9 5 -20 -7 -28 19 -48 28 -21 3 12 11 21 17 21
6 0 8 12 5 30 -4 19 -2 30 5 30 21 0 -1 13 -24 14 -19 1 -23 7 -23 35 0 38 22
58 51 47 15 -6 16 -9 4 -16 -9 -6 -18 -5 -23 3 -5 7 -5 2 -2 -12 5 -15 2 -26
-6 -32 -8 -5 5 -7 31 -7 25 0 39 3 33 5 -7 3 -13 14 -13 26 0 20 0 20 16 1 15
-18 15 -18 11 9 -3 21 -1 25 8 17 9 -7 15 -8 19 -1 4 6 14 7 24 4 15 -6 15 -5
4 10 -8 9 -12 24 -9 34 4 14 5 13 6 -4 1 -23 21 -33 21 -12 0 6 11 20 25 31
14 11 23 23 20 28 -3 5 6 17 20 28 19 15 25 29 25 57 0 31 3 37 19 32 29 -7
48 9 49 42 1 44 -33 135 -52 139 -9 2 -14 7 -11 12 3 5 1 11 -5 15 -5 3 -10 0
-10 -7 0 -8 -13 -13 -30 -14 -37 -1 -35 15 3 34 24 12 27 19 27 63 0 57 24 70
35 18 5 -24 10 -28 19 -19 8 9 8 14 -1 17 -7 3 -10 15 -7 31 7 37 -37 134 -56
122z m-70 -171 c0 8 3 12 6 8 4 -3 -3 -18 -15 -33 l-21 -27 0 39 c0 35 1 37
15 18 10 -13 14 -15 15 -5z m-59 -72 c-10 -9 -11 -8 -5 6 3 10 9 15 12 12 3
-3 0 -11 -7 -18z m105 -64 c11 -31 -2 -73 -23 -73 -17 0 -17 -27 0 -34 6 -3 2
-3 -9 -1 -17 4 -23 0 -27 -18 -5 -17 -14 -23 -37 -25 -29 -2 -30 -1 -20 19 7
12 17 18 26 15 12 -4 14 -1 9 14 -10 30 40 129 65 130 3 0 10 -12 16 -27z m34
12 c0 -8 -4 -15 -10 -15 -5 0 -7 7 -4 15 4 8 8 15 10 15 2 0 4 -7 4 -15z
m-230 -45 c0 -5 -4 -10 -10 -10 -5 0 -10 5 -10 10 0 6 5 10 10 10 6 0 10 -4
10 -10z m220 -14 c0 -3 -4 -8 -10 -11 -5 -3 -10 -1 -10 4 0 6 5 11 10 11 6 0
10 -2 10 -4z m7 -138 c-3 -8 -6 -5 -6 6 -1 11 2 17 5 13 3 -3 4 -12 1 -19z
m-330 -20 c-3 -8 -6 -5 -6 6 -1 11 2 17 5 13 3 -3 4 -12 1 -19z m183 -18 c0
-5 -8 -10 -17 -10 -15 0 -16 2 -3 10 19 12 20 12 20 0z m40 -16 c0 -8 -4 -12
-10 -9 -5 3 -10 10 -10 16 0 5 5 9 10 9 6 0 10 -7 10 -16z m30 6 c0 -5 -4 -10
-10 -10 -5 0 -10 5 -10 10 0 6 5 10 10 10 6 0 10 -4 10 -10z m-333 -136 c-3
-3 -12 -4 -19 -1 -8 3 -5 6 6 6 11 1 17 -2 13 -5z m-77 -84 c0 -5 -2 -10 -4
-10 -3 0 -8 5 -11 10 -3 6 -1 10 4 10 6 0 11 -4 11 -10z m-33 -72 c-3 -7 -5
-2 -5 12 0 14 2 19 5 13 2 -7 2 -19 0 -25z m107 -30 c-5 -7 -2 -9 9 -5 11 4
14 2 11 -8 -5 -11 -10 -12 -24 -2 -14 8 -16 13 -7 19 17 11 19 10 11 -4z
m-137 -20 c-3 -8 -6 -5 -6 6 -1 11 2 17 5 13 3 -3 4 -12 1 -19z m70 -50 c-3
-8 -6 -5 -6 6 -1 11 2 17 5 13 3 -3 4 -12 1 -19z m40 -70 c-3 -8 -6 -5 -6 6
-1 11 2 17 5 13 3 -3 4 -12 1 -19z m-52 2 c3 -5 -1 -10 -9 -10 -9 0 -16 -5
-16 -12 0 -6 -2 -9 -5 -6 -7 7 5 38 15 38 5 0 12 -4 15 -10z m-468 -42 c-3 -8
-6 -5 -6 6 -1 11 2 17 5 13 3 -3 4 -12 1 -19z m-81 -65 c-10 -10 -19 5 -10 18
6 11 8 11 12 0 2 -7 1 -15 -2 -18z m514 19 c0 -4 -5 -13 -12 -20 -9 -9 -7 -13
5 -18 9 -3 17 -12 17 -20 0 -11 -5 -10 -20 3 -20 17 -26 44 -13 56 9 10 23 9
23 -1z m-316 -17 c3 -8 1 -15 -4 -15 -6 0 -10 7 -10 15 0 8 2 15 4 15 2 0 6
-7 10 -15z m-29 -4 c3 -5 1 -12 -5 -16 -5 -3 -10 1 -10 9 0 18 6 21 15 7z
m245 -11 c0 -5 -5 -10 -11 -10 -5 0 -7 5 -4 10 3 6 8 10 11 10 2 0 4 -4 4 -10z
m15 -40 c3 -5 1 -10 -4 -10 -6 0 -11 5 -11 10 0 6 2 10 4 10 3 0 8 -4 11 -10z
m-61 -16 c10 -26 7 -32 -13 -27 -13 3 -17 11 -14 24 6 23 19 25 27 3z m-326
-25 c-3 -8 -7 -3 -11 10 -4 17 -3 21 5 13 5 -5 8 -16 6 -23z m352 21 c0 -5 -2
-10 -4 -10 -3 0 -8 5 -11 10 -3 6 -1 10 4 10 6 0 11 -4 11 -10z m-80 -54 c0
-3 -4 -8 -10 -11 -5 -3 -10 -1 -10 4 0 6 5 11 10 11 6 0 10 -2 10 -4z m20 -26
c0 -5 -7 -10 -16 -10 -8 0 -12 5 -9 10 3 6 10 10 16 10 5 0 9 -4 9 -10z m-108
-25 c3 -13 1 -22 -3 -19 -9 5 -13 44 -5 44 2 0 6 -11 8 -25z m-14 -71 c-4 -3
-12 5 -18 18 -12 22 -12 22 6 6 10 -10 15 -20 12 -24z"/>
<path d="M3690 3700 c-13 -8 -12 -10 3 -10 9 0 17 5 17 10 0 12 -1 12 -20 0z"/>
<path d="M3970 4076 c0 -2 7 -7 16 -10 8 -3 12 -2 9 4 -6 10 -25 14 -25 6z"/>
<path d="M3973 4031 c1 -17 8 -31 15 -31 17 0 15 35 -3 50 -12 10 -14 7 -12
-19z"/>
<path d="M3280 4021 c0 -12 5 -21 10 -21 6 0 10 6 10 14 0 8 -4 18 -10 21 -5
3 -10 -3 -10 -14z"/>
<path d="M3747 4033 c-4 -3 -7 -11 -7 -17 0 -6 5 -5 12 2 6 6 9 14 7 17 -3 3
-9 2 -12 -2z"/>
<path d="M3932 4027 c18 -19 38 -22 38 -7 0 6 -4 10 -9 10 -5 0 -18 3 -28 7
-17 6 -17 6 -1 -10z"/>
<path d="M3310 4006 c0 -10 8 -16 22 -16 12 0 19 1 17 3 -2 1 -12 9 -21 16
-15 12 -18 11 -18 -3z"/>
<path d="M3197 3990 c9 -35 53 -48 53 -16 0 6 -4 6 -8 -2 -6 -9 -12 -5 -22 13
-16 30 -30 33 -23 5z"/>
<path d="M1491 3957 c-19 -31 -22 -47 -18 -85 3 -28 12 -51 23 -59 18 -13 19
-11 22 37 2 28 2 72 0 98 l-3 47 -24 -38z"/>
<path d="M3285 3980 c3 -5 8 -10 11 -10 2 0 4 5 4 10 0 6 -5 10 -11 10 -5 0
-7 -4 -4 -10z"/>
<path d="M3938 3965 c-3 -13 -3 -27 0 -29 7 -8 32 21 32 38 0 26 -27 18 -32
-9z"/>
<path d="M2415 3939 c-4 -6 -5 -12 -2 -15 7 -7 37 7 37 17 0 13 -27 11 -35 -2z"/>
<path d="M1360 3913 c0 -12 5 -25 11 -28 16 -11 17 -2 2 25 -12 24 -13 24 -13
3z"/>
<path d="M4374 3672 c-50 -103 -95 -202 -99 -220 -4 -18 -18 -45 -31 -59 -13
-14 -21 -29 -18 -34 3 -5 -2 -9 -11 -9 -12 0 -15 -6 -9 -22 6 -22 6 -22 -13 2
-31 39 -33 56 -17 107 8 27 17 68 20 93 l6 45 -34 -32 c-19 -18 -37 -33 -40
-33 -7 0 -22 51 -19 64 1 4 -4 15 -11 23 -9 11 -9 16 1 23 8 4 9 10 3 14 -5 3
-13 29 -17 58 l-8 53 -13 -65 c-7 -36 -13 -100 -13 -142 -1 -42 -6 -89 -12
-105 -10 -28 -27 -187 -30 -300 -2 -50 -6 -63 -18 -63 -13 0 -14 -2 -2 -9 18
-12 6 -45 -14 -37 -9 3 -15 0 -15 -9 0 -8 -4 -15 -10 -15 -5 0 -10 -9 -10 -21
0 -11 -4 -18 -9 -15 -5 3 -11 0 -14 -8 -3 -8 -21 -20 -41 -27 -19 -7 -37 -21
-39 -31 -3 -11 -11 -16 -20 -12 -11 4 -17 -5 -22 -35 -4 -27 -13 -42 -26 -46
-10 -4 -19 -12 -19 -20 0 -7 -8 -12 -17 -11 -12 1 -19 -7 -21 -26 -2 -14 -10
-32 -18 -38 -8 -7 -14 -21 -14 -30 0 -10 -18 -36 -39 -58 -22 -22 -37 -42 -34
-45 3 -3 -2 -18 -11 -34 -9 -15 -21 -39 -26 -53 -19 -44 -37 -70 -43 -63 -4 3
-7 -3 -7 -15 0 -29 -17 -28 -23 1 l-4 22 -2 -22 c-1 -15 -6 -21 -15 -17 -8 3
-16 -2 -19 -13 -4 -16 -5 -16 -6 0 0 9 -6 17 -11 17 -6 0 -9 -3 -9 -7 1 -5 1
-15 0 -23 -1 -13 -2 -13 -11 0 -8 12 -10 10 -9 -10 0 -14 4 -34 8 -44 7 -19 8
-19 28 1 12 12 24 19 27 15 7 -6 39 -13 71 -16 14 -1 21 6 23 22 3 18 10 22
38 22 19 0 33 -4 30 -8 -5 -9 41 -8 51 1 3 4 17 7 30 7 14 0 21 4 18 10 -4 6
-11 8 -16 5 -15 -10 -10 11 5 24 13 11 12 17 0 48 -8 19 -11 32 -6 29 6 -3 12
4 15 15 4 13 10 18 18 14 9 -6 10 -1 7 19 -4 20 -1 26 11 26 10 0 22 -5 28
-11 15 -15 33 -3 33 23 0 35 15 8 19 -34 1 -5 4 -7 9 -5 9 3 12 -7 11 -30 0
-16 -2 -15 -10 2 -6 14 -7 6 -3 -27 5 -45 -7 -66 -20 -35 -3 6 -5 -6 -4 -28 1
-22 -1 -45 -4 -51 -4 -5 -5 -26 -3 -47 2 -20 0 -37 -5 -37 -5 0 -14 -17 -21
-37 -14 -42 -44 -89 -74 -114 -30 -26 -197 -74 -330 -95 -50 -7 -125 -34 -125
-44 0 -4 7 -13 16 -21 14 -12 15 -35 3 -78 -3 -9 5 -14 22 -15 24 -1 28 3 38
50 13 58 19 64 72 82 25 9 45 9 62 3 25 -10 68 -65 101 -129 11 -21 30 -38 56
-48 l40 -16 -23 -19 -22 -18 22 -1 c12 0 24 4 27 9 3 5 17 12 31 15 31 8 100
54 161 109 59 53 107 79 137 75 52 -7 5 -123 -111 -278 -68 -90 -70 -92 -104
-114 -24 -15 -38 -16 -150 -6 -79 7 -142 8 -178 2 l-55 -10 49 -1 c36 -1 66
-10 110 -35 58 -32 64 -34 103 -23 35 9 48 8 76 -5 36 -17 67 -9 67 17 0 8 10
20 23 26 12 7 48 30 79 53 47 33 57 45 53 63 -4 19 2 26 37 41 24 11 51 22 61
25 14 5 17 13 12 41 -6 29 -3 36 17 47 12 8 57 15 98 17 41 2 85 4 97 5 l22 2
-21 23 c-12 12 -27 22 -33 22 -6 0 -24 13 -39 29 l-27 29 30 13 c17 8 31 17
31 21 0 10 97 38 129 38 16 0 32 9 40 21 12 20 19 21 94 16 45 -3 122 -15 171
-27 48 -12 90 -19 93 -16 3 2 23 -2 45 -10 87 -30 104 -4 40 59 -52 51 -114
66 -245 63 -166 -5 -244 18 -234 70 3 15 0 21 -9 17 -9 -3 -11 2 -7 16 3 12 9
21 14 21 18 0 8 44 -15 65 -23 22 -26 22 -40 6 -19 -21 -21 -57 -3 -65 8 -4 7
-5 -3 -5 -30 2 -41 -1 -35 -10 3 -5 1 -12 -4 -15 -24 -15 -19 19 10 71 18 32
37 68 43 80 6 13 14 23 19 23 4 0 7 8 7 18 0 10 5 23 11 29 9 9 8 19 -5 38
-15 23 -24 26 -53 23 l-35 -4 6 60 c4 34 13 124 21 201 26 251 45 406 50 416
3 5 8 35 11 66 2 32 13 96 24 143 19 86 45 227 55 310 3 25 11 66 17 93 8 29
8 51 2 56 -5 6 -44 -63 -100 -177z m-379 -672 c3 -5 1 -10 -4 -10 -6 0 -11 5
-11 10 0 6 2 10 4 10 3 0 8 -4 11 -10z m-175 -430 c0 -11 -4 -20 -10 -20 -5 0
-10 9 -10 20 0 11 5 20 10 20 6 0 10 -9 10 -20z"/>
<path d="M1256 3834 c-3 -9 -6 -28 -6 -42 0 -23 50 -229 81 -332 6 -19 11 -41
11 -47 1 -7 6 -13 11 -13 6 0 7 -3 4 -6 -4 -4 -18 1 -33 11 -22 14 -28 15 -35
4 -10 -16 -1 -78 13 -95 10 -13 -7 -101 -24 -121 -6 -8 -19 -11 -29 -8 -11 4
-19 2 -19 -4 0 -6 6 -11 14 -11 20 0 27 -27 10 -41 -8 -6 -17 -9 -20 -6 -3 3
-18 1 -34 -3 -21 -6 -32 -4 -41 6 -6 8 -23 13 -38 12 -15 -1 -33 2 -40 6 -18
12 -31 -11 -31 -58 0 -21 -5 -56 -11 -76 -9 -30 -9 -44 3 -67 9 -18 12 -38 7
-53 -49 -164 -51 -173 -44 -218 6 -43 26 -80 65 -124 42 -47 51 -68 30 -68
-16 0 -12 -19 10 -50 l20 -27 -63 -13 c-34 -6 -93 -22 -132 -35 -38 -12 -81
-22 -95 -21 -20 1 -26 -4 -28 -26 -2 -16 -11 -30 -23 -33 -36 -12 -20 -32 35
-44 39 -9 56 -18 66 -36 7 -14 17 -25 22 -25 4 0 8 -5 8 -11 0 -6 -15 -10 -32
-9 -18 1 -44 2 -58 1 -40 -2 -2 -21 43 -21 29 0 37 -4 37 -18 0 -27 20 -42 57
-42 18 0 43 -6 56 -12 12 -7 23 -14 25 -15 2 -1 -1 -11 -8 -22 -14 -27 3 -27
21 0 12 17 18 19 42 10 32 -13 46 -39 26 -52 -8 -5 -31 -14 -53 -20 -56 -15
-186 -88 -237 -132 l-44 -38 46 6 c25 3 74 15 110 26 35 11 104 22 154 24 60
3 78 2 55 -4 -19 -4 -47 -15 -62 -23 l-28 -15 39 -11 c21 -7 49 -12 62 -13 14
0 18 -3 9 -6 -8 -2 -28 -11 -45 -18 -16 -7 -57 -18 -90 -25 -130 -25 -292
-100 -318 -146 -7 -12 -3 -13 20 -8 15 4 33 11 39 16 60 46 249 80 357 64 61
-9 53 -31 -15 -39 -27 -4 -57 -12 -65 -19 -8 -6 -22 -12 -31 -13 -40 -3 -92
-16 -97 -24 -2 -5 41 -9 98 -10 127 -2 146 -7 140 -32 -6 -20 -19 -25 -25 -10
-1 5 -10 2 -18 -7 -13 -14 -12 -15 4 -9 16 6 17 4 11 -15 -3 -13 -7 -29 -7
-35 -1 -7 -8 -13 -15 -13 -8 0 -12 -4 -8 -10 3 -5 -19 -33 -50 -63 -30 -30
-55 -61 -55 -68 0 -7 -3 -9 -6 -6 -10 9 -46 -12 -39 -24 4 -5 18 -9 33 -9 16
0 22 -3 15 -8 -11 -7 62 -57 434 -295 62 -40 361 -233 665 -429 304 -196 578
-368 608 -382 118 -54 271 -54 387 -1 38 17 560 344 592 371 6 5 -73 116 -91
127 -12 8 -31 3 -74 -17 -33 -16 -77 -35 -98 -42 -22 -8 -44 -18 -50 -23 -6
-4 -18 -10 -27 -14 -14 -4 -13 0 3 31 30 57 20 183 -26 347 -20 72 -45 151
-55 177 -16 39 -17 49 -6 58 8 6 17 25 20 41 4 16 14 35 23 42 19 14 42 51 42
68 0 28 45 49 66 30 16 -16 149 -51 191 -51 26 0 48 -7 63 -20 13 -12 30 -18
37 -16 19 8 43 -4 43 -20 0 -7 6 -28 14 -46 8 -18 23 -67 34 -108 53 -194 53
-261 -3 -317 -24 -24 -29 -33 -16 -33 27 0 62 30 77 66 25 59 16 137 -35 319
-5 17 -25 71 -46 120 -39 97 -79 148 -134 171 -39 16 -38 22 5 26 27 2 29 4
26 35 -5 38 -21 42 -60 14 -27 -18 -28 -18 -81 6 -29 14 -79 26 -110 29 -43 3
-49 2 -26 -5 50 -14 101 -39 115 -55 7 -9 19 -16 27 -16 10 0 14 -7 10 -20 -4
-16 2 -20 42 -25 58 -8 76 -17 76 -41 0 -27 -38 -29 -126 -5 -40 12 -86 21
-102 21 -27 0 -28 1 -11 17 16 17 16 18 -15 27 -21 6 -54 5 -94 -2 -34 -6 -87
-11 -117 -11 -30 0 -106 -10 -167 -22 -99 -20 -120 -21 -168 -10 -35 8 -55 18
-55 27 0 8 -3 14 -7 15 -30 3 -58 11 -63 18 -3 4 -12 11 -20 14 -12 4 -11 6 3
6 29 2 19 20 -20 37 -55 25 -51 24 -264 31 -199 6 -286 0 -258 -18 8 -5 25 -9
39 -9 23 -1 22 -2 -8 -15 -19 -8 -55 -14 -80 -12 -40 2 -48 6 -50 25 -3 21 -5
22 -154 18 -89 -3 -155 -9 -161 -15 -8 -8 3 -11 38 -12 45 -1 47 -2 21 -9 -16
-5 -33 -7 -38 -4 -5 3 -15 -1 -21 -9 -13 -16 -147 -32 -147 -18 0 4 5 23 11
40 8 24 9 39 0 57 -13 30 -35 30 -81 3 -28 -17 -52 -22 -123 -23 -49 -1 -90 2
-93 5 -5 9 32 89 56 119 23 30 26 20 5 -20 -18 -35 -13 -37 24 -11 61 44 105
51 323 51 140 0 244 -5 320 -16 172 -25 556 -25 666 0 100 23 130 42 114 73
-13 24 -62 32 -302 48 -67 5 -148 13 -305 30 -27 3 -68 9 -90 14 -46 9 -175
69 -175 81 0 4 -9 10 -20 13 -29 8 -30 8 -83 34 -26 13 -52 21 -59 17 -7 -4
-8 -3 -4 5 4 6 2 18 -4 26 -14 16 -35 21 -25 6 3 -5 1 -12 -5 -16 -5 -3 -14 2
-21 12 -11 18 -15 18 -85 4 -63 -13 -75 -19 -83 -41 -5 -14 -10 -19 -10 -12
-1 7 8 33 19 56 19 42 21 44 82 55 35 6 101 16 148 21 47 6 105 15 130 20 25
5 69 12 98 16 33 4 56 12 59 21 4 10 8 11 13 3 5 -9 20 -8 58 3 28 9 52 14 54
12 1 -1 22 -5 45 -9 28 -3 43 -1 47 7 3 9 5 9 5 0 1 -15 113 -17 309 -7 109 6
123 9 149 32 16 15 21 22 11 19 -21 -7 -25 22 -8 54 7 12 7 19 1 19 -6 0 -7 7
-4 17 5 11 3 14 -6 8 -10 -5 -11 -2 -6 14 5 15 2 21 -9 21 -9 0 -16 7 -16 15
0 8 -4 15 -9 15 -17 0 1 38 20 43 14 4 19 13 18 34 -1 23 -2 24 -6 5 -4 -17
-9 -21 -28 -16 -24 6 -43 -10 -25 -21 13 -8 13 -25 0 -25 -5 0 -10 6 -10 14 0
8 -14 22 -31 30 -39 20 -58 8 -51 -32 l5 -27 -22 19 c-22 20 -22 20 -15 0 7
-16 6 -17 -8 -6 -11 9 -22 9 -39 3 -13 -5 -18 -10 -11 -10 6 -1 12 -8 12 -16
0 -9 6 -12 17 -8 15 6 15 5 4 -8 -8 -8 -31 -15 -53 -16 -21 -2 -47 -7 -58 -13
-13 -7 -21 -7 -25 0 -4 6 -11 8 -16 4 -5 -3 -16 -1 -23 5 -10 9 -127 20 -214
21 -13 0 -20 4 -17 10 3 6 3 10 -2 11 -4 0 -17 2 -28 5 -28 6 -77 7 -95 3 -8
-2 -14 2 -15 10 0 15 -25 29 -25 14 0 -5 -17 -10 -37 -10 -21 -1 -32 0 -25 3
6 3 12 11 12 18 0 10 -25 13 -97 12 l-98 -1 -36 -37 c-20 -20 -43 -50 -50 -66
-10 -23 -22 -32 -49 -38 -43 -9 -73 -6 -82 10 -5 6 -8 2 -8 -11 0 -13 -4 -23
-9 -23 -5 0 -12 44 -15 98 -3 53 -13 163 -21 243 -8 80 -15 181 -16 225 -1
101 -19 254 -58 499 -7 39 -15 157 -19 263 l-8 192 -55 50 c-58 53 -73 59 -83
34z m114 -753 c0 -6 -4 -12 -9 -15 -4 -3 -7 -17 -5 -31 3 -28 -22 -47 -35 -27
-9 15 -29 10 -70 -15 -30 -19 -61 -21 -61 -4 1 20 23 35 54 37 36 1 108 42
100 56 -3 4 2 8 10 8 9 0 16 -4 16 -9z m3 -157 c3 -3 3 -12 0 -20 -4 -11 -9
-12 -19 -3 -8 6 -14 15 -14 20 0 10 24 12 33 3z m-60 -11 c11 -10 -13 -33 -34
-33 -17 0 -18 3 -7 20 13 20 29 26 41 13z m1359 -538 c3 -13 1 -22 -3 -19 -9
5 -13 44 -5 44 2 0 6 -11 8 -25z m-1697 -55 c3 -5 2 -10 -4 -10 -5 0 -13 5
-16 10 -3 6 -2 10 4 10 5 0 13 -4 16 -10z m208 -327 c-7 -2 -19 -2 -25 0 -7 3
-2 5 12 5 14 0 19 -2 13 -5z m297 -290 c0 -5 -12 -16 -26 -27 -26 -18 -26 -18
-15 2 9 17 19 25 39 31 1 1 2 -2 2 -6z m1033 -228 c48 -4 87 -11 87 -16 0 -13
-22 -23 -29 -13 -3 5 -22 9 -41 9 -19 -1 -39 2 -45 5 -5 3 -41 6 -80 7 -98 2
-104 3 -81 12 22 9 61 8 189 -4z m-575 -12 c-10 -2 -26 -2 -35 0 -10 3 -2 5
17 5 19 0 27 -2 18 -5z m59 1 c-3 -3 -12 -4 -19 -1 -8 3 -5 6 6 6 11 1 17 -2
13 -5z m633 -14 c0 -5 -4 -10 -10 -10 -5 0 -10 5 -10 10 0 6 5 10 10 10 6 0
10 -4 10 -10z m-1271 -57 c-3 -21 2 -33 13 -27 7 4 8 3 4 -4 -4 -7 -20 -12
-35 -12 -25 0 -28 3 -23 25 3 16 11 25 23 25 11 0 18 -3 18 -7z m264 -55 c-20
-68 -41 -116 -53 -123 -6 -3 -10 -14 -10 -24 0 -16 -82 -111 -96 -111 -3 0
-17 -9 -31 -20 -65 -51 -43 4 39 96 29 33 67 77 85 98 17 20 35 51 38 69 6 26
30 67 41 67 1 0 -5 -24 -13 -52z m1545 -18 c23 -11 42 -24 42 -29 0 -12 -32
-39 -60 -50 -38 -15 -2 -13 60 4 68 18 70 18 70 1 0 -7 -24 -23 -52 -35 -29
-12 -62 -26 -73 -31 -11 -5 -58 -20 -105 -35 -47 -14 -98 -30 -115 -35 -29 -9
-95 -18 -295 -39 -249 -28 -539 -38 -580 -21 -17 7 -30 16 -30 20 0 5 -6 15
-14 23 -12 11 -12 19 -2 38 10 21 19 24 66 25 130 3 333 19 385 29 17 4 48 9
70 12 22 3 48 12 58 21 15 13 20 14 26 3 5 -7 6 -22 3 -34 -3 -14 -1 -18 6
-13 7 4 12 2 12 -3 0 -20 18 -12 57 25 21 20 51 43 68 52 16 8 35 23 42 32 9
13 40 20 124 30 l112 13 23 -28 23 -29 17 37 c10 20 18 37 19 37 1 0 20 -9 43
-20z"/>
<path d="M3105 3811 c-3 -5 -1 -12 4 -15 5 -3 11 1 15 9 6 16 -9 21 -19 6z"/>
<path d="M1465 3780 c-3 -5 -2 -10 4 -10 5 0 13 5 16 10 3 6 2 10 -4 10 -5 0
-13 -4 -16 -10z"/>
<path d="M1481 3724 c-23 -26 -41 -52 -41 -58 0 -12 90 84 90 97 0 14 -8 7
-49 -39z"/>
<path d="M3460 3689 c0 -5 5 -7 10 -4 6 3 10 8 10 11 0 2 -4 4 -10 4 -5 0 -10
-5 -10 -11z"/>
<path d="M4105 3691 c-3 -5 -1 -12 5 -16 5 -3 10 1 10 9 0 18 -6 21 -15 7z"/>
<path d="M2515 3677 c-6 -7 -9 -22 -7 -33 3 -19 6 -20 27 -10 30 13 33 30 5
23 -17 -4 -20 -2 -15 14 7 22 4 23 -10 6z"/>
<path d="M3070 3681 c0 -6 4 -13 10 -16 6 -3 7 1 4 9 -7 18 -14 21 -14 7z"/>
<path d="M2725 3670 c-4 -6 5 -10 20 -10 15 0 24 4 20 10 -3 6 -12 10 -20 10
-8 0 -17 -4 -20 -10z"/>
<path d="M2570 3652 c0 -5 7 -13 16 -16 10 -4 14 -1 12 6 -5 15 -28 23 -28 10z"/>
<path d="M3040 3649 c0 -5 5 -7 10 -4 6 3 10 8 10 11 0 2 -4 4 -10 4 -5 0 -10
-5 -10 -11z"/>
<path d="M2435 3640 c3 -5 8 -10 11 -10 2 0 4 5 4 10 0 6 -5 10 -11 10 -5 0
-7 -4 -4 -10z"/>
<path d="M2648 3623 c6 -2 18 -2 25 0 6 3 1 5 -13 5 -14 0 -19 -2 -12 -5z"/>
<path d="M2825 3610 c3 -5 11 -10 16 -10 6 0 7 5 4 10 -3 6 -11 10 -16 10 -6
0 -7 -4 -4 -10z"/>
<path d="M2768 3593 c7 -3 16 -2 19 1 4 3 -2 6 -13 5 -11 0 -14 -3 -6 -6z"/>
<path d="M2860 3570 c0 -5 -7 -10 -17 -10 -9 0 -14 -2 -11 -5 8 -9 58 6 58 16
0 5 -7 9 -15 9 -8 0 -15 -4 -15 -10z"/>
<path d="M2910 3570 c0 -5 5 -10 10 -10 6 0 10 5 10 10 0 6 -4 10 -10 10 -5 0
-10 -4 -10 -10z"/>
<path d="M3365 3520 c3 -5 8 -10 11 -10 2 0 4 5 4 10 0 6 -5 10 -11 10 -5 0
-7 -4 -4 -10z"/>
<path d="M2383 3429 c-6 -20 -7 -21 -19 -5 -15 21 -56 18 -61 -4 -4 -13 -3
-13 6 0 9 13 11 13 11 -1 0 -9 -11 -21 -24 -27 -15 -7 -24 -19 -24 -34 0 -13
-3 -34 -7 -48 -6 -23 -5 -24 8 -7 17 21 27 22 27 3 0 -8 9 -17 19 -21 25 -8
34 -32 15 -39 -9 -3 -12 -11 -8 -18 5 -8 2 -9 -9 -5 -10 3 -17 2 -17 -3 0 -6
8 -10 18 -10 15 -1 15 -2 -2 -15 -26 -20 -36 -19 -36 3 0 30 -11 33 -31 9 -10
-12 -18 -16 -19 -9 0 6 -9 12 -21 12 -11 0 -17 4 -14 10 4 6 15 8 25 5 20 -6
36 31 16 39 -7 3 -6 8 4 15 13 9 12 11 -3 11 -16 0 -18 -5 -12 -32 5 -26 4
-30 -5 -18 -9 11 -13 12 -17 2 -2 -6 -9 -10 -14 -6 -5 3 -9 -6 -9 -20 0 -14 5
-28 10 -31 6 -3 10 -1 10 4 0 24 19 9 22 -16 2 -24 -26 -93 -38 -93 -2 0 -2
20 0 45 4 52 -7 58 -29 15 -22 -42 -36 -38 -30 10 5 42 -5 51 -31 26 -15 -16
-20 -71 -5 -62 5 3 11 -1 15 -9 3 -8 12 -12 20 -9 9 3 17 -3 21 -15 3 -12 13
-21 22 -21 9 0 13 -6 9 -15 -3 -8 -1 -15 4 -15 6 0 10 5 10 10 0 6 5 10 11 10
5 0 8 -4 5 -8 -3 -4 12 -8 32 -8 20 0 49 -3 63 -7 19 -5 32 -1 47 14 12 11 22
16 22 12 0 -4 4 -2 9 6 7 11 13 9 31 -9 20 -20 23 -20 45 -6 18 12 25 12 28 3
3 -7 6 -5 6 6 1 11 9 17 27 17 18 0 25 4 21 14 -3 8 1 17 10 20 8 4 13 13 10
20 -3 8 -1 17 6 20 9 3 9 5 0 5 -23 2 -14 19 15 28 34 12 62 6 62 -13 0 -11 7
-8 23 9 12 13 32 27 43 31 24 7 63 46 46 46 -5 0 -8 9 -5 19 5 19 5 19 24 0
18 -18 20 -18 37 -1 21 20 18 34 -6 30 -21 -4 -24 33 -3 40 9 3 11 0 6 -8 -6
-9 -1 -10 16 -4 13 4 35 7 49 6 22 -1 23 0 9 11 -9 6 -14 17 -12 24 3 7 -3 9
-16 6 -12 -3 -17 -11 -14 -19 8 -20 -11 -17 -31 5 -10 11 -25 17 -37 14 -10
-3 -19 0 -19 6 0 15 -37 14 -43 -1 -4 -10 -8 -9 -17 2 -9 11 -13 12 -17 3 -6
-16 -49 -17 -58 -3 -4 6 -14 10 -23 8 -23 -3 -72 11 -72 20 0 5 -12 7 -28 4
-19 -2 -33 3 -46 17 -25 27 -56 27 -63 0z m-30 -24 c4 -8 2 -17 -3 -20 -6 -4
-10 3 -10 14 0 25 6 27 13 6z m-7 -64 c-4 -5 -1 -11 6 -13 6 -2 8 -10 4 -16
-5 -9 -15 -8 -39 5 l-32 17 25 7 c36 10 42 10 36 0z m209 -153 c6 -4 2 -8 -7
-8 -10 0 -18 7 -18 17 0 9 3 12 8 7 4 -5 12 -12 17 -16z m-175 -17 c0 -5 3
-17 7 -27 9 -23 -13 -10 -27 17 -9 15 -7 19 5 19 8 0 15 -4 15 -9z m130 -6 c6
-4 7 -11 4 -17 -5 -8 -1 -9 10 -5 12 5 16 3 13 -5 -2 -8 -18 -12 -37 -10 -26
2 -31 -1 -26 -14 5 -13 2 -15 -16 -10 -13 3 -27 6 -31 6 -4 0 -7 16 -5 34 2
34 3 35 40 31 21 -2 42 -6 48 -10z m-140 -35 c0 -5 -4 -10 -10 -10 -5 0 -10 5
-10 10 0 6 5 10 10 10 6 0 10 -4 10 -10z m-213 -42 c-3 -8 -6 -5 -6 6 -1 11 2
17 5 13 3 -3 4 -12 1 -19z m180 16 c-3 -3 -12 -4 -19 -1 -8 3 -5 6 6 6 11 1
17 -2 13 -5z m43 -14 c-21 -21 -40 -26 -40 -12 0 8 36 30 53 31 4 1 -2 -8 -13
-19z"/>
<path d="M3315 3429 c-4 -6 -5 -12 -2 -15 2 -3 7 2 10 11 7 17 1 20 -8 4z"/>
<path d="M2141 3354 c0 -11 3 -14 6 -6 3 7 2 16 -1 19 -3 4 -6 -2 -5 -13z"/>
<path d="M2947 3352 c-24 -27 -21 -36 4 -11 11 11 19 23 16 25 -2 2 -11 -4
-20 -14z"/>
<path d="M2750 3200 c0 -5 5 -10 11 -10 5 0 7 5 4 10 -3 6 -8 10 -11 10 -2 0
-4 -4 -4 -10z"/>
<path d="M2150 3190 c0 -5 5 -10 11 -10 5 0 7 5 4 10 -3 6 -8 10 -11 10 -2 0
-4 -4 -4 -10z"/>
<path d="M3090 3170 c0 -5 5 -10 10 -10 6 0 10 5 10 10 0 6 -4 10 -10 10 -5 0
-10 -4 -10 -10z"/>
<path d="M3500 3155 c0 -8 4 -15 10 -15 5 0 7 7 4 15 -4 8 -8 15 -10 15 -2 0
-4 -7 -4 -15z"/>
<path d="M3065 3111 c-3 -5 -1 -12 5 -16 5 -3 10 1 10 9 0 18 -6 21 -15 7z"/>
<path d="M3436 3054 c-9 -22 3 -32 14 -14 12 19 12 30 1 30 -5 0 -12 -7 -15
-16z"/>
<path d="M2892 3020 c0 -14 2 -19 5 -12 2 6 2 18 0 25 -3 6 -5 1 -5 -13z"/>
<path d="M3300 2995 c-9 -10 -9 -22 -2 -42 l10 -28 1 34 c1 29 3 32 16 21 8
-7 15 -8 15 -2 0 5 -6 15 -14 21 -10 9 -16 8 -26 -4z"/>
<path d="M3821 2904 c0 -11 3 -14 6 -6 3 7 2 16 -1 19 -3 4 -6 -2 -5 -13z"/>
<path d="M3136 2841 c-4 -5 -3 -16 0 -25 3 -9 1 -16 -5 -16 -6 0 -11 -7 -11
-15 0 -8 5 -15 10 -15 6 0 10 5 10 11 0 5 5 7 10 4 7 -4 10 6 8 29 -2 35 -11
45 -22 27z"/>
<path d="M3175 2801 c-3 -5 -1 -12 4 -15 5 -3 11 1 15 9 6 16 -9 21 -19 6z"/>
<path d="M3157 2749 c4 -13 8 -18 11 -10 2 7 -1 18 -6 23 -8 8 -9 4 -5 -13z"/>
<path d="M3090 2751 c0 -6 5 -13 10 -16 6 -3 10 1 10 9 0 9 -4 16 -10 16 -5 0
-10 -4 -10 -9z"/>
<path d="M2790 2640 c0 -5 5 -10 10 -10 6 0 10 5 10 10 0 6 -4 10 -10 10 -5 0
-10 -4 -10 -10z"/>
<path d="M2970 2633 c0 -8 10 -12 25 -11 30 3 28 21 -3 23 -12 1 -22 -4 -22
-12z"/>
<path d="M4370 2589 c0 -5 5 -7 10 -4 6 3 10 8 10 11 0 2 -4 4 -10 4 -5 0 -10
-5 -10 -11z"/>
<path d="M997 2573 c-13 -12 -7 -24 18 -33 14 -5 25 -14 25 -20 0 -5 7 -10 15
-10 20 0 19 12 -3 30 -42 35 -49 39 -55 33z"/>
<path d="M2827 2557 c-3 -8 4 -14 21 -15 14 -1 24 -1 21 1 -2 1 -11 8 -20 15
-13 10 -18 10 -22 -1z"/>
<path d="M2891 2554 c0 -11 3 -14 6 -6 3 7 2 16 -1 19 -3 4 -6 -2 -5 -13z"/>
<path d="M2685 2550 c-3 -5 0 -10 9 -10 8 0 16 -4 18 -9 2 -5 10 -2 18 7 13
14 12 15 -3 9 -9 -3 -17 -2 -17 3 0 13 -17 13 -25 0z"/>
<path d="M2640 2520 c0 -5 5 -10 11 -10 5 0 7 5 4 10 -3 6 -8 10 -11 10 -2 0
-4 -4 -4 -10z"/>
<path d="M2898 2496 c-4 -17 -1 -23 9 -19 14 6 18 43 4 43 -5 0 -11 -11 -13
-24z"/>
<path d="M2861 2501 c-7 -5 -12 -13 -10 -18 2 -5 12 -1 22 9 18 19 12 24 -12
9z"/>
<path d="M2790 2481 c0 -5 5 -13 10 -16 6 -3 10 -2 10 4 0 5 -4 13 -10 16 -5
3 -10 2 -10 -4z"/>
<path d="M2821 2468 c0 -16 -5 -28 -11 -28 -5 0 -7 -7 -4 -15 4 -8 1 -22 -6
-30 -17 -20 -6 -31 13 -14 8 7 12 21 9 31 -3 12 1 18 12 18 9 0 16 5 16 10 0
6 -4 10 -9 10 -5 0 -12 10 -14 23 -4 19 -4 18 -6 -5z"/>
<path d="M1000 2470 c0 -13 30 -13 50 0 11 7 7 10 -17 10 -18 0 -33 -4 -33
-10z"/>
<path d="M2727 2463 c-14 -13 -6 -23 11 -15 9 5 23 7 30 5 6 -3 12 0 12 6 0
12 -42 15 -53 4z"/>
<path d="M2868 2433 c7 -3 16 -2 19 1 4 3 -2 6 -13 5 -11 0 -14 -3 -6 -6z"/>
<path d="M2820 2370 c0 -5 5 -10 11 -10 5 0 7 5 4 10 -3 6 -8 10 -11 10 -2 0
-4 -4 -4 -10z"/>
<path d="M940 2056 c0 -9 30 -14 35 -6 4 6 -3 10 -14 10 -12 0 -21 -2 -21 -4z"/>
<path d="M2255 2048 c-66 -4 -140 -12 -165 -19 -75 -20 -107 -73 -52 -85 15
-3 41 -12 57 -19 70 -31 245 -85 305 -95 87 -13 88 -13 92 12 2 13 11 24 23
26 33 6 45 22 45 59 0 32 2 34 28 30 44 -8 75 -23 111 -56 31 -28 81 -42 81
-23 0 4 12 15 28 24 39 23 73 54 66 61 -3 3 8 8 25 12 17 4 33 11 36 16 4 5
-5 5 -19 -1 -21 -7 -26 -6 -26 5 0 17 -6 18 -35 5 -11 -5 -14 -9 -7 -9 6 -1
12 -5 12 -9 0 -4 -12 -7 -27 -6 -16 1 -28 3 -28 4 0 1 -24 4 -53 6 -65 5 -89
9 -123 22 -15 6 -30 8 -35 4 -4 -4 -4 -2 -1 4 4 7 -3 15 -16 19 -44 13 -205
20 -322 13z"/>
<path d="M800 1981 c-8 -6 -17 -8 -21 -5 -4 2 -9 -3 -13 -11 -3 -8 -11 -15
-18 -15 -18 0 -44 -31 -52 -64 l-7 -27 30 15 c16 9 69 23 118 31 85 15 174 49
180 70 4 13 -197 18 -217 6z"/>
<path d="M4448 1985 c-1 -2 -43 -6 -93 -10 -49 -4 -94 -10 -100 -13 -20 -12
94 -32 184 -32 123 0 184 -12 363 -71 81 -27 151 -49 155 -49 10 0 -12 20 -39
36 -20 11 -44 23 -153 75 -49 23 -146 48 -210 54 -38 4 -77 9 -87 10 -9 2 -18
2 -20 0z"/>
<path d="M721 1696 c-34 -36 -23 -50 21 -26 21 11 44 20 50 20 7 0 22 7 32 15
18 14 16 15 -30 15 -41 0 -55 -5 -73 -24z"/>
<path d="M4350 1625 c0 -7 25 -38 55 -68 52 -51 99 -75 111 -56 3 5 0 9 -5 9
-6 0 -11 5 -11 11 0 14 -47 59 -61 59 -5 0 -9 4 -9 10 0 5 -18 18 -40 29 -30
14 -40 16 -40 6z"/>
<path d="M4083 1594 c14 -14 32 -24 41 -22 15 3 15 5 1 26 -9 13 -27 22 -41
22 l-25 0 24 -26z"/>
<path d="M2948 1503 c6 -2 18 -2 25 0 6 3 1 5 -13 5 -14 0 -19 -2 -12 -5z"/>
<path d="M3695 1450 c3 -5 8 -10 11 -10 2 0 4 5 4 10 0 6 -5 10 -11 10 -5 0
-7 -4 -4 -10z"/>
<path d="M3974 860 l-41 -75 25 -3 c14 -2 44 9 71 25 53 33 66 63 28 63 -19 0
-26 7 -33 32 l-10 33 -40 -75z"/>
</g>
</svg>
