<svg width="41" height="41" viewBox="0 0 41 41" fill="none" xmlns="http://www.w3.org/2000/svg">
<path d="M8.48486 19.1606H6.50723C6.16895 20.1092 5.27087 20.7941 4.20752 20.7941C2.85641 20.7941 1.75732 19.695 1.75732 18.3439C1.75732 16.9928 2.85641 15.8937 4.20752 15.8937C5.27087 15.8937 6.16895 16.5786 6.50723 17.5272H13.3004V16.7105C13.3004 16.259 13.6657 15.8937 14.1171 15.8937H17.384C17.8355 15.8937 18.2007 16.259 18.2007 16.7105V17.4858C22.5033 17.0957 25.9365 13.6625 26.3266 9.35995H25.5513C25.0998 9.35995 24.7345 8.99466 24.7345 8.54321V5.27634C24.7345 4.82489 25.0998 4.45959 25.5513 4.45959H28.8181C29.2696 4.45959 29.6349 4.82489 29.6349 5.27634V8.54321C29.6349 8.99466 29.2696 9.35995 28.8181 9.35995H27.9601C27.696 12.802 25.7871 15.7836 23.0163 17.5272H24.885C25.2233 16.5786 26.1213 15.8937 27.1847 15.8937C28.5358 15.8937 29.6349 16.9928 29.6349 18.3439C29.6349 19.695 28.5358 20.7941 27.1847 20.7941C26.1213 20.7941 25.2233 20.1092 24.885 19.1606H18.2007V19.9774C18.2007 20.4288 17.8355 20.7941 17.384 20.7941H14.1171C13.6657 20.7941 13.3004 20.4288 13.3004 19.9774V19.202C8.99783 19.5922 5.56464 23.0253 5.1745 27.3279H5.94986C6.40128 27.3279 6.76657 27.6932 6.76657 28.1446V31.5204C6.76657 31.9719 6.40128 32.3371 5.94986 32.3371H2.57407C2.12262 32.3371 1.75732 31.9719 1.75732 31.5204V28.1446C1.75732 27.6932 2.12262 27.3279 2.57407 27.3279H3.54105C3.80502 23.8858 5.71393 20.9042 8.48486 19.1606ZM38.9811 27.9272L37.9049 29.9807C37.9611 30.008 38.0123 30.0406 38.0592 30.079C38.2451 30.2314 38.3622 30.4566 38.3807 30.6968L38.6674 34.3609C38.7053 34.8394 38.3616 35.2579 37.8846 35.3136L30.9849 36.1201C30.9495 36.1242 30.9142 36.1262 30.8794 36.1262C30.4461 36.1262 30.0715 35.8125 30.0033 35.3735L29.4387 31.7407C29.4009 31.5039 29.463 31.2577 29.6091 31.0658C29.6461 31.0178 29.6882 30.9743 29.7364 30.935L28.2125 29.1807C27.6345 28.5096 27.4931 27.5578 27.8514 26.7554L31.2841 19.0213C31.4791 18.5869 31.8875 18.2792 32.3545 18.2124L32.3723 18.2044L32.3915 18.2056L32.4196 18.2025L32.4308 18.2045C32.9062 18.1655 33.3738 18.3717 33.657 18.7452L38.776 25.4829C39.3125 26.1872 39.3929 27.1466 38.9811 27.9272ZM36.8278 33.647L36.6806 31.7562L31.3376 32.3802L31.6285 34.2546L36.8278 33.647ZM37.361 26.5599L33.6974 21.7378L34.0906 25.1014C34.6185 25.3501 34.9811 25.8476 35.0472 26.4248C35.0995 26.8729 34.9746 27.3145 34.6954 27.6678C34.4162 28.021 34.0156 28.2442 33.5676 28.2962C33.1229 28.3491 32.6819 28.2251 32.3285 27.9463C31.9736 27.6664 31.7491 27.2648 31.6968 26.8155C31.6293 26.2383 31.8681 25.6709 32.3242 25.3077L31.9313 21.9457L29.4754 27.4784C29.3965 27.6562 29.429 27.8683 29.5582 28.0186L31.5721 30.3373C31.6839 30.4651 31.8462 30.5273 32.0143 30.5082L35.5902 30.0888C35.761 30.0689 35.9023 29.9731 35.979 29.8258L37.4073 27.0995C37.498 26.9275 37.4797 26.7157 37.361 26.5599Z" fill="#E7EFFF"/>
</svg>
