<svg width="41" height="41" viewBox="0 0 41 41" fill="none" xmlns="http://www.w3.org/2000/svg">
<path d="M16.9372 26.0865C17.2972 26.4385 17.2972 27.0145 16.9452 27.3665L5.52124 38.8785C5.04924 39.3585 4.27324 39.3585 3.79324 38.8865L1.99324 37.0945C1.52124 36.6225 1.51324 35.8465 1.99324 35.3665L13.4172 23.8705C13.7692 23.5185 14.3452 23.5185 14.6972 23.8705L14.8092 23.9825L16.3452 22.4385C16.6412 22.7985 16.9612 23.1505 17.2972 23.4865C17.6412 23.8225 17.9932 24.1425 18.3612 24.4385L16.8252 25.9825L16.9372 26.0865ZM35.6892 4.9585C30.8012 0.110495 22.9212 0.150495 18.0812 5.0305C13.2332 9.9105 13.2652 17.7905 18.1452 22.6385C23.0252 27.4785 30.9132 27.4545 35.7532 22.5665C40.5932 17.6945 40.5612 9.7985 35.6892 4.9585ZM34.6172 21.4385C32.5692 23.5105 29.8332 24.6465 26.9212 24.6465C24.0332 24.6465 21.3212 23.5345 19.2732 21.5025C15.0252 17.2865 15.0012 10.3985 19.2172 6.1505C21.2652 4.0865 24.0012 2.9505 26.9212 2.9505C29.8012 2.9505 32.5132 4.0625 34.5612 6.0945C36.6172 8.1345 37.7533 10.8545 37.7692 13.7585C37.7772 16.6545 36.6573 19.3825 34.6172 21.4385Z" fill="#E7EFFF"/>
<path d="M33.7135 6.95051C31.8975 5.14251 29.4895 4.15051 26.9215 4.15051C24.3215 4.15051 21.8895 5.15851 20.0655 6.99851C18.2576 8.82251 17.2655 11.2545 17.2735 13.8305C17.2815 16.4145 18.2895 18.8385 20.1215 20.6465C21.9375 22.4545 24.3535 23.4465 26.9215 23.4465C29.5135 23.4465 31.9455 22.4305 33.7615 20.5985C35.5775 18.7665 36.5775 16.3345 36.5695 13.7585C36.5536 11.1825 35.5455 8.75851 33.7135 6.95051ZM19.5455 13.9425L18.3935 13.9665C18.3295 10.9825 19.8015 8.23051 22.3295 6.61451L22.9535 7.58251C20.7615 8.98251 19.4895 11.3585 19.5455 13.9425ZM26.7695 6.42251C25.8495 6.43851 24.9535 6.63051 24.1055 6.98251L23.6655 5.91851C24.6415 5.51059 25.6815 5.29451 26.7535 5.27051H26.8975L26.9135 6.42251H26.7695Z" fill="#E7EFFF"/>
</svg>
