<svg width="500" height="439" viewBox="0 0 500 439" fill="none" xmlns="http://www.w3.org/2000/svg">
<path d="M371.826 33.751C406.223 58.2206 428.165 95.1908 445.364 131.629C462.265 167.801 474.126 203.442 479.76 242.008C485.691 280.574 485.098 322.066 464.044 352.387C443.288 382.442 401.775 401.06 361.744 414.625C321.417 428.189 282.869 436.7 243.135 438.03C203.401 439.626 162.778 434.041 126.009 418.88C89.2401 403.454 56.3261 378.452 36.7556 346.801C17.1851 315.151 10.6616 277.116 6.21377 236.689C1.76594 196.261 -0.902765 153.439 18.0747 121.256C37.3486 89.0734 78.5652 67.5296 119.782 46.5177C161.295 25.5059 202.512 5.29191 246.693 1.03634C290.875 -2.95325 337.429 9.28152 371.826 33.751Z" fill="#F9EFDD"/>
<path d="M414.916 216.404C414.916 307.484 341.08 381.319 250.001 381.319C158.92 381.319 85.084 307.484 85.084 216.404C85.084 125.323 158.92 51.4878 250.001 51.4878C341.08 51.4878 414.916 125.323 414.916 216.404Z" fill="#B5C4FC"/>
<path d="M427.241 216.404C427.241 314.291 347.886 393.644 250.001 393.644C152.113 393.644 72.7622 314.291 72.7622 216.404C72.7622 118.517 152.113 39.1644 250.001 39.1644C347.886 39.1644 427.241 118.517 427.241 216.404Z" stroke="#7FADF7" stroke-width="1.88" stroke-miterlimit="10"/>
<path d="M124.782 116.797C111.994 116.797 101.589 106.393 101.589 93.6044C101.589 80.815 111.994 70.4114 124.782 70.4114C137.571 70.4114 147.973 80.815 147.973 93.6044C147.973 106.393 137.571 116.797 124.782 116.797Z" fill="#7FADF7"/>
<path d="M124.782 71.4523C137.017 71.4523 146.932 81.3698 146.932 93.6044C146.932 105.839 137.017 115.757 124.782 115.757C112.548 115.757 102.63 105.839 102.63 93.6044C102.63 81.3698 112.548 71.4523 124.782 71.4523ZM124.782 69.3705C111.419 69.3705 100.548 80.2415 100.548 93.6044C100.548 106.967 111.419 117.838 124.782 117.838C138.145 117.838 149.014 106.967 149.014 93.6044C149.014 80.2415 138.145 69.3705 124.782 69.3705Z" fill="white"/>
<path d="M115.454 97.7523L116.795 96.14C117.484 97.082 118.317 97.5889 119.313 97.5889C120.618 97.5889 121.287 96.8114 121.287 95.2532V88.6945H116.777V86.7179H123.642V95.1251C123.642 98.1146 122.156 99.5833 119.367 99.5833C117.773 99.5833 116.324 98.9296 115.454 97.7523Z" fill="white"/>
<path d="M125.624 98.4404L126.493 96.7208C127.346 97.2819 128.65 97.6816 129.864 97.6816C131.295 97.6816 131.892 97.2808 131.892 96.6105C131.892 94.7629 125.913 96.5033 125.913 92.6437C125.913 90.8138 127.562 89.6178 130.172 89.6178C131.457 89.6178 132.925 89.9249 133.796 90.4505L132.925 92.1732C132.002 91.6298 131.077 91.4466 130.154 91.4466C128.777 91.4466 128.124 91.9005 128.124 92.5354C128.124 94.4923 134.103 92.753 134.103 96.5387C134.103 98.3508 132.437 99.527 129.718 99.527C128.105 99.527 126.493 99.0566 125.624 98.4404Z" fill="white"/>
<path d="M400.214 166.675C386.564 166.675 375.459 155.57 375.459 141.92C375.459 128.271 386.564 117.166 400.214 117.166C413.863 117.166 424.968 128.271 424.968 141.92C424.968 155.57 413.863 166.675 400.214 166.675Z" fill="#3C84F7"/>
<path d="M400.214 118.197C413.315 118.197 423.937 128.819 423.937 141.92C423.937 155.022 413.315 165.644 400.214 165.644C387.112 165.644 376.49 155.022 376.49 141.92C376.49 128.819 387.112 118.197 400.214 118.197ZM400.214 116.134C385.995 116.134 374.428 127.702 374.428 141.92C374.428 156.139 385.995 167.706 400.214 167.706C414.432 167.706 425.999 156.139 425.999 141.92C425.999 127.702 414.432 116.134 400.214 116.134Z" fill="white"/>
<path d="M386.556 141.806C386.556 138.415 389.151 135.967 392.638 135.967C394.487 135.967 396.076 136.631 397.132 137.864L395.769 139.146C394.942 138.254 393.92 137.816 392.736 137.816C390.384 137.816 388.68 139.469 388.68 141.806C388.68 144.141 390.384 145.797 392.736 145.797C393.92 145.797 394.942 145.359 395.769 144.451L397.132 145.749C396.076 146.982 394.487 147.646 392.622 147.646C389.151 147.646 386.556 145.196 386.556 141.806Z" fill="white"/>
<path d="M405.794 142.495H403.359V144.901H401.887V142.495H399.453V141.119H401.887V138.712H403.359V141.119H405.794V142.495Z" fill="white"/>
<path d="M413.873 142.495H411.438V144.901H409.966V142.495H407.532V141.119H409.966V138.712H411.438V141.119H413.873V142.495Z" fill="white"/>
<path d="M341.57 96.9624C326.686 96.9624 314.577 84.854 314.577 69.9696C314.577 55.0844 326.686 42.9753 341.57 42.9753C356.455 42.9753 368.564 55.0844 368.564 69.9696C368.564 84.854 356.455 96.9624 341.57 96.9624Z" fill="#7FADF7"/>
<path d="M341.571 43.7322C356.061 43.7322 367.806 55.4791 367.806 69.9696C367.806 84.4593 356.061 96.2054 341.571 96.2054C327.081 96.2054 315.335 84.4593 315.335 69.9696C315.335 55.4791 327.081 43.7322 341.571 43.7322ZM341.571 42.2169C326.269 42.2169 313.819 54.6669 313.819 69.9696C313.819 85.2715 326.269 97.7208 341.571 97.7208C356.873 97.7208 369.322 85.2715 369.322 69.9696C369.322 54.6669 356.873 42.2169 341.571 42.2169Z" fill="white"/>
<path d="M332.448 66.3926V74.5421H330.935V71.0492H326.72V74.5421H325.207V66.3926H326.72V69.7566H330.935V66.3926H332.448Z" fill="white"/>
<path d="M336.287 67.6731H333.586V66.3934H340.502V67.6731H337.8V74.5414H336.287V67.6731Z" fill="white"/>
<path d="M349.126 74.5421L349.113 69.1406L346.436 73.6109H345.762L343.083 69.2096V74.5421H341.64V66.3926H342.885L346.123 71.7948L349.3 66.3926H350.547L350.558 74.5421H349.126Z" fill="white"/>
<path d="M352.754 66.3926H354.267V73.2616H358.527V74.5421H352.754V66.3926Z" fill="white"/>
<path d="M267.532 83.9294C246.295 83.9294 229.016 66.6504 229.016 45.4134C229.016 24.1764 246.295 6.89734 267.532 6.89734C288.769 6.89734 306.048 24.1764 306.048 45.4134C306.048 66.6504 288.769 83.9294 267.532 83.9294Z" fill="#F0C67B"/>
<path d="M267.532 8.5017C287.917 8.5017 304.444 25.0283 304.444 45.4134C304.444 65.7985 287.917 82.325 267.532 82.325C247.145 82.325 230.62 65.7985 230.62 45.4134C230.62 25.0283 247.145 8.5017 267.532 8.5017ZM267.532 5.29297C245.409 5.29297 227.412 23.2908 227.412 45.4134C227.412 67.536 245.409 85.5338 267.532 85.5338C289.655 85.5338 307.652 67.536 307.652 45.4134C307.652 23.2908 289.655 5.29297 267.532 5.29297Z" fill="white"/>
<path d="M245.382 45.2369C245.382 40.3709 249.106 36.8557 254.113 36.8557C256.768 36.8557 259.048 37.8103 260.562 39.5799L258.605 41.4185C257.419 40.1382 255.953 39.5093 254.252 39.5093C250.878 39.5093 248.432 41.8838 248.432 45.2369C248.432 48.5884 250.878 50.9629 254.252 50.9629C255.953 50.9629 257.419 50.3356 258.605 49.0329L260.562 50.8939C259.048 52.6635 256.768 53.6181 254.09 53.6181C249.106 53.6181 245.382 50.103 245.382 45.2369Z" fill="white"/>
<path d="M262.016 51.6624L263.064 49.312C264.367 50.3597 266.439 51.1041 268.44 51.1041C270.98 51.1041 272.05 50.196 272.05 48.9863C272.05 45.4712 262.363 47.775 262.363 41.7218C262.363 39.0922 264.458 36.8557 268.931 36.8557C270.885 36.8557 272.934 37.3675 274.352 38.298L273.399 40.65C271.933 39.7885 270.327 39.3698 268.907 39.3698C266.394 39.3698 265.366 40.3484 265.366 41.5822C265.366 45.0508 275.028 42.7919 275.028 48.7762C275.028 51.3833 272.91 53.6181 268.44 53.6181C265.905 53.6181 263.365 52.8272 262.016 51.6624Z" fill="white"/>
<path d="M276.665 51.6624L277.711 49.312C279.017 50.3597 281.088 51.1041 283.091 51.1041C285.629 51.1041 286.7 50.196 286.7 48.9863C286.7 45.4712 277.015 47.775 277.015 41.7218C277.015 39.0922 279.108 36.8557 283.58 36.8557C285.536 36.8557 287.586 37.3675 289.004 38.298L288.05 40.65C286.585 39.7885 284.977 39.3698 283.557 39.3698C281.043 39.3698 280.018 40.3484 280.018 41.5822C280.018 45.0508 289.68 42.7919 289.68 48.7762C289.68 51.3833 287.56 53.6181 283.091 53.6181C280.554 53.6181 278.016 52.8272 276.665 51.6624Z" fill="white"/>
<path d="M185.296 83.8821C169.16 83.8821 156.031 70.7536 156.031 54.6174C156.031 38.4798 169.16 25.3526 185.296 25.3526C201.432 25.3526 214.561 38.4798 214.561 54.6174C214.561 70.7536 201.432 83.8821 185.296 83.8821Z" fill="#3C84F7"/>
<path d="M185.296 26.666C200.733 26.666 213.247 39.1799 213.247 54.6174C213.247 70.0549 200.733 82.5688 185.296 82.5688C169.858 82.5688 157.345 70.0549 157.345 54.6174C157.345 39.1799 169.858 26.666 185.296 26.666ZM185.296 24.0392C168.435 24.0392 154.718 37.7562 154.718 54.6174C154.718 71.4786 168.435 85.1955 185.296 85.1955C202.157 85.1955 215.874 71.4786 215.874 54.6174C215.874 37.7562 202.157 24.0392 185.296 24.0392Z" fill="white"/>
<path d="M178.721 53.2054C178.721 55.3581 177.128 56.6859 174.555 56.6859H172.347V59.5097H170.528V49.725H174.555C177.128 49.725 178.721 51.0397 178.721 53.2054ZM176.889 53.2054C176.889 51.9761 176.065 51.2629 174.471 51.2629H172.347V55.1492H174.471C176.065 55.1492 176.889 54.4361 176.889 53.2054Z" fill="white"/>
<path d="M189.236 49.725V59.5097H187.418V55.316H182.359V59.5097H180.542V49.725H182.359V53.7649H187.418V49.725H189.236Z" fill="white"/>
<path d="M200.063 53.2054C200.063 55.3581 198.47 56.6859 195.897 56.6859H193.689V59.5097H191.87V49.725H195.897C198.47 49.725 200.063 51.0397 200.063 53.2054ZM198.231 53.2054C198.231 51.9761 197.407 51.2629 195.813 51.2629H193.689V55.1492H195.813C197.407 55.1492 198.231 54.4361 198.231 53.2054Z" fill="white"/>
<path d="M73.0866 115.196C73.0866 117.177 71.4814 118.782 69.5005 118.782C67.5195 118.782 65.9121 117.177 65.9121 115.196C65.9121 113.215 67.5195 111.61 69.5005 111.61C71.4814 111.61 73.0866 113.215 73.0866 115.196Z" fill="#7FADF7"/>
<path d="M96.4053 384.275C96.4053 385.467 95.4383 386.434 94.2468 386.434C93.0541 386.434 92.0859 385.467 92.0859 384.275C92.0859 383.082 93.0541 382.115 94.2468 382.115C95.4383 382.115 96.4053 383.082 96.4053 384.275Z" fill="#7FADF7"/>
<path d="M15.969 350.654C15.969 351.846 15.002 352.815 13.8093 352.815C12.6166 352.815 11.6497 351.846 11.6497 350.654C11.6497 349.462 12.6166 348.495 13.8093 348.495C15.002 348.495 15.969 349.462 15.969 350.654Z" fill="#B5C4FC"/>
<path d="M374.383 385.703C374.383 387.684 372.778 389.289 370.797 389.289C368.816 389.289 367.209 387.684 367.209 385.703C367.209 383.722 368.816 382.115 370.797 382.115C372.778 382.115 374.383 383.722 374.383 385.703Z" fill="#7FADF7"/>
<path d="M380.199 55.9319C380.199 58.5098 378.111 60.5984 375.533 60.5984C372.956 60.5984 370.866 58.5098 370.866 55.9319C370.866 53.3541 372.956 51.2654 375.533 51.2654C378.111 51.2654 380.199 53.3541 380.199 55.9319Z" stroke="#7FADF7" stroke-width="1.88" stroke-miterlimit="10"/>
<path d="M125.578 61.9618C125.578 63.4387 124.381 64.6348 122.905 64.6348C121.428 64.6348 120.23 63.4387 120.23 61.9618C120.23 60.485 121.428 59.2889 122.905 59.2889C124.381 59.2889 125.578 60.485 125.578 61.9618Z" fill="white"/>
<path d="M435.671 122.181C435.671 123.14 434.892 123.919 433.932 123.919C432.973 123.919 432.195 123.14 432.195 122.181C432.195 121.221 432.973 120.443 433.932 120.443C434.892 120.443 435.671 121.221 435.671 122.181Z" fill="white"/>
<path d="M127.317 383.853C127.317 384.813 126.538 385.591 125.578 385.591C124.619 385.591 123.841 384.813 123.841 383.853C123.841 382.894 124.619 382.115 125.578 382.115C126.538 382.115 127.317 382.894 127.317 383.853Z" fill="white"/>
<path d="M375.179 36.1867C375.179 37.1468 374.4 37.9248 373.44 37.9248C372.481 37.9248 371.703 37.1468 371.703 36.1867C371.703 35.2278 372.481 34.4487 373.44 34.4487C374.4 34.4487 375.179 35.2278 375.179 36.1867Z" fill="white"/>
<path d="M357.026 393.643C357.026 394.602 356.247 395.382 355.287 395.382C354.328 395.382 353.55 394.602 353.55 393.643C353.55 392.683 354.328 391.904 355.287 391.904C356.247 391.904 357.026 392.683 357.026 393.643Z" fill="white"/>
<path d="M27.6106 335.907C27.6106 336.867 26.8315 337.645 25.8726 337.645C24.9136 337.645 24.1345 336.867 24.1345 335.907C24.1345 334.948 24.9136 334.169 25.8726 334.169C26.8315 334.169 27.6106 334.948 27.6106 335.907Z" fill="white"/>
<path d="M145.4 388.977C145.4 391.553 143.311 393.643 140.734 393.643C138.156 393.643 136.067 391.553 136.067 388.977C136.067 386.399 138.156 384.31 140.734 384.31C143.311 384.31 145.4 386.399 145.4 388.977Z" stroke="#B5C4FC" stroke-width="1.88" stroke-miterlimit="10"/>
<path d="M424.984 115.196C424.984 116.766 423.711 118.039 422.141 118.039C420.571 118.039 419.299 116.766 419.299 115.196C419.299 113.627 420.571 112.354 422.141 112.354C423.711 112.354 424.984 113.627 424.984 115.196Z" stroke="#B5C4FC" stroke-width="1.88" stroke-miterlimit="10"/>
<path d="M72.3413 84.2461C72.3413 85.8157 71.0695 87.0886 69.4999 87.0886C67.9291 87.0886 66.6562 85.8157 66.6562 84.2461C66.6562 82.6765 67.9291 81.4036 69.4999 81.4036C71.0695 81.4036 72.3413 82.6765 72.3413 84.2461Z" stroke="#B5C4FC" stroke-width="1.88" stroke-miterlimit="10"/>
<path d="M486.19 374.528H13.8093L64.0455 326.781H435.954L486.19 374.528Z" fill="#4D4D4D"/>
<path d="M486.191 374.528V366.219L469.017 365.009L470.224 369.77L486.191 374.528Z" fill="#4D4D4D"/>
<path d="M13.8103 374.528V366.219L30.9846 365.009L29.777 369.77L13.8103 374.528Z" fill="#4D4D4D"/>
<path d="M486.19 366.219H13.8093L65.0836 319.511H436.993L486.19 366.219Z" fill="#858585"/>
<path d="M335.948 359.636H165.543L181.245 342.265H320.246L335.948 359.636Z" fill="#CABEDD"/>
<path d="M335.948 359.636V357.22L331.329 356.46V358.297L335.948 359.636Z" fill="#CABEDD"/>
<path d="M165.543 359.637V357.22L170.607 355.703V357.669L167.602 358.744L165.543 359.637Z" fill="#CABEDD"/>
<path d="M335.948 357.22H165.543L181.245 339.848H320.246L335.948 357.22Z" fill="white"/>
<path d="M192.282 342.726H180.881L182.689 340.659H193.795L192.282 342.726Z" fill="#E0DAEA"/>
<path d="M206.478 342.726H195.076L196.517 340.659H207.624L206.478 342.726Z" fill="#E0DAEA"/>
<path d="M220.676 342.726H209.273L210.347 340.659H221.455L220.676 342.726Z" fill="#E0DAEA"/>
<path d="M234.873 342.726H223.471L224.177 340.659H235.284L234.873 342.726Z" fill="#E0DAEA"/>
<path d="M249.069 342.726H237.667L238.006 340.659H249.112L249.069 342.726Z" fill="#E0DAEA"/>
<path d="M263.266 342.726H251.864L251.834 340.659H262.942L263.266 342.726Z" fill="#E0DAEA"/>
<path d="M277.463 342.726H266.06L265.664 340.659H276.771L277.463 342.726Z" fill="#E0DAEA"/>
<path d="M291.66 342.726H280.257L279.493 340.659H290.599L291.66 342.726Z" fill="#E0DAEA"/>
<path d="M305.855 342.726H294.452L293.321 340.659H304.428L305.855 342.726Z" fill="#E0DAEA"/>
<path d="M320.053 342.726H308.65L307.15 340.659H318.258L320.053 342.726Z" fill="#E0DAEA"/>
<path d="M190.164 345.617H178.347L180.288 343.401H191.788L190.164 345.617Z" fill="#E0DAEA"/>
<path d="M204.874 345.617H193.059L194.604 343.401H206.104L204.874 345.617Z" fill="#E0DAEA"/>
<path d="M219.585 345.617H207.77L208.921 343.401H220.421L219.585 345.617Z" fill="#E0DAEA"/>
<path d="M234.296 345.617H222.479L223.238 343.401H234.739L234.296 345.617Z" fill="#E0DAEA"/>
<path d="M249.009 345.617H237.193L237.557 343.401H249.054L249.009 345.617Z" fill="#E0DAEA"/>
<path d="M263.72 345.617H251.904L251.873 343.401H263.371L263.72 345.617Z" fill="#E0DAEA"/>
<path d="M278.432 345.617H266.615L266.189 343.401H277.69L278.432 345.617Z" fill="#E0DAEA"/>
<path d="M293.142 345.617H281.326L280.507 343.401H292.005L293.142 345.617Z" fill="#E0DAEA"/>
<path d="M307.854 345.617H296.037L294.823 343.401H306.322L307.854 345.617Z" fill="#E0DAEA"/>
<path d="M322.565 345.617H310.748L309.14 343.401H320.638L322.565 345.617Z" fill="#E0DAEA"/>
<path d="M187.883 348.727H175.623L177.712 346.343H189.631L187.883 348.727Z" fill="#E0DAEA"/>
<path d="M203.148 348.727H190.889L192.552 346.343H204.47L203.148 348.727Z" fill="#E0DAEA"/>
<path d="M218.412 348.727H206.153L207.392 346.343H219.311L218.412 348.727Z" fill="#E0DAEA"/>
<path d="M233.678 348.727H221.418L222.233 346.343H234.152L233.678 348.727Z" fill="#E0DAEA"/>
<path d="M248.942 348.727H236.683L237.074 346.343H248.993L248.942 348.727Z" fill="#E0DAEA"/>
<path d="M264.206 348.726H251.947L251.913 346.343H263.833L264.206 348.726Z" fill="#E0DAEA"/>
<path d="M279.473 348.727H267.212L266.753 346.343H278.673L279.473 348.727Z" fill="#E0DAEA"/>
<path d="M294.738 348.727H282.477L281.595 346.343H293.515L294.738 348.727Z" fill="#E0DAEA"/>
<path d="M310.002 348.727H297.741L296.435 346.343H308.355L310.002 348.727Z" fill="#E0DAEA"/>
<path d="M325.268 348.727H313.006L311.276 346.343H323.196L325.268 348.727Z" fill="#E0DAEA"/>
<path d="M185.428 352.079H172.688L174.941 349.508H187.312L185.428 352.079Z" fill="#E0DAEA"/>
<path d="M201.289 352.079H188.549L190.342 349.508H202.715L201.289 352.079Z" fill="#E0DAEA"/>
<path d="M217.15 352.079H204.411L205.747 349.508H218.118L217.15 352.079Z" fill="#E0DAEA"/>
<path d="M233.011 352.079H220.273L221.151 349.508H233.522L233.011 352.079Z" fill="#E0DAEA"/>
<path d="M248.871 352.079H236.133L236.555 349.508H248.926L248.871 352.079Z" fill="#E0DAEA"/>
<path d="M264.734 352.079H251.995L251.959 349.508H264.329L264.734 352.079Z" fill="#E0DAEA"/>
<path d="M280.595 352.079H267.856L267.362 349.508H279.734L280.595 352.079Z" fill="#E0DAEA"/>
<path d="M296.456 352.079H283.718L282.767 349.508H295.139L296.456 352.079Z" fill="#E0DAEA"/>
<path d="M312.317 352.079H299.579L298.169 349.508H310.541L312.317 352.079Z" fill="#E0DAEA"/>
<path d="M328.179 352.079H315.44L313.573 349.508H325.946L328.179 352.079Z" fill="#E0DAEA"/>
<path d="M182.772 355.704H169.514L171.949 352.922H184.809L182.772 355.704Z" fill="#E0DAEA"/>
<path d="M199.277 355.704H186.02L187.959 352.922H200.82L199.277 355.704Z" fill="#E0DAEA"/>
<path d="M298.316 355.704H202.527L203.972 352.922H296.889L298.316 355.704Z" fill="#E0DAEA"/>
<path d="M314.822 355.704H301.564L300.04 352.922H312.9L314.822 355.704Z" fill="#E0DAEA"/>
<path d="M331.33 355.704H318.071L316.053 352.922H328.912L331.33 355.704Z" fill="#E0DAEA"/>
<path d="M319.132 329.3C319.132 332.95 286.42 335.907 246.069 335.907C205.716 335.907 173.005 332.95 173.005 329.3C173.005 325.651 205.716 322.693 246.069 322.693C286.42 322.693 319.132 325.651 319.132 329.3Z" fill="#4B4B4B"/>
<path d="M149.616 334.289C149.616 337.939 125.464 344.736 95.6732 349.472C65.8835 354.209 41.7329 355.09 41.7329 351.442C41.7329 347.793 65.8835 340.995 95.6732 336.259C125.464 331.523 149.616 330.64 149.616 334.289Z" fill="#474747"/>
<path d="M350.386 334.289C350.386 337.939 374.534 344.736 404.325 349.472C434.116 354.209 458.267 355.09 458.267 351.442C458.267 347.793 434.116 340.995 404.325 336.259C374.534 331.523 350.386 330.64 350.386 334.289Z" fill="#585858"/>
<path d="M260.051 328.545H239.948V284.297H260.051V328.545Z" fill="#E7E2FF"/>
<path d="M260.051 316.958H239.948V284.298H260.051V316.958Z" fill="#CFC9FF"/>
<path d="M289.062 329.3H210.938V326.277H289.062V329.3Z" fill="#B5ABEE"/>
<path d="M283.809 322.539H216.191L210.938 326.279H289.062L283.809 322.539Z" fill="#E7E2FF"/>
<path d="M340.496 311.923H159.503V143.697H340.496V311.923Z" fill="#7FADF7"/>
<path d="M337.84 308.895H162.16V146.728H337.84V308.895Z" fill="#B5C4FC"/>
<path d="M210.621 212.808H290.997" stroke="#F5A623" stroke-width="1.38556" stroke-miterlimit="10" stroke-linecap="round"/>
<path d="M297.63 212.808H313.504" stroke="#F5A623" stroke-width="1.38556" stroke-miterlimit="10" stroke-linecap="round"/>
<path d="M210.621 258.503H290.997" stroke="#F5A623" stroke-width="1.38556" stroke-miterlimit="10" stroke-linecap="round"/>
<path d="M297.63 258.503H324.355" stroke="#F5A623" stroke-width="1.38556" stroke-miterlimit="10" stroke-linecap="round"/>
<path d="M228.505 162.178H290.998" stroke="#F5A623" stroke-width="1.38556" stroke-miterlimit="10" stroke-linecap="round"/>
<path d="M297.63 162.178H307.476" stroke="#F5A623" stroke-width="1.38556" stroke-miterlimit="10" stroke-linecap="round"/>
<path d="M228.505 166.199H290.998" stroke="#F5A623" stroke-width="1.38556" stroke-miterlimit="10" stroke-linecap="round"/>
<path d="M297.63 166.199H314.709" stroke="#F5A623" stroke-width="1.38556" stroke-miterlimit="10" stroke-linecap="round"/>
<path d="M228.505 170.221H290.998" stroke="#F5A623" stroke-width="1.38556" stroke-miterlimit="10" stroke-linecap="round"/>
<path d="M297.63 170.221H307.476" stroke="#F5A623" stroke-width="1.38556" stroke-miterlimit="10" stroke-linecap="round"/>
<path d="M228.505 174.242H290.998" stroke="#F5A623" stroke-width="1.38556" stroke-miterlimit="10" stroke-linecap="round"/>
<path d="M297.63 174.242H314.709" stroke="#F5A623" stroke-width="1.38556" stroke-miterlimit="10" stroke-linecap="round"/>
<path d="M252.016 183.198H290.997" stroke="#F5A623" stroke-width="1.38556" stroke-miterlimit="10" stroke-linecap="round"/>
<path d="M297.63 183.198H318.326" stroke="#F5A623" stroke-width="1.38556" stroke-miterlimit="10" stroke-linecap="round"/>
<path d="M252.016 188.133H290.997" stroke="#F5A623" stroke-width="1.38556" stroke-miterlimit="10" stroke-linecap="round"/>
<path d="M297.63 188.133H318.326" stroke="#F5A623" stroke-width="1.38556" stroke-miterlimit="10" stroke-linecap="round"/>
<path d="M252.016 193.067H282.96" stroke="#F5A623" stroke-width="1.38556" stroke-miterlimit="10" stroke-linecap="round"/>
<path d="M289.591 193.067H318.326" stroke="#E7EFFF" stroke-width="1.38556" stroke-miterlimit="10" stroke-linecap="round"/>
<path d="M252.016 198.003H290.997" stroke="#F5A623" stroke-width="1.38556" stroke-miterlimit="10" stroke-linecap="round"/>
<path d="M297.63 198.003H318.326" stroke="#E7EFFF" stroke-width="1.38556" stroke-miterlimit="10" stroke-linecap="round"/>
<path d="M252.016 202.938H282.96" stroke="#F5A623" stroke-width="1.38556" stroke-miterlimit="10" stroke-linecap="round"/>
<path d="M289.591 202.938H318.326" stroke="#F5A623" stroke-width="1.38556" stroke-miterlimit="10" stroke-linecap="round"/>
<path d="M252.016 207.873H290.997" stroke="#F5A623" stroke-width="1.38556" stroke-miterlimit="10" stroke-linecap="round"/>
<path d="M297.63 207.873H318.326" stroke="#F5A623" stroke-width="1.38556" stroke-miterlimit="10" stroke-linecap="round"/>
<path d="M261.861 219.389H300.843" stroke="#F5A623" stroke-width="1.38556" stroke-miterlimit="10" stroke-linecap="round"/>
<path d="M307.476 219.389H328.172" stroke="#F5A623" stroke-width="1.38556" stroke-miterlimit="10" stroke-linecap="round"/>
<path d="M261.861 224.324H289.591" stroke="#F5A623" stroke-width="1.38556" stroke-miterlimit="10" stroke-linecap="round"/>
<path d="M296.223 224.324H328.173" stroke="#E7EFFF" stroke-width="1.38556" stroke-miterlimit="10" stroke-linecap="round"/>
<path d="M277.737 235.656H289.593" stroke="#F5A623" stroke-width="1.38556" stroke-miterlimit="10" stroke-linecap="round"/>
<path d="M296.223 235.656H318.326" stroke="#E7EFFF" stroke-width="1.38556" stroke-miterlimit="10" stroke-linecap="round"/>
<path d="M281.353 240.225H289.591" stroke="#F5A623" stroke-width="1.38556" stroke-miterlimit="10" stroke-linecap="round"/>
<path d="M296.223 240.225H324.355" stroke="#F5A623" stroke-width="1.38556" stroke-miterlimit="10" stroke-linecap="round"/>
<path d="M277.737 244.794H289.593" stroke="#F5A623" stroke-width="1.38556" stroke-miterlimit="10" stroke-linecap="round"/>
<path d="M296.223 244.794H318.326" stroke="#F5A623" stroke-width="1.38556" stroke-miterlimit="10" stroke-linecap="round"/>
<path d="M290.968 230.897H210.592" stroke="#F5A623" stroke-width="1.38556" stroke-miterlimit="10" stroke-linecap="round"/>
<path d="M203.961 230.897H188.087" stroke="#F5A623" stroke-width="1.38556" stroke-miterlimit="10" stroke-linecap="round"/>
<path d="M290.968 185.202H210.592" stroke="#F5A623" stroke-width="1.38556" stroke-miterlimit="10" stroke-linecap="round"/>
<path d="M203.961 185.202H177.236" stroke="#F5A623" stroke-width="1.38556" stroke-miterlimit="10" stroke-linecap="round"/>
<path d="M261.396 281.527C243.307 281.527 210.592 281.527 210.592 281.527" stroke="#F5A623" stroke-width="1.38556" stroke-miterlimit="10" stroke-linecap="round"/>
<path d="M249.575 260.506C249.575 260.506 248.955 260.506 247.871 260.506" stroke="#F5A623" stroke-width="1.38556" stroke-miterlimit="10" stroke-linecap="round"/>
<path d="M203.962 260.506H183.266" stroke="#E7EFFF" stroke-width="1.38556" stroke-miterlimit="10" stroke-linecap="round"/>
<path d="M249.575 255.573H210.592" stroke="#F5A623" stroke-width="1.38556" stroke-miterlimit="10" stroke-linecap="round"/>
<path d="M203.962 255.573H183.266" stroke="#F5A623" stroke-width="1.38556" stroke-miterlimit="10" stroke-linecap="round"/>
<path d="M249.575 250.637H218.629" stroke="#F5A623" stroke-width="1.38556" stroke-miterlimit="10" stroke-linecap="round"/>
<path d="M212 250.637H183.266" stroke="#E7EFFF" stroke-width="1.38556" stroke-miterlimit="10" stroke-linecap="round"/>
<path d="M249.575 245.702H210.592" stroke="#F5A623" stroke-width="1.38556" stroke-miterlimit="10" stroke-linecap="round"/>
<path d="M203.962 245.702H183.266" stroke="#F5A623" stroke-width="1.38556" stroke-miterlimit="10" stroke-linecap="round"/>
<path d="M249.575 240.767H218.629" stroke="#F5A623" stroke-width="1.38556" stroke-miterlimit="10" stroke-linecap="round"/>
<path d="M212 240.767H183.266" stroke="#F5A623" stroke-width="1.38556" stroke-miterlimit="10" stroke-linecap="round"/>
<path d="M249.575 235.831H210.592" stroke="#F5A623" stroke-width="1.38556" stroke-miterlimit="10" stroke-linecap="round"/>
<path d="M203.962 235.831H183.266" stroke="#F5A623" stroke-width="1.38556" stroke-miterlimit="10" stroke-linecap="round"/>
<path d="M239.73 224.317H200.747" stroke="#F5A623" stroke-width="1.38556" stroke-miterlimit="10" stroke-linecap="round"/>
<path d="M194.115 224.317H173.419" stroke="#E7EFFF" stroke-width="1.38556" stroke-miterlimit="10" stroke-linecap="round"/>
<path d="M239.729 219.382H212" stroke="#F5A623" stroke-width="1.38556" stroke-miterlimit="10" stroke-linecap="round"/>
<path d="M205.369 219.382H173.418" stroke="#F5A623" stroke-width="1.38556" stroke-miterlimit="10" stroke-linecap="round"/>
<path d="M223.855 208.049H211.999" stroke="#F5A623" stroke-width="1.38556" stroke-miterlimit="10" stroke-linecap="round"/>
<path d="M205.368 208.049H183.264" stroke="#F5A623" stroke-width="1.38556" stroke-miterlimit="10" stroke-linecap="round"/>
<path d="M220.237 203.48H212" stroke="#F5A623" stroke-width="1.38556" stroke-miterlimit="10" stroke-linecap="round"/>
<path d="M205.368 203.48H177.236" stroke="#F5A623" stroke-width="1.38556" stroke-miterlimit="10" stroke-linecap="round"/>
<path d="M223.855 198.91H211.999" stroke="#F5A623" stroke-width="1.38556" stroke-miterlimit="10" stroke-linecap="round"/>
<path d="M205.368 198.91H183.264" stroke="#E7EFFF" stroke-width="1.38556" stroke-miterlimit="10" stroke-linecap="round"/>
<path d="M131.844 339.859L67.5433 350.953L61.2935 346.999L125.593 335.907L131.844 339.859Z" fill="#B5ABEE"/>
<path d="M131.845 339.86V337.336L127.163 336.93L126.559 339.872L131.845 339.86Z" fill="#B5ABEE"/>
<path d="M61.2944 344.477V347.001L64.0831 347.206L66.1225 346.979L65.5565 345.468L61.2944 344.477Z" fill="#B5ABEE"/>
<path d="M131.845 337.335L67.5455 348.428L61.2944 344.475L125.595 333.384L131.845 337.335Z" fill="#E7E2FF"/>
<path d="M103.933 337.667L83.8306 341.208V270.128H103.933V337.667Z" fill="#B5ABEE"/>
<path d="M83.8306 341.208L87.341 343.083L89.6164 340.175L88.4833 336.66L84.856 339.462L83.8306 341.208Z" fill="#B5ABEE"/>
<path d="M107.445 339.689L87.3423 343.083V271.262H107.445V339.689Z" fill="#E7E2FF"/>
<path d="M107.445 321.042L87.3423 323.445V269.035H107.445V321.042Z" fill="#CFC9FF"/>
<path d="M5.64265 326.014L155.717 311.923V143.697L5.64265 129.607C2.61567 129.322 0 131.704 0 134.745V320.877C0 323.917 2.61567 326.298 5.64265 326.014Z" fill="#2665CB"/>
<path d="M9.4305 326.014L159.504 311.923V143.697L9.4305 129.607C6.40236 129.322 3.78784 131.704 3.78784 134.745V320.877C3.78784 323.917 6.40236 326.298 9.4305 326.014Z" fill="#7FADF7"/>
<path d="M12.9089 322.374L157.22 308.892V146.727L12.9089 133.246C9.88194 132.963 7.26855 135.345 7.26855 138.385V317.237C7.26855 320.275 9.88194 322.657 12.9089 322.374Z" fill="#B5C4FC"/>
<path d="M138.348 179.088L59.2268 174.224" stroke="#F5A623" stroke-width="1.38556" stroke-miterlimit="10" stroke-linecap="round"/>
<path d="M52.0306 173.782L21.8433 171.928" stroke="#F5A623" stroke-width="1.38556" stroke-miterlimit="10" stroke-linecap="round"/>
<path d="M138.348 245.223L59.2268 246.581" stroke="#E7EFFF" stroke-width="1.38556" stroke-miterlimit="10" stroke-linecap="round"/>
<path d="M52.0307 246.703L34.334 247.008" stroke="#E7EFFF" stroke-width="1.38556" stroke-miterlimit="10" stroke-linecap="round"/>
<path d="M138.348 264.239L59.2268 267.385" stroke="#F5A623" stroke-width="1.38556" stroke-miterlimit="10" stroke-linecap="round"/>
<path d="M52.0301 267.672L34.3357 268.375" stroke="#F5A623" stroke-width="1.38556" stroke-miterlimit="10" stroke-linecap="round"/>
<path d="M121.942 185.836L59.2275 182.547" stroke="#E7EFFF" stroke-width="1.38556" stroke-miterlimit="10" stroke-linecap="round"/>
<path d="M52.0304 182.169L41.1323 181.599" stroke="#E7EFFF" stroke-width="1.38556" stroke-miterlimit="10" stroke-linecap="round"/>
<path d="M121.944 190.573L59.2275 187.633" stroke="#E7EFFF" stroke-width="1.38556" stroke-miterlimit="10" stroke-linecap="round"/>
<path d="M52.0307 187.294L32.9614 186.4" stroke="#E7EFFF" stroke-width="1.38556" stroke-miterlimit="10" stroke-linecap="round"/>
<path d="M121.944 195.313L59.2275 192.719" stroke="#F5A623" stroke-width="1.38556" stroke-miterlimit="10" stroke-linecap="round"/>
<path d="M52.0304 192.421L41.1323 191.97" stroke="#F5A623" stroke-width="1.38556" stroke-miterlimit="10" stroke-linecap="round"/>
<path d="M121.944 200.053L59.2275 197.805" stroke="#E7EFFF" stroke-width="1.38556" stroke-miterlimit="10" stroke-linecap="round"/>
<path d="M52.0307 197.546L32.9614 196.863" stroke="#E7EFFF" stroke-width="1.38556" stroke-miterlimit="10" stroke-linecap="round"/>
<path d="M121.944 204.791L59.2275 202.89" stroke="#E7EFFF" stroke-width="1.38556" stroke-miterlimit="10" stroke-linecap="round"/>
<path d="M52.0304 202.671L41.1323 202.341" stroke="#E7EFFF" stroke-width="1.38556" stroke-miterlimit="10" stroke-linecap="round"/>
<path d="M87.2758 209.791C75.4543 209.513 59.2275 209.13 59.2275 209.13" stroke="#E7EFFF" stroke-width="1.38556" stroke-miterlimit="10" stroke-linecap="round"/>
<path d="M60.7401 234.091C60.7401 234.091 49.9108 234.131 40.8677 234.164" stroke="#E7EFFF" stroke-width="1.38556" stroke-miterlimit="10" stroke-linecap="round"/>
<path d="M99.378 239.923L59.2275 240.34" stroke="#E7EFFF" stroke-width="1.38556" stroke-miterlimit="10" stroke-linecap="round"/>
<path d="M52.0306 240.413L28.823 240.654" stroke="#E7EFFF" stroke-width="1.38556" stroke-miterlimit="10" stroke-linecap="round"/>
<path d="M89.5724 254.107L48.5007 255.183" stroke="#E7EFFF" stroke-width="1.38556" stroke-miterlimit="10" stroke-linecap="round"/>
<path d="M41.1335 255.376L17.3713 255.999" stroke="#E7EFFF" stroke-width="1.38556" stroke-miterlimit="10" stroke-linecap="round"/>
<path d="M89.5731 260.143L60.74 261.094" stroke="#E7EFFF" stroke-width="1.38556" stroke-miterlimit="10" stroke-linecap="round"/>
<path d="M53.5668 261.33L17.3713 262.524" stroke="#E7EFFF" stroke-width="1.38556" stroke-miterlimit="10" stroke-linecap="round"/>
<path d="M73.2925 274.794L60.74 275.403" stroke="#E7EFFF" stroke-width="1.38556" stroke-miterlimit="10" stroke-linecap="round"/>
<path d="M53.5671 275.75L28.8242 276.953" stroke="#E7EFFF" stroke-width="1.38556" stroke-miterlimit="10" stroke-linecap="round"/>
<path d="M69.5001 280.692L60.74 281.173" stroke="#E7EFFF" stroke-width="1.38556" stroke-miterlimit="10" stroke-linecap="round"/>
<path d="M53.5671 281.566L21.8445 283.307" stroke="#E7EFFF" stroke-width="1.38556" stroke-miterlimit="10" stroke-linecap="round"/>
<path d="M73.2925 286.175L60.74 286.943" stroke="#F5A623" stroke-width="1.38556" stroke-miterlimit="10" stroke-linecap="round"/>
<path d="M53.5671 287.38L28.8242 288.893" stroke="#F5A623" stroke-width="1.38556" stroke-miterlimit="10" stroke-linecap="round"/>
<path d="M368.155 339.859L432.456 350.953L438.706 346.999L374.405 335.907L368.155 339.859Z" fill="#B5ABEE"/>
<path d="M368.155 339.86V337.336L372.835 336.93L373.439 339.872L368.155 339.86Z" fill="#B5ABEE"/>
<path d="M438.704 344.477V347.001L435.918 347.206L433.878 346.979L434.444 345.468L438.704 344.477Z" fill="#B5ABEE"/>
<path d="M368.153 337.335L432.454 348.428L438.704 344.475L374.404 333.384L368.153 337.335Z" fill="#E7E2FF"/>
<path d="M396.067 337.667L416.17 341.208V270.128H396.067V337.667Z" fill="#B5ABEE"/>
<path d="M416.17 341.208L412.658 343.083L410.382 340.175L411.517 336.66L415.143 339.462L416.17 341.208Z" fill="#B5ABEE"/>
<path d="M392.553 339.689L412.656 343.083V271.262H392.553V339.689Z" fill="#E7E2FF"/>
<path d="M392.553 321.042L412.656 323.445V269.035H392.553V321.042Z" fill="#CFC9FF"/>
<path d="M494.357 326.014L344.283 311.923V143.697L494.357 129.607C497.385 129.322 500 131.704 500 134.745V320.877C500 323.917 497.385 326.298 494.357 326.014Z" fill="#2665CB"/>
<path d="M490.57 326.014L340.497 311.923V143.697L490.57 129.607C493.597 129.322 496.213 131.704 496.213 134.745V320.877C496.213 323.917 493.597 326.298 490.57 326.014Z" fill="#7FADF7"/>
<path d="M487.091 322.374L342.781 308.892V146.727L487.091 133.246C490.118 132.963 492.73 135.345 492.73 138.385V317.237C492.73 320.275 490.118 322.657 487.091 322.374Z" fill="#B5C4FC"/>
<path d="M361.651 179.088L440.772 174.224" stroke="#F5A623" stroke-width="1.38556" stroke-miterlimit="10" stroke-linecap="round"/>
<path d="M447.969 173.782L478.154 171.928" stroke="#F5A623" stroke-width="1.38556" stroke-miterlimit="10" stroke-linecap="round"/>
<path d="M361.653 245.223L440.771 246.581" stroke="#E7EFFF" stroke-width="1.38556" stroke-miterlimit="10" stroke-linecap="round"/>
<path d="M447.969 246.703L465.663 247.008" stroke="#E7EFFF" stroke-width="1.38556" stroke-miterlimit="10" stroke-linecap="round"/>
<path d="M361.653 264.239L440.771 267.385" stroke="#F5A623" stroke-width="1.38556" stroke-miterlimit="10" stroke-linecap="round"/>
<path d="M447.969 267.672L465.663 268.375" stroke="#F5A623" stroke-width="1.38556" stroke-miterlimit="10" stroke-linecap="round"/>
<path d="M406.591 184.339C423.152 183.471 440.771 182.547 440.771 182.547" stroke="#E7EFFF" stroke-width="1.38556" stroke-miterlimit="10" stroke-linecap="round"/>
<path d="M439.26 234.091C439.26 234.091 450.088 234.131 459.129 234.164" stroke="#E7EFFF" stroke-width="1.38556" stroke-miterlimit="10" stroke-linecap="round"/>
<path d="M400.622 239.923L440.772 240.34" stroke="#E7EFFF" stroke-width="1.38556" stroke-miterlimit="10" stroke-linecap="round"/>
<path d="M447.969 240.413L471.174 240.654" stroke="#E7EFFF" stroke-width="1.38556" stroke-miterlimit="10" stroke-linecap="round"/>
<path d="M410.428 254.107L451.499 255.183" stroke="#E7EFFF" stroke-width="1.38556" stroke-miterlimit="10" stroke-linecap="round"/>
<path d="M458.865 255.376L482.627 255.999" stroke="#E7EFFF" stroke-width="1.38556" stroke-miterlimit="10" stroke-linecap="round"/>
<path d="M410.428 260.143L439.259 261.094" stroke="#E7EFFF" stroke-width="1.38556" stroke-miterlimit="10" stroke-linecap="round"/>
<path d="M446.433 261.33L482.629 262.524" stroke="#E7EFFF" stroke-width="1.38556" stroke-miterlimit="10" stroke-linecap="round"/>
<path d="M426.707 274.794L439.259 275.403" stroke="#E7EFFF" stroke-width="1.38556" stroke-miterlimit="10" stroke-linecap="round"/>
<path d="M446.433 275.75L471.176 276.953" stroke="#E7EFFF" stroke-width="1.38556" stroke-miterlimit="10" stroke-linecap="round"/>
<path d="M430.5 280.692L439.26 281.173" stroke="#E7EFFF" stroke-width="1.38556" stroke-miterlimit="10" stroke-linecap="round"/>
<path d="M446.433 281.566L478.153 283.307" stroke="#E7EFFF" stroke-width="1.38556" stroke-miterlimit="10" stroke-linecap="round"/>
<path d="M426.707 286.175L439.259 286.943" stroke="#F5A623" stroke-width="1.38556" stroke-miterlimit="10" stroke-linecap="round"/>
<path d="M446.433 287.38L471.176 288.893" stroke="#F5A623" stroke-width="1.38556" stroke-miterlimit="10" stroke-linecap="round"/>
<path d="M298.978 302.744H225.628C220.561 302.744 216.452 298.635 216.452 293.566V143.697H308.155V293.566C308.155 298.635 304.047 302.744 298.978 302.744Z" fill="#7FADF7"/>
<path d="M290.403 296.239H210.106C204.557 296.239 200.059 291.742 200.059 286.193V103.664C200.059 98.115 204.557 93.6169 210.106 93.6169H290.403C295.952 93.6169 300.449 98.115 300.449 103.664V286.193C300.449 291.742 295.952 296.239 290.403 296.239Z" fill="#EDF3FF"/>
<path d="M290.403 296.239H210.106C204.557 296.239 200.059 291.742 200.059 286.193V103.664C200.059 98.115 204.557 93.6169 210.106 93.6169H290.403C295.952 93.6169 300.449 98.115 300.449 103.664V286.193C300.449 291.742 295.952 296.239 290.403 296.239Z" stroke="#3F84F2" stroke-width="3.74684" stroke-miterlimit="10"/>
<path d="M264.961 98.9616H235.547C233.122 98.9616 231.156 96.9956 231.156 94.5701V93.6157H269.352V94.5701C269.352 96.9956 267.386 98.9616 264.961 98.9616Z" fill="#7FADF7"/>
<path d="M277.177 248.905L224.008 249.207C217.783 249.243 212.708 244.225 212.673 238L212.125 141.697C212.09 135.473 217.107 130.398 223.333 130.362L276.501 130.06C282.727 130.025 287.802 135.042 287.837 141.266L288.385 237.569C288.42 243.795 283.402 248.87 277.177 248.905Z" fill="#F5F3FF"/>
<path d="M268.812 140.649H231.697C231.377 140.649 231.118 140.39 231.118 140.071C231.118 139.75 231.377 139.491 231.697 139.491H268.812C269.131 139.491 269.39 139.75 269.39 140.071C269.39 140.39 269.131 140.649 268.812 140.649Z" fill="#B5C4FC"/>
<path d="M268.812 144.086H231.697C231.377 144.086 231.118 143.827 231.118 143.507C231.118 143.187 231.377 142.929 231.697 142.929H268.812C269.131 142.929 269.39 143.187 269.39 143.507C269.39 143.827 269.131 144.086 268.812 144.086Z" fill="#B5C4FC"/>
<path d="M262.772 147.523H237.741C237.479 147.523 237.265 147.31 237.265 147.046V146.842C237.265 146.579 237.479 146.366 237.741 146.366H262.772C263.034 146.366 263.247 146.579 263.247 146.842V147.046C263.247 147.31 263.034 147.523 262.772 147.523Z" fill="#B5C4FC"/>
<path d="M294.026 115.196C294.026 118.094 291.676 120.443 288.78 120.443C285.882 120.443 283.534 118.094 283.534 115.196C283.534 112.299 285.882 109.95 288.78 109.95C291.676 109.95 294.026 112.299 294.026 115.196Z" fill="#B5C4FC"/>
<path d="M207.429 110.517H215.705" stroke="#B5C4FC" stroke-width="1.76344" stroke-miterlimit="10" stroke-linecap="round"/>
<path d="M207.429 113.434H215.705" stroke="#B5C4FC" stroke-width="1.76344" stroke-miterlimit="10" stroke-linecap="round"/>
<path d="M207.429 116.351H215.705" stroke="#B5C4FC" stroke-width="1.76344" stroke-miterlimit="10" stroke-linecap="round"/>
<path d="M217.177 204.134H196.398C192.456 204.134 189.26 200.938 189.26 196.997V176.217C189.26 172.276 192.456 169.079 196.398 169.079H217.177C221.119 169.079 224.314 172.276 224.314 176.217V196.997C224.314 200.938 221.119 204.134 217.177 204.134Z" fill="#E7EFFF"/>
<path d="M215.197 186.605C215.197 191.251 211.433 195.016 206.787 195.016C202.141 195.016 198.376 191.251 198.376 186.605C198.376 181.961 202.141 178.195 206.787 178.195C211.433 178.195 215.197 181.961 215.197 186.605Z" fill="#488EFF"/>
<path d="M259.098 204.134H238.32C234.379 204.134 231.183 200.938 231.183 196.997V176.217C231.183 172.276 234.379 169.079 238.32 169.079H259.098C263.04 169.079 266.235 172.276 266.235 176.217V196.997C266.235 200.938 263.04 204.134 259.098 204.134Z" fill="#E7EFFF"/>
<path d="M254.971 194.849H242.448C240.974 194.849 240.016 193.298 240.675 191.98L246.937 179.459C247.667 177.998 249.752 177.998 250.483 179.459L256.744 191.98C257.403 193.298 256.444 194.849 254.971 194.849Z" fill="#C3A875"/>
<path d="M301.018 204.134H280.24C276.298 204.134 273.103 200.938 273.103 196.997V176.217C273.103 172.276 276.298 169.079 280.24 169.079H301.018C304.96 169.079 308.155 172.276 308.155 176.217V196.997C308.155 200.938 304.96 204.134 301.018 204.134Z" fill="#E7EFFF"/>
<path d="M296.519 194.333H284.74C283.725 194.333 282.902 193.51 282.902 192.496V180.716C282.902 179.701 283.725 178.878 284.74 178.878H296.519C297.535 178.878 298.356 179.701 298.356 180.716V192.496C298.356 193.51 297.535 194.333 296.519 194.333Z" fill="#488EFF"/>
<path d="M275.927 278.127H224.582C220.382 278.127 216.976 274.721 216.976 270.52C216.976 266.32 220.382 262.915 224.582 262.915H275.927C280.127 262.915 283.533 266.32 283.533 270.52C283.533 274.721 280.127 278.127 275.927 278.127Z" fill="#3C84F7"/>
<path d="M275.927 254.468H224.582C220.382 254.468 216.976 251.061 216.976 246.861C216.976 242.66 220.382 239.256 224.582 239.256H275.927C280.127 239.256 283.533 242.66 283.533 246.861C283.533 251.061 280.127 254.468 275.927 254.468Z" fill="#3C84F7"/>
</svg>
