<svg width="28" height="28" viewBox="0 0 28 28" fill="none" xmlns="http://www.w3.org/2000/svg">
<path fill-rule="evenodd" clip-rule="evenodd" d="M2.1811 13.1377C1.47706 12.9052 0.966797 12.2399 0.966797 11.4583C0.966797 10.6897 1.45768 10.0309 2.1488 9.79191C9.1052 7.34393 16.2102 5.06388 23.0051 2.26711C23.2118 2.18314 23.4378 2.13147 23.6768 2.13147C24.6521 2.13147 25.4466 2.92593 25.4466 3.90125C25.4466 4.10794 25.4143 4.30171 25.3497 4.48902L17.8508 25.8297L17.8443 25.8491C17.6053 26.5402 16.9465 27.0311 16.1779 27.0311C15.4803 27.0311 14.8796 26.6242 14.5889 26.0364L10.3001 17.278L2.18756 13.1377H2.1811Z" fill="#90B3F8"/>
<path fill-rule="evenodd" clip-rule="evenodd" d="M2.21957 13.3263C1.51248 13.092 1 12.4219 1 11.6347C1 10.8605 1.49302 10.1969 2.18713 9.95613C9.17371 7.49035 16.3095 5.19373 23.1339 2.37662C23.3415 2.29204 23.5685 2.23999 23.8085 2.23999C24.308 2.23999 24.7556 2.44818 25.08 2.77999L10.0949 17.36L2.21957 13.3263Z" fill="#DAE6FE"/>
</svg>
