<svg width="32" height="33" viewBox="0 0 32 33" fill="none" xmlns="http://www.w3.org/2000/svg">
<g clip-path="url(#clip0_52_1763)">
<path fill-rule="evenodd" clip-rule="evenodd" d="M9.46894 9.45457C9.20698 8.93423 9.2931 8.28112 9.72732 7.8469C10.1544 7.41987 10.7931 7.32656 11.3099 7.57776C16.5348 10.0826 21.7489 12.7632 27.0779 14.9845C27.2394 15.0527 27.3937 15.1496 27.5265 15.2824C28.0684 15.8242 28.0684 16.707 27.5265 17.2489C27.4117 17.3637 27.2861 17.4534 27.1461 17.5216L11.1233 25.2119L11.1089 25.2191C10.5922 25.4703 9.95339 25.377 9.52635 24.9499C9.13879 24.5624 9.03113 24.0025 9.19621 23.5145L11.6795 16.2656L9.47253 9.45816L9.46894 9.45457Z" fill="#488EFF"/>
</g>
<defs>
<clipPath id="clip0_52_1763">
<rect width="22" height="22" fill="white" transform="translate(15.5562 0.943604) rotate(45)"/>
</clipPath>
</defs>
</svg>
