<svg width="501" height="420" viewBox="0 0 501 420" fill="none" xmlns="http://www.w3.org/2000/svg">
<path d="M105.613 139.342C126.59 108.198 151.467 81.1531 186.607 59.8276C221.851 38.5599 267.339 22.9368 304.692 32.5136C342.15 42.1482 371.452 76.9078 403.204 113.931C435.02 150.862 469.369 190.039 469.979 230.194C470.673 270.331 437.608 311.372 396.652 339.732C355.592 368.034 306.622 383.579 256.135 386.719C205.627 389.785 153.686 380.428 119.169 354.001C84.6718 327.649 67.6174 284.302 67.5776 244.978C67.6221 205.637 84.6162 170.411 105.613 139.342Z" fill="#F9EFDD"/>
<path d="M284.394 324.353L117.35 249.747L0.5 302.008L167.446 376.619L284.394 324.353Z" fill="#FFE5E3"/>
<path d="M148.032 346.909C148.032 350.968 156.243 354.261 166.372 354.261C176.501 354.261 184.712 350.968 184.712 346.909C184.712 342.848 176.501 339.558 166.372 339.558C156.243 339.558 148.032 342.848 148.032 346.909Z" fill="#F27281"/>
<path d="M116.994 262.592L119.168 265.47L36.4554 302.902L34.2817 300.024L116.994 262.592Z" fill="#4341AA"/>
<path d="M134.192 270.464L136.328 273.358L51.7051 310.789L49.5688 307.895L134.192 270.464Z" fill="#4341AA"/>
<path d="M149.653 278.335L151.747 281.248L68.2528 317.202L66.1592 314.288L149.653 278.335Z" fill="#4341AA"/>
<path d="M167.28 285.237L169.41 288.135L86.698 324.581L84.5674 321.684L167.28 285.237Z" fill="#4341AA"/>
<path d="M183.172 292.633L185.334 295.516L101.684 333.112L99.5215 330.229L183.172 292.633Z" fill="#4341AA"/>
<path d="M199.071 300.516L201.244 303.394L118.53 340.826L116.357 337.948L199.071 300.516Z" fill="#4341AA"/>
<path d="M417.622 232.938L428.11 227.027L427.425 211.703L262.583 163.628L141.998 217.521L297.037 286.805L417.622 232.938Z" fill="#8194EF"/>
<path d="M297.255 294.125L142.217 224.841V217.143L297.255 286.427V294.125Z" fill="#C0CBFF"/>
<path d="M142.217 186.153L297.255 255.432L417.843 201.567L262.805 132.258L142.217 186.153Z" fill="#C0CBFF"/>
<path d="M420.566 202.34L417.844 201.568L417.842 209.242C426.704 211.811 429.814 224.631 421.298 230.504L417.842 232.561V240.233C417.842 240.233 420.202 239.308 425.164 236.202C437.69 228.365 434.446 206.274 420.566 202.34Z" fill="#97A4F6"/>
<path d="M417.024 205.781L395.37 217.057L295.994 260.92L155.875 198.303V219.355L295.994 281.971L417.024 228.087V205.781Z" fill="white"/>
<path d="M297.366 281.361L417.024 228.088V205.781L395.37 217.057L297.823 260.113L297.366 281.361Z" fill="#EBEFFF"/>
<path d="M417.843 240.233L297.257 294.125V286.427L417.843 232.561V240.233Z" fill="#97A4F6"/>
<path d="M417.843 209.241L297.257 263.133V255.435L417.843 201.569V209.241Z" fill="#97A4F6"/>
<path d="M297.255 263.132L142.217 193.848V186.151L297.255 255.435V263.132Z" fill="#EBEFFF"/>
<path d="M322.121 258.146V282.232L330.237 271.833L336.904 275.277L336.082 252.106L322.121 258.146Z" fill="#F27281"/>
<path d="M181.669 190.012L172.318 184.741L172.929 171.078L319.901 128.215L427.414 176.265L289.183 238.038L181.669 190.012Z" fill="#D19846"/>
<path d="M288.986 244.564L427.218 182.791V175.928L288.986 237.701V244.564Z" fill="#DBA75D"/>
<path d="M427.218 148.297L288.987 210.066L181.472 162.041L319.704 100.245L427.218 148.297Z" fill="#FFC869"/>
<path d="M179.045 162.73L181.472 162.041V168.883C173.573 171.173 170.8 182.604 178.394 187.841L181.472 189.675V196.516C181.472 196.516 179.371 195.691 174.944 192.921C163.777 185.935 166.67 166.236 179.045 162.73Z" fill="#F7CC8D"/>
<path d="M182.203 165.797L201.51 175.852L290.112 214.959L415.041 159.131V177.901L290.112 233.73L182.203 185.686V165.797Z" fill="white"/>
<path d="M288.89 233.184L182.203 185.686V165.797L201.51 175.851L288.481 214.239L288.89 233.184Z" fill="#EBEFFF"/>
<path d="M181.474 196.514L288.987 244.564V237.7L181.474 189.674V196.514Z" fill="#F7CC8D"/>
<path d="M181.474 168.882L288.987 216.932V210.069L181.474 162.042V168.882Z" fill="#F7CC8D"/>
<path d="M288.986 216.932L427.218 155.159V148.296L288.986 210.069V216.932Z" fill="#DBA75D"/>
<path d="M275.683 112.432C320.536 112.432 356.953 125.144 356.953 140.8C356.953 156.457 320.536 169.168 275.683 169.168C230.83 169.168 194.413 156.457 194.413 140.8C194.413 125.144 230.83 112.432 275.683 112.432Z" fill="#DBA75D"/>
<path d="M242.085 169.668C240.354 170.442 239.41 171.441 239.384 172.508C239.359 173.584 240.269 174.598 241.95 175.365L258.344 182.848C258.834 183.073 259.642 183.073 260.144 182.853C260.647 182.628 260.651 182.269 260.164 182.046L243.769 174.563C242.567 174.013 241.913 173.286 241.932 172.516C241.949 171.752 242.628 171.033 243.836 170.493C245.096 169.94 246.718 169.646 248.438 169.65C250.157 169.656 251.766 169.962 252.97 170.511L273.795 180.019C275.43 180.765 275.41 181.971 273.753 182.712C272.103 183.437 269.297 183.428 267.706 182.701L253.719 176.317C253.338 176.144 253.124 175.905 253.129 175.661C253.137 175.417 253.355 175.186 253.744 175.012C254.563 174.652 255.875 174.656 256.668 175.019L266.22 179.379C266.712 179.604 267.515 179.606 268.017 179.385C268.52 179.16 268.529 178.801 268.039 178.578L258.487 174.217C256.712 173.407 253.789 173.397 251.97 174.195C251.082 174.592 250.597 175.106 250.586 175.654C250.573 176.197 251.052 176.732 251.902 177.119L265.885 183.503C267.155 184.082 268.859 184.407 270.676 184.413C272.498 184.419 274.213 184.107 275.513 183.534C278.197 182.335 278.23 180.41 275.616 179.216L254.791 169.709C253.112 168.942 250.864 168.517 248.464 168.509C246.065 168.502 243.797 168.912 242.085 169.668Z" fill="#314891"/>
<path d="M392.518 67.4099V71.5299L276.163 123.554L159.745 71.5239V67.4047L392.518 67.4099Z" fill="#375EA9"/>
<path d="M211.247 81.556V129.365C211.247 145.944 240.564 159.383 276.726 159.383C312.888 159.383 342.204 145.944 342.204 129.365V81.556H211.247Z" fill="#3B7FEC"/>
<g opacity="0.11319">
<path d="M212.421 95.0663C210.654 95.4521 230.193 116.233 262.514 130.215C281.333 138.357 317.129 140.146 337.555 140.473C340.544 137.035 342.204 133.29 342.204 129.365V93.7444L256.603 82.7573C256.603 82.7573 215.12 94.4769 212.421 95.0663Z" fill="black" fill-opacity="0.87"/>
</g>
<path d="M159.745 71.5239L276.131 19.5137L392.518 71.5291L276.163 123.554L159.745 71.5239Z" fill="#3960A7"/>
<path d="M159.745 67.4046L276.131 15.3944L392.518 67.4098L276.163 119.434L159.745 67.4046Z" fill="#488EFF"/>
<path d="M276.163 123.554V119.435L159.745 67.4047V71.5239L276.163 123.554Z" fill="#4E75C1"/>
<path d="M333.767 146.904H338.636C341.448 146.904 343.667 145.055 343.462 142.885L341.028 133.095C340.843 131.137 338.737 129.623 336.201 129.623C333.667 129.623 331.561 131.137 331.376 133.095L328.94 142.885C328.735 145.055 330.956 146.904 333.767 146.904Z" fill="#EABD70"/>
<path d="M335.082 146.271H337.428V91.5193L273.158 62.1814L271.966 63.746L335.082 92.5551V146.271Z" fill="#EABD70"/>
<path d="M341.625 122.68C341.625 125.012 339.183 126.903 336.169 126.903C333.156 126.903 330.713 125.012 330.713 122.68C330.713 120.348 333.156 118.457 336.169 118.457C339.183 118.457 341.625 120.348 341.625 122.68Z" fill="#EABD70"/>
<path d="M203.422 312.656L203.428 313.983C203.426 313.961 203.428 313.94 203.428 313.918C203.457 312.582 204.645 311.324 206.762 310.379C208.965 309.41 211.806 308.893 214.817 308.903C217.825 308.913 220.642 309.449 222.749 310.409L222.744 309.082C220.637 308.121 217.82 307.585 214.812 307.575C211.8 307.566 208.961 308.083 206.756 309.052C204.641 309.998 203.453 311.255 203.424 312.59L203.422 312.656Z" fill="#FF7600"/>
<path d="M203.398 312.325L203.404 313.653C203.402 313.63 203.404 313.608 203.404 313.587C203.433 312.25 204.621 310.993 206.738 310.048C207.251 309.822 207.799 309.622 208.376 309.446L208.372 308.119C207.795 308.293 207.246 308.495 206.733 308.721C204.618 309.666 203.429 310.923 203.4 312.259L203.398 312.325Z" fill="#FF7600"/>
<path d="M208.372 308.118L208.376 309.446C208.818 309.311 209.276 309.191 209.748 309.087L209.744 307.759C209.272 307.865 208.813 307.984 208.372 308.118Z" fill="#FF7600"/>
<path d="M209.745 307.759L209.749 309.087C210.133 309.002 210.524 308.927 210.924 308.863L210.919 307.536C210.52 307.601 210.128 307.675 209.745 307.759Z" fill="#FF7600"/>
<path d="M210.919 307.536L210.924 308.863C211.284 308.805 211.651 308.757 212.023 308.716L212.019 307.388C211.646 307.429 211.279 307.479 210.919 307.536Z" fill="#FF7600"/>
<path d="M212.019 307.388L212.024 308.716C212.381 308.676 212.742 308.645 213.108 308.621L213.103 307.295C212.737 307.317 212.376 307.35 212.019 307.388Z" fill="#FF7600"/>
<path d="M213.103 307.295L213.107 308.622C213.473 308.599 213.844 308.584 214.217 308.576L214.213 307.25C213.84 307.256 213.468 307.271 213.103 307.295Z" fill="#FF7600"/>
<path d="M214.214 307.25L214.219 308.576C214.411 308.572 214.601 308.57 214.795 308.572C214.991 308.572 215.186 308.575 215.38 308.58L215.375 307.253C215.181 307.249 214.986 307.245 214.79 307.244C214.597 307.244 214.406 307.245 214.214 307.25Z" fill="#FF7600"/>
<path d="M215.375 307.253L215.379 308.58C215.801 308.59 216.217 308.613 216.629 308.645L216.626 307.318C216.213 307.286 215.796 307.264 215.375 307.253Z" fill="#FF7600"/>
<path d="M216.626 307.318L216.631 308.644C217.118 308.681 217.597 308.733 218.067 308.798L218.062 307.472C217.593 307.406 217.114 307.354 216.626 307.318Z" fill="#FF7600"/>
<path d="M218.061 307.472L218.066 308.798C218.79 308.9 219.489 309.034 220.152 309.199L220.147 307.873C219.483 307.708 218.786 307.574 218.061 307.472Z" fill="#FF7600"/>
<path d="M220.146 307.873L220.15 309.199C221.086 309.432 221.952 309.727 222.724 310.078L222.719 308.751C221.947 308.4 221.081 308.105 220.146 307.873Z" fill="#FF7600"/>
<path d="M198.804 312.58L198.809 313.908C198.814 315.758 200.403 317.5 203.3 318.82L203.296 317.492C200.399 316.173 198.81 314.43 198.804 312.58Z" fill="#FF7600"/>
<path d="M198.463 312.08L198.467 313.406C198.467 313.443 198.468 313.481 198.468 313.518L198.465 312.19C198.463 312.154 198.463 312.117 198.463 312.08Z" fill="#FF7600"/>
<path d="M198.464 312.19L198.469 313.518C198.479 313.754 198.514 313.988 198.574 314.22L198.57 312.894C198.51 312.662 198.474 312.426 198.464 312.19Z" fill="#FF7600"/>
<path d="M198.57 312.894L198.575 314.22C198.634 314.451 198.718 314.678 198.827 314.903L198.822 313.576C198.714 313.351 198.629 313.123 198.57 312.894Z" fill="#FF7600"/>
<path d="M198.822 313.576L198.827 314.902C198.94 315.135 199.078 315.363 199.242 315.588L199.237 314.261C199.073 314.037 198.935 313.808 198.822 313.576Z" fill="#FF7600"/>
<path d="M199.236 314.261L199.241 315.588C199.419 315.833 199.627 316.072 199.865 316.307L199.86 314.979C199.622 314.746 199.414 314.505 199.236 314.261Z" fill="#FF7600"/>
<path d="M199.86 314.978L199.865 316.306C200.147 316.583 200.469 316.853 200.834 317.115L200.829 315.787C200.465 315.526 200.142 315.257 199.86 314.978Z" fill="#FF7600"/>
<path d="M200.831 315.788L200.835 317.115C201.4 317.519 202.062 317.9 202.816 318.253L202.812 316.927C202.058 316.574 201.396 316.193 200.831 315.788Z" fill="#FF7600"/>
<path d="M202.811 316.927L202.816 318.253C202.863 318.276 202.912 318.298 202.959 318.321L202.954 316.993L202.811 316.927Z" fill="#FF7600"/>
<path d="M222.747 318.259L222.751 319.586L222.752 319.567C222.765 319.139 223.145 318.736 223.827 318.432C225.26 317.8 227.557 317.805 228.946 318.444L228.942 317.116C227.552 316.478 225.255 316.472 223.822 317.104C223.14 317.409 222.76 317.812 222.747 318.24V318.259Z" fill="#FF7600"/>
<path d="M222.174 318.215L222.179 319.542L222.18 319.523C222.192 319.095 222.572 318.692 223.255 318.387C223.415 318.317 223.585 318.254 223.764 318.199L223.758 316.873C223.58 316.927 223.41 316.99 223.25 317.06C222.568 317.365 222.187 317.769 222.174 318.196V318.215Z" fill="#FF7600"/>
<path d="M223.759 316.874L223.765 318.2C223.907 318.157 224.056 318.119 224.207 318.085L224.202 316.758C224.049 316.791 223.902 316.831 223.759 316.874Z" fill="#FF7600"/>
<path d="M224.201 316.758L224.206 318.085C224.33 318.058 224.457 318.034 224.584 318.014L224.579 316.686C224.452 316.706 224.325 316.731 224.201 316.758Z" fill="#FF7600"/>
<path d="M224.579 316.686L224.584 318.014C224.703 317.994 224.824 317.978 224.944 317.965L224.939 316.638C224.817 316.651 224.698 316.667 224.579 316.686Z" fill="#FF7600"/>
<path d="M224.939 316.639L224.944 317.965C225.061 317.952 225.178 317.942 225.297 317.934L225.292 316.607C225.173 316.615 225.056 316.626 224.939 316.639Z" fill="#FF7600"/>
<path d="M225.292 316.606L225.297 317.933C225.416 317.926 225.534 317.921 225.653 317.918L225.649 316.592C225.53 316.594 225.41 316.6 225.292 316.606Z" fill="#FF7600"/>
<path d="M225.649 316.592L225.654 317.919C225.778 317.917 225.901 317.916 226.025 317.92L226.02 316.594C225.896 316.59 225.773 316.59 225.649 316.592Z" fill="#FF7600"/>
<path d="M226.02 316.594L226.024 317.92C226.159 317.924 226.291 317.931 226.424 317.941L226.419 316.614C226.287 316.604 226.154 316.597 226.02 316.594Z" fill="#FF7600"/>
<path d="M226.421 316.614L226.426 317.94C226.582 317.952 226.736 317.969 226.887 317.991L226.882 316.664C226.731 316.642 226.577 316.626 226.421 316.614Z" fill="#FF7600"/>
<path d="M226.883 316.664L226.888 317.99C227.123 318.023 227.349 318.067 227.567 318.122L227.562 316.794C227.344 316.74 227.118 316.696 226.883 316.664Z" fill="#FF7600"/>
<path d="M227.561 316.794L227.566 318.122C227.858 318.195 228.129 318.287 228.373 318.399L228.369 317.073C228.125 316.961 227.851 316.868 227.561 316.794Z" fill="#FF7600"/>
<path d="M218.284 317.97L218.289 319.297C218.291 320.234 219.128 321.15 220.592 321.818L220.587 320.491C219.123 319.823 218.287 318.907 218.284 317.97Z" fill="#FF7600"/>
<path d="M217.69 317.325L217.694 318.651L217.694 318.705L217.691 317.379L217.69 317.325Z" fill="#FF7600"/>
<path d="M217.69 317.378L217.695 318.705C217.7 318.823 217.716 318.94 217.747 319.057L217.741 317.729C217.712 317.613 217.695 317.495 217.69 317.378Z" fill="#FF7600"/>
<path d="M217.742 317.728L217.748 319.056C217.777 319.173 217.821 319.289 217.878 319.405L217.872 318.079C217.817 317.963 217.773 317.847 217.742 317.728Z" fill="#FF7600"/>
<path d="M217.873 318.079L217.878 319.406C217.937 319.526 218.009 319.646 218.095 319.763L218.09 318.436C218.004 318.319 217.932 318.199 217.873 318.079Z" fill="#FF7600"/>
<path d="M218.09 318.436L218.095 319.762C218.189 319.891 218.298 320.018 218.422 320.141L218.417 318.813C218.292 318.691 218.183 318.565 218.09 318.436Z" fill="#FF7600"/>
<path d="M218.417 318.814L218.422 320.141C218.57 320.287 218.74 320.429 218.93 320.564L218.925 319.237C218.735 319.101 218.565 318.96 218.417 318.814Z" fill="#FF7600"/>
<path d="M218.925 319.237L218.93 320.564C219.217 320.77 219.55 320.964 219.928 321.14L219.924 319.813C219.546 319.636 219.212 319.443 218.925 319.237Z" fill="#FF7600"/>
<path d="M219.925 319.813L219.93 321.14L219.999 321.173L219.994 319.846L219.925 319.813Z" fill="#FF7600"/>
<path d="M229.229 317.138L229.233 318.465L245.95 326.097L245.945 324.77L229.229 317.138Z" fill="#FF7600"/>
<path d="M249.746 325.056L249.741 323.73C249.741 323.989 249.517 324.249 249.071 324.45C248.19 324.837 246.782 324.833 245.922 324.44L245.927 325.766C246.787 326.159 248.195 326.164 249.076 325.777C249.523 325.577 249.746 325.315 249.746 325.056Z" fill="#FF7600"/>
<path d="M245.877 323.778L245.882 325.104C246.033 325.174 246.202 325.231 246.382 325.275L246.378 323.948C246.197 323.903 246.028 323.847 245.877 323.778Z" fill="#FF7600"/>
<path d="M246.378 323.948L246.383 325.275C246.517 325.309 246.658 325.336 246.803 325.356L246.798 324.03C246.653 324.01 246.512 323.983 246.378 323.948Z" fill="#FF7600"/>
<path d="M246.797 324.03L246.802 325.356C246.896 325.369 246.99 325.38 247.088 325.388L247.083 324.061C246.985 324.054 246.891 324.043 246.797 324.03Z" fill="#FF7600"/>
<path d="M247.083 324.061L247.088 325.387C247.17 325.393 247.251 325.398 247.334 325.401L247.329 324.073C247.247 324.07 247.163 324.067 247.083 324.061Z" fill="#FF7600"/>
<path d="M247.328 324.073L247.333 325.401C247.408 325.402 247.486 325.402 247.561 325.401L247.556 324.074C247.479 324.076 247.404 324.075 247.328 324.073Z" fill="#FF7600"/>
<path d="M247.556 324.074L247.561 325.401C247.633 325.4 247.707 325.397 247.779 325.392L247.775 324.066C247.701 324.07 247.628 324.073 247.556 324.074Z" fill="#FF7600"/>
<path d="M247.775 324.067L247.78 325.393C247.852 325.388 247.923 325.382 247.995 325.374L247.991 324.047C247.918 324.055 247.847 324.062 247.775 324.067Z" fill="#FF7600"/>
<path d="M247.991 324.046L247.996 325.373C248.071 325.365 248.144 325.355 248.217 325.343L248.211 324.016C248.138 324.028 248.066 324.038 247.991 324.046Z" fill="#FF7600"/>
<path d="M248.211 324.016L248.217 325.343C248.296 325.331 248.374 325.315 248.449 325.299L248.445 323.972C248.369 323.989 248.29 324.004 248.211 324.016Z" fill="#FF7600"/>
<path d="M248.444 323.972L248.449 325.299C248.542 325.279 248.633 325.256 248.719 325.228L248.714 323.902C248.626 323.928 248.537 323.952 248.444 323.972Z" fill="#FF7600"/>
<path d="M248.715 323.902L248.72 325.228C248.829 325.195 248.933 325.159 249.03 325.115C249.478 324.914 249.7 324.653 249.7 324.394L249.695 323.068C249.695 323.327 249.471 323.587 249.025 323.788C248.928 323.83 248.823 323.868 248.715 323.902Z" fill="#FF7600"/>
<path d="M222.756 309.247L222.761 310.574L259.213 327.216L259.208 325.889L222.756 309.247Z" fill="#FF7600"/>
<path d="M260.95 329.505L260.945 328.178C260.943 327.334 260.235 326.493 258.821 325.846L258.827 327.173C260.241 327.819 260.947 328.662 260.95 329.505Z" fill="#FF7600"/>
<path d="M258.046 325.761L258.052 327.087L258.106 327.113L258.101 325.785L258.046 325.761Z" fill="#FF7600"/>
<path d="M258.102 325.786L258.107 327.112C258.465 327.279 258.777 327.46 259.042 327.649L259.037 326.323C258.773 326.134 258.46 325.953 258.102 325.786Z" fill="#FF7600"/>
<path d="M259.036 326.323L259.042 327.65C259.216 327.775 259.371 327.905 259.505 328.036L259.501 326.71C259.366 326.577 259.212 326.449 259.036 326.323Z" fill="#FF7600"/>
<path d="M259.502 326.709L259.507 328.035C259.621 328.149 259.721 328.265 259.806 328.381L259.802 327.054C259.717 326.937 259.617 326.821 259.502 326.709Z" fill="#FF7600"/>
<path d="M259.801 327.054L259.806 328.381C259.886 328.489 259.953 328.599 260.005 328.709L260.001 327.383C259.946 327.271 259.88 327.162 259.801 327.054Z" fill="#FF7600"/>
<path d="M260 327.382L260.005 328.709C260.058 328.817 260.098 328.927 260.127 329.035L260.122 327.709C260.093 327.599 260.053 327.49 260 327.382Z" fill="#FF7600"/>
<path d="M260.122 327.709L260.127 329.035C260.155 329.146 260.171 329.257 260.176 329.368L260.169 328.041C260.166 327.931 260.15 327.819 260.122 327.709Z" fill="#FF7600"/>
<path d="M260.17 328.041L260.175 329.368V329.419L260.172 328.093L260.17 328.041Z" fill="#FF7600"/>
<path d="M203.465 317.743L203.47 319.07L232.166 332.169L232.161 330.842L203.465 317.743Z" fill="#FF7600"/>
<path d="M235.963 331.128L235.958 329.801C235.958 330.06 235.735 330.32 235.289 330.52C234.411 330.907 232.998 330.903 232.138 330.51L232.143 331.837C233.003 332.23 234.416 332.234 235.294 331.847C235.74 331.647 235.963 331.387 235.963 331.128Z" fill="#FF7600"/>
<path d="M232.094 329.847L232.099 331.173C232.25 331.242 232.418 331.301 232.596 331.345L232.592 330.018C232.413 329.974 232.245 329.917 232.094 329.847Z" fill="#FF7600"/>
<path d="M232.591 330.019L232.596 331.345C232.732 331.379 232.872 331.406 233.017 331.427L233.011 330.099C232.868 330.079 232.727 330.052 232.591 330.019Z" fill="#FF7600"/>
<path d="M233.012 330.1L233.018 331.427C233.11 331.44 233.206 331.451 233.302 331.458L233.297 330.132C233.201 330.123 233.106 330.114 233.012 330.1Z" fill="#FF7600"/>
<path d="M233.296 330.131L233.301 331.457C233.383 331.463 233.465 331.469 233.548 331.471L233.543 330.143C233.46 330.141 233.379 330.137 233.296 330.131Z" fill="#FF7600"/>
<path d="M233.544 330.143L233.549 331.471C233.624 331.472 233.702 331.472 233.777 331.471L233.772 330.144C233.695 330.145 233.619 330.145 233.544 330.143Z" fill="#FF7600"/>
<path d="M233.771 330.144L233.776 331.47C233.851 331.468 233.922 331.465 233.995 331.462L233.991 330.134C233.919 330.138 233.844 330.142 233.771 330.144Z" fill="#FF7600"/>
<path d="M233.991 330.135L233.996 331.462C234.071 331.458 234.143 331.45 234.214 331.443L234.209 330.117C234.136 330.124 234.064 330.13 233.991 330.135Z" fill="#FF7600"/>
<path d="M234.21 330.116L234.215 331.442C234.289 331.434 234.363 331.424 234.435 331.412L234.431 330.086C234.358 330.096 234.284 330.108 234.21 330.116Z" fill="#FF7600"/>
<path d="M234.43 330.087L234.435 331.413C234.515 331.4 234.593 331.385 234.668 331.369L234.663 330.042C234.588 330.059 234.509 330.073 234.43 330.087Z" fill="#FF7600"/>
<path d="M234.662 330.042L234.667 331.368C234.761 331.348 234.851 331.324 234.939 331.298L234.934 329.97C234.846 329.998 234.755 330.022 234.662 330.042Z" fill="#FF7600"/>
<path d="M234.936 329.971L234.941 331.299C235.05 331.265 235.154 331.227 235.251 331.184C235.697 330.984 235.92 330.724 235.92 330.465L235.915 329.139C235.915 329.398 235.693 329.657 235.247 329.857C235.149 329.899 235.045 329.937 234.936 329.971Z" fill="#FF7600"/>
<path d="M220.885 320.814L220.89 322.141L245.367 333.315L245.362 331.988L220.885 320.814Z" fill="#FF7600"/>
<path d="M265.357 329.51L265.352 328.183C265.357 329.57 264.168 330.963 261.785 332.028C259.509 333.029 256.508 333.575 253.319 333.565C250.137 333.554 247.157 332.987 244.932 331.971L244.937 333.298C247.161 334.314 250.142 334.881 253.324 334.891C256.513 334.902 259.514 334.356 261.79 333.354C264.172 332.289 265.362 330.896 265.357 329.51Z" fill="#FF7600"/>
<path d="M244.07 331.939L244.076 333.265C244.889 333.638 245.807 333.951 246.796 334.197L246.792 332.869C245.803 332.623 244.885 332.312 244.07 331.939Z" fill="#FF7600"/>
<path d="M246.793 332.868L246.798 334.196C247.499 334.371 248.237 334.511 249.001 334.618L248.996 333.291C248.232 333.185 247.494 333.043 246.793 332.868Z" fill="#FF7600"/>
<path d="M248.995 333.291L249 334.618C249.495 334.687 250.002 334.743 250.518 334.782L250.513 333.455C249.997 333.415 249.49 333.361 248.995 333.291Z" fill="#FF7600"/>
<path d="M250.513 333.455L250.518 334.782C250.951 334.816 251.392 334.838 251.837 334.85L251.832 333.522C251.386 333.512 250.946 333.489 250.513 333.455Z" fill="#FF7600"/>
<path d="M251.833 333.522L251.838 334.85C252.045 334.854 252.254 334.858 252.462 334.858C252.669 334.86 252.875 334.858 253.08 334.854L253.074 333.527C252.87 333.53 252.665 333.533 252.458 333.532C252.249 333.53 252.041 333.528 251.833 333.522Z" fill="#FF7600"/>
<path d="M253.074 333.527L253.08 334.854C253.477 334.846 253.87 334.829 254.258 334.804L254.254 333.478C253.865 333.503 253.471 333.518 253.074 333.527Z" fill="#FF7600"/>
<path d="M254.253 333.477L254.258 334.804C254.647 334.78 255.03 334.747 255.408 334.705L255.403 333.378C255.025 333.42 254.641 333.452 254.253 333.477Z" fill="#FF7600"/>
<path d="M255.404 333.379L255.409 334.706C255.804 334.663 256.193 334.61 256.575 334.549L256.57 333.223C256.188 333.284 255.8 333.336 255.404 333.379Z" fill="#FF7600"/>
<path d="M256.57 333.222L256.575 334.549C256.997 334.481 257.41 334.403 257.813 334.314L257.808 332.987C257.405 333.076 256.992 333.154 256.57 333.222Z" fill="#FF7600"/>
<path d="M257.809 332.987L257.813 334.315C258.309 334.205 258.787 334.08 259.247 333.939L259.243 332.613C258.783 332.753 258.304 332.879 257.809 332.987Z" fill="#FF7600"/>
<path d="M259.243 332.613L259.248 333.939C259.842 333.759 260.404 333.552 260.929 333.321C263.312 332.256 264.5 330.863 264.495 329.477L264.49 328.151C264.495 329.537 263.306 330.93 260.924 331.995C260.399 332.226 259.837 332.431 259.243 332.613Z" fill="#FF7600"/>
<path d="M204.16 308.043C201.129 309.396 199.479 311.146 199.432 313.014C199.388 314.896 200.982 316.672 203.923 318.014L232.619 331.113C233.479 331.506 234.892 331.51 235.77 331.122C236.651 330.729 236.661 330.102 235.804 329.711L207.109 316.611C205.005 315.649 203.858 314.377 203.892 313.027C203.921 311.692 205.109 310.434 207.224 309.489C209.429 308.52 212.269 308.003 215.282 308.011C218.29 308.022 221.106 308.558 223.214 309.519L259.665 326.161C262.528 327.469 262.492 329.577 259.59 330.875C256.701 332.145 251.793 332.128 249.005 330.857L224.525 319.681C223.858 319.378 223.482 318.959 223.491 318.533C223.505 318.106 223.886 317.703 224.568 317.398C226.001 316.766 228.297 316.772 229.686 317.41L246.404 325.042C247.264 325.435 248.672 325.439 249.552 325.053C250.433 324.66 250.445 324.03 249.59 323.639L232.869 316.006C229.76 314.587 224.645 314.57 221.462 315.968C219.908 316.662 219.06 317.562 219.039 318.521C219.016 319.473 219.855 320.408 221.342 321.086L245.819 332.259C248.044 333.274 251.024 333.842 254.206 333.852C257.395 333.863 260.397 333.316 262.673 332.315C267.368 330.216 267.425 326.847 262.85 324.757L226.4 308.115C223.461 306.773 219.528 306.027 215.326 306.015C211.126 306.002 207.158 306.721 204.16 308.043Z" fill="#FF7600"/>
<path d="M135.737 247.965L135.732 249.026C135.732 249.01 135.732 248.992 135.732 248.975C135.707 247.906 134.758 246.9 133.066 246.144C131.302 245.368 129.03 244.955 126.621 244.962C124.216 244.971 121.963 245.399 120.276 246.168L120.279 245.106C121.966 244.338 124.218 243.909 126.625 243.901C129.034 243.894 131.307 244.306 133.069 245.082C134.763 245.839 135.712 246.845 135.735 247.914C135.737 247.931 135.737 247.949 135.737 247.965Z" fill="#DBA75D"/>
<path d="M135.717 247.848L135.712 248.91C135.712 248.894 135.712 248.875 135.712 248.859C135.687 247.789 134.738 246.783 133.046 246.027C132.636 245.846 132.196 245.685 131.735 245.545L131.74 244.484C132.2 244.624 132.638 244.785 133.049 244.965C134.743 245.722 135.692 246.728 135.715 247.797C135.717 247.814 135.717 247.832 135.717 247.848Z" fill="#DBA75D"/>
<path d="M131.739 244.484L131.734 245.545C131.381 245.437 131.014 245.342 130.635 245.258L130.64 244.197C131.018 244.279 131.386 244.375 131.739 244.484Z" fill="#DBA75D"/>
<path d="M130.64 244.197L130.635 245.259C130.329 245.191 130.016 245.131 129.696 245.081L129.699 244.018C130.02 244.07 130.334 244.129 130.64 244.197Z" fill="#DBA75D"/>
<path d="M129.701 244.017L129.698 245.08C129.41 245.034 129.116 244.994 128.818 244.962L128.823 243.9C129.121 243.933 129.414 243.972 129.701 244.017Z" fill="#DBA75D"/>
<path d="M128.822 243.901L128.818 244.962C128.533 244.93 128.244 244.905 127.952 244.887L127.955 243.826C128.248 243.844 128.537 243.869 128.822 243.901Z" fill="#DBA75D"/>
<path d="M127.953 243.825L127.95 244.887C127.657 244.868 127.361 244.856 127.061 244.85L127.066 243.789C127.364 243.795 127.66 243.806 127.953 243.825Z" fill="#DBA75D"/>
<path d="M127.067 243.788L127.062 244.85C126.909 244.848 126.757 244.846 126.603 244.846C126.447 244.846 126.29 244.849 126.134 244.853L126.137 243.792C126.293 243.787 126.449 243.785 126.606 243.785C126.759 243.784 126.914 243.784 127.067 243.788Z" fill="#DBA75D"/>
<path d="M126.136 243.792L126.133 244.853C125.795 244.861 125.462 244.879 125.133 244.905L125.138 243.844C125.467 243.817 125.799 243.8 126.136 243.792Z" fill="#DBA75D"/>
<path d="M125.138 243.844L125.133 244.905C124.742 244.935 124.36 244.977 123.984 245.028L123.987 243.966C124.363 243.914 124.747 243.873 125.138 243.844Z" fill="#DBA75D"/>
<path d="M123.987 243.967L123.984 245.028C123.405 245.109 122.846 245.217 122.315 245.349L122.318 244.288C122.849 244.155 123.408 244.049 123.987 243.967Z" fill="#DBA75D"/>
<path d="M122.319 244.287L122.315 245.348C121.566 245.535 120.873 245.771 120.257 246.051L120.26 244.989C120.877 244.709 121.572 244.473 122.319 244.287Z" fill="#DBA75D"/>
<path d="M139.177 247.905L139.174 248.966C139.168 250.447 137.897 251.84 135.581 252.897L135.583 251.835C137.901 250.778 139.172 249.385 139.177 247.905Z" fill="#DBA75D"/>
<path d="M138.902 247.653L138.899 248.715C138.899 248.745 138.898 248.773 138.898 248.803L138.9 247.742C138.902 247.712 138.902 247.682 138.902 247.653Z" fill="#DBA75D"/>
<path d="M138.899 247.743L138.896 248.804C138.888 248.993 138.86 249.181 138.813 249.367L138.816 248.304C138.865 248.119 138.893 247.931 138.899 247.743Z" fill="#DBA75D"/>
<path d="M138.817 248.303L138.814 249.366C138.767 249.55 138.698 249.732 138.612 249.911L138.615 248.849C138.703 248.67 138.77 248.488 138.817 248.303Z" fill="#DBA75D"/>
<path d="M138.616 248.85L138.613 249.911C138.523 250.096 138.412 250.281 138.281 250.46L138.286 249.398C138.417 249.217 138.526 249.035 138.616 248.85Z" fill="#DBA75D"/>
<path d="M138.284 249.398L138.28 250.46C138.138 250.654 137.97 250.847 137.781 251.033L137.786 249.972C137.975 249.784 138.141 249.593 138.284 249.398Z" fill="#DBA75D"/>
<path d="M137.785 249.972L137.78 251.033C137.555 251.256 137.296 251.472 137.003 251.681L137.008 250.619C137.299 250.41 137.558 250.195 137.785 249.972Z" fill="#DBA75D"/>
<path d="M137.009 250.619L137.004 251.682C136.553 252.006 136.024 252.31 135.42 252.593L135.425 251.531C136.027 251.249 136.556 250.943 137.009 250.619Z" fill="#DBA75D"/>
<path d="M135.424 251.531L135.419 252.592L135.305 252.644L135.308 251.583L135.424 251.531Z" fill="#DBA75D"/>
<path d="M119.644 252.074L119.639 253.135V253.121C119.629 252.778 119.326 252.456 118.779 252.211C117.632 251.707 115.796 251.712 114.685 252.222L114.687 251.159C115.801 250.65 117.637 250.646 118.783 251.15C119.33 251.394 119.633 251.717 119.644 252.06V252.074Z" fill="#DBA75D"/>
<path d="M118.799 251.439L118.794 252.5V252.486C118.784 252.143 118.481 251.821 117.934 251.576C117.806 251.52 117.67 251.471 117.527 251.427L117.532 250.365C117.674 250.41 117.81 250.458 117.937 250.514C118.484 250.759 118.789 251.081 118.799 251.424V251.439Z" fill="#DBA75D"/>
<path d="M117.531 250.365L117.526 251.427C117.413 251.392 117.295 251.361 117.173 251.334L117.178 250.273C117.298 250.299 117.417 250.331 117.531 250.365Z" fill="#DBA75D"/>
<path d="M117.178 250.272L117.173 251.334C117.075 251.313 116.974 251.293 116.871 251.277L116.875 250.215C116.977 250.231 117.08 250.251 117.178 250.272Z" fill="#DBA75D"/>
<path d="M116.875 250.216L116.87 251.278C116.777 251.262 116.679 251.248 116.583 251.238L116.586 250.177C116.684 250.187 116.779 250.201 116.875 250.216Z" fill="#DBA75D"/>
<path d="M116.586 250.176L116.583 251.237C116.489 251.227 116.395 251.219 116.301 251.213L116.304 250.152C116.399 250.158 116.493 250.166 116.586 250.176Z" fill="#DBA75D"/>
<path d="M116.304 250.152L116.301 251.213C116.205 251.207 116.111 251.203 116.016 251.201L116.019 250.14C116.114 250.141 116.21 250.146 116.304 250.152Z" fill="#DBA75D"/>
<path d="M116.018 250.141L116.014 251.202C115.916 251.2 115.817 251.201 115.718 251.204L115.721 250.142C115.82 250.139 115.92 250.139 116.018 250.141Z" fill="#DBA75D"/>
<path d="M115.722 250.141L115.718 251.203C115.61 251.205 115.504 251.212 115.399 251.22L115.402 250.158C115.508 250.15 115.616 250.144 115.722 250.141Z" fill="#DBA75D"/>
<path d="M115.402 250.159L115.399 251.22C115.275 251.23 115.151 251.243 115.029 251.26L115.034 250.198C115.154 250.182 115.277 250.168 115.402 250.159Z" fill="#DBA75D"/>
<path d="M115.034 250.198L115.029 251.259C114.842 251.285 114.66 251.32 114.485 251.364L114.49 250.302C114.663 250.258 114.847 250.224 115.034 250.198Z" fill="#DBA75D"/>
<path d="M114.489 250.303L114.484 251.364C114.253 251.423 114.033 251.497 113.839 251.587L113.842 250.524C114.038 250.434 114.256 250.361 114.489 250.303Z" fill="#DBA75D"/>
<path d="M123.585 252.069L123.582 253.13C123.579 253.88 122.908 254.613 121.738 255.147L121.741 254.085C122.912 253.551 123.582 252.818 123.585 252.069Z" fill="#DBA75D"/>
<path d="M123.494 251.402L123.492 252.463L123.49 252.507L123.492 251.445L123.494 251.402Z" fill="#DBA75D"/>
<path d="M123.493 251.445L123.49 252.507C123.487 252.6 123.473 252.695 123.449 252.787L123.454 251.725C123.476 251.631 123.49 251.538 123.493 251.445Z" fill="#DBA75D"/>
<path d="M123.454 251.725L123.449 252.786C123.424 252.88 123.39 252.974 123.346 253.066L123.349 252.004C123.393 251.912 123.429 251.819 123.454 251.725Z" fill="#DBA75D"/>
<path d="M123.349 252.004L123.347 253.065C123.299 253.162 123.241 253.258 123.173 253.352L123.176 252.29C123.246 252.196 123.303 252.101 123.349 252.004Z" fill="#DBA75D"/>
<path d="M123.176 252.29L123.173 253.353C123.097 253.456 123.009 253.556 122.911 253.654L122.914 252.593C123.014 252.495 123.101 252.394 123.176 252.29Z" fill="#DBA75D"/>
<path d="M122.915 252.593L122.912 253.654C122.793 253.771 122.657 253.885 122.506 253.993L122.509 252.932C122.662 252.823 122.796 252.71 122.915 252.593Z" fill="#DBA75D"/>
<path d="M122.507 252.932L122.504 253.993C122.273 254.157 122.006 254.313 121.704 254.454L121.708 253.392C122.009 253.251 122.276 253.096 122.507 252.932Z" fill="#DBA75D"/>
<path d="M121.708 253.392L121.703 254.453L121.648 254.479L121.651 253.418L121.708 253.392Z" fill="#DBA75D"/>
<path d="M115.111 251.477L115.107 252.538L101.734 258.643L101.738 257.582L115.111 251.477Z" fill="#DBA75D"/>
<path d="M98.2729 257.888L98.2778 256.825C98.2759 257.033 98.4558 257.242 98.8138 257.401C99.5181 257.71 100.642 257.707 101.331 257.393L101.328 258.456C100.64 258.769 99.5133 258.773 98.809 258.464C98.4519 258.304 98.2729 258.095 98.2729 257.888Z" fill="#DBA75D"/>
<path d="M100.522 257.014L100.518 258.077C100.396 258.131 100.262 258.177 100.119 258.213L100.122 257.152C100.265 257.116 100.402 257.07 100.522 257.014Z" fill="#DBA75D"/>
<path d="M100.121 257.151L100.118 258.212C100.01 258.24 99.8974 258.261 99.7812 258.278L99.7842 257.215C99.9003 257.199 100.012 257.178 100.121 257.151Z" fill="#DBA75D"/>
<path d="M99.7845 257.216L99.7816 258.279C99.7061 258.289 99.6306 258.297 99.5532 258.303L99.5561 257.242C99.6335 257.236 99.71 257.227 99.7845 257.216Z" fill="#DBA75D"/>
<path d="M99.5553 257.241L99.5524 258.302C99.4875 258.306 99.4208 258.311 99.356 258.313L99.3589 257.251C99.4256 257.249 99.4904 257.245 99.5553 257.241Z" fill="#DBA75D"/>
<path d="M99.3596 257.252L99.3567 258.313C99.2948 258.315 99.2348 258.315 99.1729 258.313L99.1777 257.252C99.2377 257.253 99.2996 257.253 99.3596 257.252Z" fill="#DBA75D"/>
<path d="M99.1761 257.253L99.1712 258.314C99.1122 258.312 99.0561 258.31 98.9971 258.307L99 257.245C99.059 257.249 99.117 257.251 99.1761 257.253Z" fill="#DBA75D"/>
<path d="M99.0008 257.244L98.9979 258.306C98.9389 258.302 98.8818 258.298 98.8247 258.292L98.8276 257.229C98.8847 257.236 98.9437 257.241 99.0008 257.244Z" fill="#DBA75D"/>
<path d="M98.8279 257.23L98.825 258.292C98.765 258.285 98.706 258.278 98.6489 258.268L98.6518 257.206C98.7108 257.215 98.7689 257.224 98.8279 257.23Z" fill="#DBA75D"/>
<path d="M98.652 257.205L98.6491 258.268C98.5862 258.257 98.5243 258.246 98.4624 258.232L98.4672 257.17C98.5272 257.184 98.5891 257.195 98.652 257.205Z" fill="#DBA75D"/>
<path d="M98.4672 257.17L98.4623 258.232C98.3878 258.216 98.3162 258.197 98.2466 258.175L98.2514 257.114C98.3211 257.136 98.3927 257.154 98.4672 257.17Z" fill="#DBA75D"/>
<path d="M98.2509 257.114L98.2461 258.175C98.16 258.149 98.0758 258.119 97.9974 258.085C97.6404 257.925 97.4614 257.716 97.4614 257.509L97.4663 256.446C97.4643 256.654 97.6443 256.863 98.0023 257.022C98.0797 257.057 98.1629 257.087 98.2509 257.114Z" fill="#DBA75D"/>
<path d="M120.289 245.165L120.285 246.227L91.124 259.54L91.1279 258.478L120.289 245.165Z" fill="#DBA75D"/>
<path d="M89.3086 261.37L89.3134 260.309C89.3163 259.634 89.8814 258.96 91.0114 258.443L91.0085 259.506C89.8765 260.022 89.3115 260.696 89.3086 261.37Z" fill="#DBA75D"/>
<path d="M90.7789 258.374L90.776 259.437L90.7329 259.455L90.7358 258.394L90.7789 258.374Z" fill="#DBA75D"/>
<path d="M90.7356 258.394L90.7327 259.455C90.4454 259.589 90.1958 259.734 89.9839 259.886L89.9887 258.823C90.2006 258.673 90.4502 258.528 90.7356 258.394Z" fill="#DBA75D"/>
<path d="M89.9882 258.823L89.9834 259.886C89.8431 259.985 89.7192 260.088 89.6128 260.195L89.6157 259.133C89.7241 259.026 89.8479 258.924 89.9882 258.823Z" fill="#DBA75D"/>
<path d="M89.6178 259.133L89.6149 260.194C89.5221 260.284 89.4417 260.377 89.374 260.47L89.3789 259.409C89.4466 259.315 89.5269 259.222 89.6178 259.133Z" fill="#DBA75D"/>
<path d="M89.3774 259.409L89.3725 260.47C89.3097 260.556 89.2574 260.645 89.2139 260.733L89.2168 259.672C89.2603 259.583 89.3145 259.495 89.3774 259.409Z" fill="#DBA75D"/>
<path d="M89.2168 259.672L89.2139 260.733C89.1723 260.819 89.1394 260.906 89.1162 260.994L89.121 259.933C89.1443 259.846 89.1752 259.758 89.2168 259.672Z" fill="#DBA75D"/>
<path d="M89.1212 259.932L89.1164 260.994C89.0954 261.082 89.081 261.172 89.0781 261.26L89.081 260.199C89.0858 260.109 89.0982 260.021 89.1212 259.932Z" fill="#DBA75D"/>
<path d="M89.0802 260.199L89.0781 261.26L89.0767 261.301L89.0802 260.24V260.199Z" fill="#DBA75D"/>
<path d="M135.722 251.961L135.718 253.023L112.762 263.502L112.766 262.44L135.722 251.961Z" fill="#DBA75D"/>
<path d="M109.3 262.745L109.303 261.682C109.303 261.89 109.48 262.097 109.837 262.257C110.542 262.567 111.673 262.564 112.36 262.25L112.356 263.311C111.667 263.626 110.539 263.628 109.834 263.318C109.477 263.16 109.298 262.951 109.3 262.745Z" fill="#DBA75D"/>
<path d="M111.549 261.869L111.547 262.93C111.427 262.985 111.291 263.031 111.148 263.067L111.151 262.005C111.294 261.97 111.429 261.924 111.549 261.869Z" fill="#DBA75D"/>
<path d="M111.149 262.005L111.146 263.067C111.038 263.094 110.926 263.116 110.81 263.133L110.814 262.07C110.931 262.054 111.043 262.033 111.149 262.005Z" fill="#DBA75D"/>
<path d="M110.816 262.071L110.811 263.133C110.736 263.143 110.66 263.151 110.583 263.157L110.587 262.095C110.665 262.089 110.74 262.081 110.816 262.071Z" fill="#DBA75D"/>
<path d="M110.586 262.095L110.582 263.157C110.517 263.161 110.453 263.166 110.386 263.168L110.389 262.106C110.455 262.104 110.521 262.1 110.586 262.095Z" fill="#DBA75D"/>
<path d="M110.388 262.106L110.385 263.167C110.323 263.169 110.263 263.169 110.201 263.167L110.206 262.106C110.266 262.107 110.328 262.107 110.388 262.106Z" fill="#DBA75D"/>
<path d="M110.207 262.107L110.202 263.168C110.143 263.166 110.085 263.164 110.026 263.16L110.031 262.099C110.09 262.103 110.148 262.105 110.207 262.107Z" fill="#DBA75D"/>
<path d="M110.031 262.099L110.026 263.16C109.969 263.157 109.91 263.152 109.853 263.145L109.856 262.083C109.915 262.09 109.972 262.095 110.031 262.099Z" fill="#DBA75D"/>
<path d="M109.857 262.083L109.854 263.144C109.794 263.138 109.735 263.13 109.676 263.121L109.681 262.059C109.738 262.068 109.798 262.077 109.857 262.083Z" fill="#DBA75D"/>
<path d="M109.68 262.059L109.676 263.121C109.613 263.111 109.55 263.099 109.49 263.085L109.493 262.024C109.553 262.038 109.617 262.049 109.68 262.059Z" fill="#DBA75D"/>
<path d="M109.493 262.025L109.49 263.086C109.415 263.07 109.342 263.05 109.272 263.03L109.275 261.967C109.346 261.989 109.419 262.008 109.493 262.025Z" fill="#DBA75D"/>
<path d="M109.276 261.967L109.273 263.03C109.185 263.002 109.102 262.972 109.024 262.938C108.667 262.779 108.488 262.571 108.49 262.364L108.493 261.302C108.493 261.51 108.67 261.716 109.027 261.877C109.106 261.911 109.19 261.941 109.276 261.967Z" fill="#DBA75D"/>
<path d="M121.786 254.418L121.782 255.479L102.2 264.418L102.204 263.357L121.786 254.418Z" fill="#DBA75D"/>
<path d="M85.8111 261.075L85.8159 260.013C85.8111 261.123 86.7621 262.235 88.6691 263.088C90.49 263.89 92.8914 264.326 95.4417 264.318C97.9863 264.309 100.37 263.856 102.151 263.044L102.146 264.105C100.366 264.917 97.9834 265.371 95.4369 265.379C92.8865 265.387 90.4851 264.951 88.6643 264.149C86.7573 263.297 85.8062 262.184 85.8111 261.075Z" fill="#DBA75D"/>
<path d="M102.041 262.417L102.036 263.478C101.385 263.775 100.652 264.025 99.8594 264.222L99.8642 263.161C100.657 262.964 101.39 262.714 102.041 262.417Z" fill="#DBA75D"/>
<path d="M99.8653 263.162L99.8605 264.223C99.3003 264.363 98.7101 264.476 98.0986 264.562L98.1015 263.501C98.713 263.414 99.3051 263.301 99.8653 263.162Z" fill="#DBA75D"/>
<path d="M98.1019 263.5L98.098 264.561C97.7014 264.616 97.2969 264.659 96.8848 264.691L96.8877 263.63C97.2998 263.598 97.7062 263.554 98.1019 263.5Z" fill="#DBA75D"/>
<path d="M96.8885 263.63L96.8856 264.691C96.5383 264.717 96.1851 264.737 95.8281 264.745L95.833 263.684C96.19 263.674 96.5412 263.656 96.8885 263.63Z" fill="#DBA75D"/>
<path d="M95.832 263.684L95.8281 264.745C95.6627 264.75 95.4972 264.753 95.3289 264.753C95.1634 264.754 94.9999 264.753 94.8364 264.749L94.8393 263.688C95.0028 263.691 95.1683 263.693 95.3337 263.691C95.5001 263.691 95.6666 263.688 95.832 263.684Z" fill="#DBA75D"/>
<path d="M94.8393 263.688L94.8364 264.749C94.5181 264.743 94.2036 264.73 93.8931 264.709L93.8979 263.648C94.2085 263.668 94.5229 263.682 94.8393 263.688Z" fill="#DBA75D"/>
<path d="M93.8981 263.648L93.8933 264.709C93.5827 264.69 93.276 264.664 92.9731 264.631L92.976 263.569C93.2789 263.603 93.5866 263.629 93.8981 263.648Z" fill="#DBA75D"/>
<path d="M92.9742 263.57L92.9713 264.631C92.6549 264.597 92.3443 264.554 92.0386 264.506L92.0415 263.444C92.3472 263.493 92.6578 263.536 92.9742 263.57Z" fill="#DBA75D"/>
<path d="M92.0429 263.444L92.04 264.506C91.7014 264.452 91.3715 264.388 91.0483 264.318L91.0532 263.256C91.3744 263.327 91.7063 263.39 92.0429 263.444Z" fill="#DBA75D"/>
<path d="M91.0547 263.256L91.0498 264.318C90.6541 264.23 90.27 264.13 89.9023 264.017L89.9052 262.956C90.2739 263.068 90.658 263.169 91.0547 263.256Z" fill="#DBA75D"/>
<path d="M89.9036 262.956L89.9007 264.018C89.4247 263.873 88.9758 263.708 88.5559 263.523C86.6489 262.671 85.6978 261.558 85.7027 260.448L85.7075 259.387C85.7027 260.496 86.6537 261.609 88.5607 262.462C88.9787 262.647 89.4276 262.811 89.9036 262.956Z" fill="#DBA75D"/>
<path d="M135.898 244.351C138.323 245.434 139.643 246.834 139.679 248.328C139.715 249.834 138.44 251.255 136.087 252.328L113.131 262.808C112.444 263.122 111.314 263.124 110.609 262.814C109.907 262.5 109.897 261.998 110.583 261.685L133.539 251.206C135.222 250.438 136.139 249.418 136.111 248.339C136.088 247.27 135.139 246.265 133.445 245.508C131.683 244.732 129.41 244.32 127.001 244.327C124.594 244.335 122.341 244.764 120.655 245.532L91.494 258.845C89.2039 259.892 89.2329 261.579 91.554 262.616C93.8654 263.633 97.7916 263.62 100.023 262.602L119.606 253.662C120.139 253.419 120.44 253.085 120.433 252.744C120.422 252.401 120.118 252.08 119.571 251.835C118.426 251.331 116.59 251.335 115.476 251.844L102.103 257.95C101.414 258.264 100.289 258.267 99.5844 257.958C98.8801 257.644 98.8694 257.14 99.5554 256.827L112.931 250.722C115.417 249.586 119.51 249.574 122.056 250.691C123.3 251.248 123.978 251.966 123.995 252.733C124.013 253.495 123.342 254.243 122.152 254.786L102.571 263.724C100.791 264.537 98.406 264.99 95.8614 264.998C93.311 265.006 90.9106 264.571 89.0898 263.768C85.3319 262.089 85.2864 259.394 88.9456 257.724L118.108 244.41C120.458 243.335 123.603 242.739 126.966 242.729C130.324 242.718 133.501 243.294 135.898 244.351Z" fill="#EABD70"/>
</svg>
