<svg width="36" height="36" viewBox="0 0 36 36" fill="none" xmlns="http://www.w3.org/2000/svg">
<path d="M18 3.37C14.4383 3.37014 10.9927 4.63767 8.27999 6.94577C5.56724 9.25387 3.76429 12.4519 3.19374 15.9677C2.62319 19.4835 3.32227 23.0876 5.16589 26.1351C7.00951 29.1826 9.87737 31.4747 13.2563 32.6012C14.0063 32.7325 14.2876 32.2825 14.2876 31.8887C14.2876 31.5325 14.2688 30.3512 14.2688 29.095C10.5 29.7887 9.52504 28.1763 9.22504 27.3325C8.89215 26.5119 8.36445 25.7847 7.68754 25.2137C7.16254 24.9325 6.41254 24.2387 7.66878 24.22C8.14846 24.2721 8.60852 24.439 9.00999 24.7066C9.41145 24.9743 9.74249 25.3347 9.97504 25.7575C10.1802 26.126 10.4561 26.4505 10.7868 26.7122C11.1176 26.974 11.4968 27.1679 11.9026 27.2828C12.3084 27.3978 12.733 27.4315 13.1519 27.3822C13.5708 27.3328 13.9758 27.2012 14.3438 26.995C14.4087 26.2324 14.7485 25.5194 15.3 24.9888C11.9625 24.6138 8.47504 23.32 8.47504 17.5825C8.45396 16.0918 9.00407 14.6494 10.0125 13.5513C9.55396 12.2556 9.60762 10.8337 10.1625 9.57629C10.1625 9.57629 11.4187 9.18252 14.2875 11.1138C16.742 10.4387 19.3331 10.4387 21.7875 11.1138C24.6563 9.16379 25.9125 9.57629 25.9125 9.57629C26.4675 10.8337 26.5212 12.2556 26.0625 13.5513C27.074 14.6475 27.6246 16.0911 27.6 17.5825C27.6 23.3387 24.0938 24.6138 20.7563 24.9888C21.1143 25.3516 21.39 25.7872 21.5647 26.2661C21.7394 26.7449 21.809 27.2557 21.7688 27.7638C21.7688 29.7701 21.75 31.3825 21.75 31.8888C21.75 32.2826 22.0313 32.7513 22.7813 32.6013C26.1543 31.4656 29.0139 29.1681 30.8497 26.1191C32.6854 23.07 33.3779 19.4677 32.8034 15.9553C32.2289 12.443 30.4248 9.24905 27.7132 6.94376C25.0017 4.63847 21.5591 3.37185 18 3.37Z" fill="black" fill-opacity="0.87"/>
</svg>
