<svg width="26" height="42" viewBox="0 0 26 42" fill="none" xmlns="http://www.w3.org/2000/svg">
<path d="M22.2978 41.2929H4.01498C2.51489 41.2929 1.29883 40.1372 1.29883 38.7109V3.87513C1.29883 2.44903 2.51489 1.29297 4.01498 1.29297H22.2978C23.7979 1.29297 25.0139 2.44903 25.0139 3.87513V38.7109C25.0139 40.1372 23.7979 41.2929 22.2978 41.2929Z" fill="#E7EFFF"/>
<path d="M25.3964 13.2933H1.29883V3.81871C1.29883 2.42407 2.48824 1.29327 3.95526 1.29327H22.5887C24.1329 1.29327 25.3964 2.49456 25.3964 3.9625V13.2933Z" fill="#B5C4FC"/>
<path d="M22.2978 41.2929H4.01498C2.51489 41.2929 1.29883 40.1372 1.29883 38.7109V3.87513C1.29883 2.44903 2.51489 1.29297 4.01498 1.29297H22.2978C23.7979 1.29297 25.0139 2.44903 25.0139 3.87513V38.7109C25.0139 40.1372 23.7979 41.2929 22.2978 41.2929Z" stroke="#858585" stroke-miterlimit="10" stroke-linecap="round" stroke-linejoin="round"/>
<path d="M22.3274 41.29H4.1106C2.56402 41.29 1.29883 40.0875 1.29883 38.6172V33.6536H25.0139V38.7363C25.0139 40.1467 23.8113 41.29 22.3274 41.29Z" fill="#BBBFC2"/>
<path d="M22.3817 41.29H4.1106C2.56402 41.29 1.29883 40.0875 1.29883 38.6172V33.6536H25.0139V38.7879C25.0139 40.1701 23.8354 41.29 22.3817 41.29Z" stroke="#858585" stroke-miterlimit="10" stroke-linecap="round" stroke-linejoin="round"/>
<path d="M13.3531 38.5852C14.0993 38.5852 14.7042 38.0098 14.7042 37.3008C14.7042 36.5911 14.0993 36.0157 13.3531 36.0157C12.6068 36.0157 12.002 36.5911 12.002 37.3008C12.002 38.0098 12.6068 38.5852 13.3531 38.5852Z" fill="#858585"/>
<path opacity="0.3" d="M6.65283 17.2929H20.0405" stroke="#858585" stroke-miterlimit="10" stroke-linecap="round" stroke-linejoin="round"/>
<path opacity="0.3" d="M9.32959 21.2935H17.7448" stroke="#858585" stroke-miterlimit="10" stroke-linecap="round" stroke-linejoin="round"/>
<path opacity="0.3" d="M6.65283 24.9294H20.0405" stroke="#858585" stroke-miterlimit="10" stroke-linecap="round" stroke-linejoin="round"/>
<path opacity="0.62" d="M13.3486 11.1021C15.0291 11.1021 16.3915 9.8069 16.3915 8.20928C16.3915 6.61158 15.0291 5.31641 13.3486 5.31641C11.668 5.31641 10.3057 6.61158 10.3057 8.20928C10.3057 9.8069 11.668 11.1021 13.3486 11.1021Z" fill="white"/>
<path d="M17.7459 28.9279C17.7459 29.7312 17.0609 30.3824 16.2159 30.3824H10.4783C9.63326 30.3824 8.94824 29.7312 8.94824 28.9279C8.94824 28.1244 9.63326 27.4732 10.4783 27.4732H16.2159C17.0609 27.4732 17.7459 28.1244 17.7459 28.9279Z" fill="#B5C4FC"/>
</svg>
