<svg width="127" height="71" viewBox="0 0 127 71" fill="none" xmlns="http://www.w3.org/2000/svg">
<path d="M0.340649 60.9432L14.8167 70.4535L15.8148 53.1617L0.340649 60.9432ZM126.261 7.34305C126.726 6.65751 126.547 5.72472 125.862 5.25963C125.176 4.79453 124.244 4.97324 123.778 5.65879L126.261 7.34305ZM76.1776 8.48367L75.2306 9.64699L76.1776 8.48367ZM34.2252 58.0804L34.7414 59.4888L34.2252 58.0804ZM97.1147 28.7546L97.7117 30.1307L97.1147 28.7546ZM39.9972 28.5893L41.4904 28.4468L39.9972 28.5893ZM6.72041 62.7048C8.02623 62.7285 9.48 62.7383 11.0338 62.7222L11.0026 59.7223C9.48057 59.7381 8.05552 59.7286 6.7748 59.7053L6.72041 62.7048ZM15.3593 62.6101C16.7687 62.5506 18.2194 62.4657 19.6837 62.3483L19.444 59.3579C18.0218 59.4719 16.6091 59.5546 15.2328 59.6127L15.3593 62.6101ZM24.0075 61.9023C25.4659 61.7151 26.9144 61.4884 28.3247 61.2146L27.753 58.2696C26.4147 58.5294 25.0304 58.7464 23.6256 58.9267L24.0075 61.9023ZM32.62 60.1847C33.3475 59.9712 34.0564 59.7398 34.7414 59.4888L33.7091 56.672C33.0923 56.898 32.4465 57.1091 31.7754 57.306L32.62 60.1847ZM34.7414 59.4888C35.3403 59.2693 35.9504 59.0403 36.5705 58.802L35.4944 56.0017C34.8885 56.2345 34.293 56.458 33.7091 56.672L34.7414 59.4888ZM40.2077 57.3444C41.3861 56.8533 42.5889 56.334 43.8085 55.7886L42.5837 53.05C41.3874 53.585 40.2081 54.0941 39.0536 54.5753L40.2077 57.3444ZM47.3629 54.1457C48.5278 53.5897 49.701 53.0122 50.8762 52.4149L49.5168 49.7406C48.3644 50.3263 47.2135 50.8928 46.0706 51.4383L47.3629 54.1457ZM54.3485 50.5933C55.4951 49.9725 56.6377 49.334 57.7703 48.6794L56.2691 46.082C55.1616 46.7222 54.0433 47.3471 52.9201 47.9552L54.3485 50.5933ZM61.1393 46.6639C62.2589 45.9701 63.3624 45.261 64.4437 44.538L62.7762 42.0442C61.7254 42.7467 60.651 43.4371 59.5591 44.1138L61.1393 46.6639ZM67.679 42.2818C68.7575 41.4961 69.8051 40.6962 70.8144 39.884L68.9335 37.5468C67.9645 38.3266 66.9553 39.0973 65.9125 39.857L67.679 42.2818ZM73.8372 37.3054C74.8445 36.3909 75.7986 35.4621 76.6888 34.521L74.5095 32.4593C73.6769 33.3395 72.7779 34.2152 71.8207 35.0841L73.8372 37.3054ZM79.3191 31.4553C80.1777 30.3384 80.9401 29.2027 81.587 28.0518L78.9719 26.5818C78.4045 27.5912 77.7243 28.6075 76.9406 29.627L79.3191 31.4553ZM83.2702 24.2258C83.7085 22.8333 83.9586 21.4191 83.983 19.9937L80.9834 19.9425C80.9645 21.0486 80.7702 22.1764 80.4086 23.325L83.2702 24.2258ZM83.3383 15.6927C82.9128 14.3856 82.2752 13.1061 81.418 11.8598L78.9462 13.5598C79.6524 14.5866 80.1558 15.6083 80.4856 16.6213L83.3383 15.6927ZM78.6858 8.69298C78.2 8.22992 77.6798 7.77235 77.1245 7.32035L75.2306 9.64699C75.7287 10.0524 76.1899 10.4584 76.6157 10.8644L78.6858 8.69298ZM77.1245 7.32035C76.5881 6.88378 76.051 6.47103 75.5134 6.08161L73.7535 8.51116C74.2443 8.86671 74.7369 9.24507 75.2306 9.64699L77.1245 7.32035ZM72.068 3.90203C70.8144 3.22154 69.5633 2.66266 68.3199 2.21942L67.3126 5.04525C68.404 5.4343 69.5136 5.92893 70.6367 6.5386L72.068 3.90203ZM64.3102 1.17819C62.895 0.946963 61.5024 0.863456 60.1418 0.916204L60.258 3.91395C61.4161 3.86905 62.6077 3.93981 63.8264 4.13893L64.3102 1.17819ZM55.997 1.51354C54.6322 1.85874 53.3201 2.34311 52.0712 2.94955L53.3816 5.64822C54.4521 5.12841 55.572 4.71552 56.7327 4.42194L55.997 1.51354ZM48.5202 5.12126C47.4185 5.94731 46.3892 6.87626 45.4413 7.89176L47.6345 9.93876C48.4659 9.04796 49.3642 8.23805 50.3199 7.52144L48.5202 5.12126ZM42.8871 11.1278C42.1326 12.2618 41.462 13.4636 40.8836 14.7192L43.6085 15.9742C44.1225 14.8582 44.7175 13.7926 45.3848 12.7896L42.8871 11.1278ZM39.4535 18.5657C39.0776 19.8697 38.7954 21.2125 38.6151 22.5818L41.5894 22.9734C41.75 21.754 42.0013 20.558 42.3361 19.3967L39.4535 18.5657ZM38.3862 26.6802C38.3996 27.3612 38.4385 28.0455 38.504 28.7318L41.4904 28.4468C41.4322 27.8363 41.3975 27.2275 41.3857 26.6216L38.3862 26.6802ZM38.504 28.7318C38.5771 29.4975 38.6899 30.2297 38.8421 30.9288L41.7734 30.2908C41.6483 29.7158 41.5529 29.1019 41.4904 28.4468L38.504 28.7318ZM40.4785 35.1782C41.2983 36.5531 42.34 37.6951 43.5642 38.6218L45.3749 36.2298C44.4502 35.5299 43.6717 34.6758 43.0552 33.6418L40.4785 35.1782ZM47.5813 40.7216C48.9198 41.1836 50.3571 41.4958 51.865 41.6835L52.2355 38.7065C50.8976 38.5399 49.6687 38.2684 48.56 37.8858L47.5813 40.7216ZM56.137 41.905C57.5011 41.8893 58.9097 41.8006 60.3498 41.6497L60.0371 38.666C58.6763 38.8086 57.3614 38.8907 56.1025 38.9052L56.137 41.905ZM64.4944 41.0666C65.8359 40.8337 67.1973 40.558 68.5699 40.2464L67.9057 37.3208C66.5777 37.6223 65.267 37.8876 63.9813 38.1108L64.4944 41.0666ZM72.5881 39.2448C73.9101 38.8877 75.2362 38.5038 76.5591 38.0989L75.6812 35.2303C74.3871 35.6263 73.093 36.0009 71.8057 36.3487L72.5881 39.2448ZM80.4844 36.8363C81.7924 36.3961 83.0907 35.9405 84.372 35.4754L83.3483 32.6554C82.0873 33.1132 80.8113 33.5609 79.5275 33.993L80.4844 36.8363ZM88.2242 34.0312C89.5257 33.5284 90.8009 33.0213 92.0415 32.5165L90.9107 29.7377C89.6852 30.2364 88.4267 30.7369 87.1432 31.2327L88.2242 34.0312ZM95.8277 30.9401C96.4694 30.6671 97.0978 30.397 97.7117 30.1307L96.5177 27.3785C95.91 27.6421 95.2881 27.9095 94.6533 28.1795L95.8277 30.9401ZM97.7117 30.1307C98.2812 29.8836 98.8426 29.6302 99.3958 29.3713L98.1241 26.6542C97.5963 26.9013 97.0608 27.1429 96.5177 27.3785L97.7117 30.1307ZM102.695 27.7136C103.8 27.1195 104.867 26.5059 105.897 25.8786L104.336 23.3166C103.351 23.9169 102.33 24.5036 101.274 25.0713L102.695 27.7136ZM108.996 23.8773C110.038 23.1651 111.035 22.4438 111.986 21.7214L110.17 19.3329C109.258 20.0261 108.303 20.7176 107.304 21.4001L108.996 23.8773ZM114.858 19.4239C115.842 18.5971 116.763 17.7793 117.622 16.9828L115.581 14.7834C114.757 15.5485 113.872 16.3338 112.927 17.1278L114.858 19.4239ZM120.26 14.4125C121.205 13.4458 122.04 12.5381 122.765 11.7164L120.514 9.73258C119.822 10.5182 119.021 11.388 118.115 12.3157L120.26 14.4125ZM125.132 8.86721C125.499 8.39598 125.777 8.02095 125.965 7.76078C126.06 7.63069 126.132 7.52928 126.181 7.4589C126.205 7.4237 126.225 7.39625 126.238 7.37685C126.245 7.36715 126.25 7.35946 126.254 7.35381C126.256 7.35099 126.257 7.34868 126.258 7.34689C126.259 7.34599 126.26 7.34522 126.26 7.34458C126.26 7.34426 126.26 7.34397 126.261 7.34372C126.261 7.34359 126.261 7.34347 126.261 7.34336C126.261 7.3433 126.261 7.34323 126.261 7.3432C126.261 7.34313 126.261 7.34305 125.02 6.50092C123.778 5.65879 123.779 5.65872 123.779 5.65865C123.779 5.65863 123.779 5.65857 123.779 5.65853C123.779 5.65845 123.779 5.65838 123.779 5.65831C123.779 5.65819 123.779 5.6581 123.779 5.65804C123.779 5.65791 123.779 5.65792 123.779 5.65806C123.779 5.65833 123.778 5.65911 123.777 5.6604C123.776 5.66299 123.772 5.6676 123.768 5.67421C123.759 5.68743 123.744 5.70862 123.724 5.73751C123.683 5.79529 123.621 5.88381 123.536 6.00077C123.366 6.23472 123.109 6.58234 122.764 7.0252L125.132 8.86721Z" fill="#C3A875"/>
</svg>
